G04 #@! TF.GenerationSoftware,KiCad,Pcbnew,(6.0.1)*
G04 #@! TF.CreationDate,2024-05-17T17:22:04+02:00*
G04 #@! TF.ProjectId,pmod_memory_module,706d6f64-5f6d-4656-9d6f-72795f6d6f64,rev?*
G04 #@! TF.SameCoordinates,Original*
G04 #@! TF.FileFunction,Legend,Top*
G04 #@! TF.FilePolarity,Positive*
%FSLAX46Y46*%
G04 Gerber Fmt 4.6, Leading zero omitted, Abs format (unit mm)*
G04 Created by KiCad (PCBNEW (6.0.1)) date 2024-05-17 17:22:04*
%MOMM*%
%LPD*%
G01*
G04 APERTURE LIST*
G04 Aperture macros list*
%AMRoundRect*
0 Rectangle with rounded corners*
0 $1 Rounding radius*
0 $2 $3 $4 $5 $6 $7 $8 $9 X,Y pos of 4 corners*
0 Add a 4 corners polygon primitive as box body*
4,1,4,$2,$3,$4,$5,$6,$7,$8,$9,$2,$3,0*
0 Add four circle primitives for the rounded corners*
1,1,$1+$1,$2,$3*
1,1,$1+$1,$4,$5*
1,1,$1+$1,$6,$7*
1,1,$1+$1,$8,$9*
0 Add four rect primitives between the rounded corners*
20,1,$1+$1,$2,$3,$4,$5,0*
20,1,$1+$1,$4,$5,$6,$7,0*
20,1,$1+$1,$6,$7,$8,$9,0*
20,1,$1+$1,$8,$9,$2,$3,0*%
G04 Aperture macros list end*
%ADD10C,0.333981*%
%ADD11C,0.100000*%
%ADD12C,0.150000*%
%ADD13C,0.120000*%
%ADD14RoundRect,0.250000X0.450000X-0.350000X0.450000X0.350000X-0.450000X0.350000X-0.450000X-0.350000X0*%
%ADD15RoundRect,0.250000X0.350000X0.450000X-0.350000X0.450000X-0.350000X-0.450000X0.350000X-0.450000X0*%
%ADD16RoundRect,0.150000X-0.150000X0.825000X-0.150000X-0.825000X0.150000X-0.825000X0.150000X0.825000X0*%
%ADD17RoundRect,0.250000X-0.450000X0.350000X-0.450000X-0.350000X0.450000X-0.350000X0.450000X0.350000X0*%
%ADD18RoundRect,0.250000X-0.350000X-0.450000X0.350000X-0.450000X0.350000X0.450000X-0.350000X0.450000X0*%
%ADD19RoundRect,0.250000X-0.475000X0.337500X-0.475000X-0.337500X0.475000X-0.337500X0.475000X0.337500X0*%
%ADD20R,1.700000X1.700000*%
%ADD21O,1.700000X1.700000*%
%ADD22C,1.700000*%
G04 APERTURE END LIST*
D10*
X45886990Y-24003000D02*
G75*
G03*
X45886990Y-24003000I-166990J0D01*
G01*
X34964990Y-23876000D02*
G75*
G03*
X34964990Y-23876000I-166990J0D01*
G01*
D11*
X18812899Y-18017100D02*
G75*
G03*
X18050899Y-18906100I147798J-897755D01*
G01*
D12*
X25146000Y-20574000D02*
X25146000Y-35687000D01*
D11*
X52721899Y-19287100D02*
G75*
G03*
X51451899Y-18017101I-1366773J-96774D01*
G01*
X51705899Y-37838127D02*
X19320899Y-37838126D01*
X18050899Y-36686100D02*
G75*
G03*
X19320899Y-37838126I1157297J-230D01*
G01*
X51705899Y-37838127D02*
G75*
G03*
X52721899Y-37067100I8302J1043977D01*
G01*
X52721899Y-37067100D02*
X52721899Y-19287100D01*
X51451899Y-18017101D02*
X18812899Y-18017100D01*
X18050899Y-18906100D02*
X18050899Y-36686100D01*
D12*
X50379333Y-26217380D02*
X50046000Y-25741190D01*
X49807904Y-26217380D02*
X49807904Y-25217380D01*
X50188857Y-25217380D01*
X50284095Y-25265000D01*
X50331714Y-25312619D01*
X50379333Y-25407857D01*
X50379333Y-25550714D01*
X50331714Y-25645952D01*
X50284095Y-25693571D01*
X50188857Y-25741190D01*
X49807904Y-25741190D01*
X51236476Y-25550714D02*
X51236476Y-26217380D01*
X50998380Y-25169761D02*
X50760285Y-25884047D01*
X51379333Y-25884047D01*
X43140333Y-20137380D02*
X42807000Y-19661190D01*
X42568904Y-20137380D02*
X42568904Y-19137380D01*
X42949857Y-19137380D01*
X43045095Y-19185000D01*
X43092714Y-19232619D01*
X43140333Y-19327857D01*
X43140333Y-19470714D01*
X43092714Y-19565952D01*
X43045095Y-19613571D01*
X42949857Y-19661190D01*
X42568904Y-19661190D01*
X44045095Y-19137380D02*
X43568904Y-19137380D01*
X43521285Y-19613571D01*
X43568904Y-19565952D01*
X43664142Y-19518333D01*
X43902238Y-19518333D01*
X43997476Y-19565952D01*
X44045095Y-19613571D01*
X44092714Y-19708809D01*
X44092714Y-19946904D01*
X44045095Y-20042142D01*
X43997476Y-20089761D01*
X43902238Y-20137380D01*
X43664142Y-20137380D01*
X43568904Y-20089761D01*
X43521285Y-20042142D01*
X28154380Y-28431904D02*
X28963904Y-28431904D01*
X29059142Y-28384285D01*
X29106761Y-28336666D01*
X29154380Y-28241428D01*
X29154380Y-28050952D01*
X29106761Y-27955714D01*
X29059142Y-27908095D01*
X28963904Y-27860476D01*
X28154380Y-27860476D01*
X28154380Y-27193809D02*
X28154380Y-27098571D01*
X28202000Y-27003333D01*
X28249619Y-26955714D01*
X28344857Y-26908095D01*
X28535333Y-26860476D01*
X28773428Y-26860476D01*
X28963904Y-26908095D01*
X29059142Y-26955714D01*
X29106761Y-27003333D01*
X29154380Y-27098571D01*
X29154380Y-27193809D01*
X29106761Y-27289047D01*
X29059142Y-27336666D01*
X28963904Y-27384285D01*
X28773428Y-27431904D01*
X28535333Y-27431904D01*
X28344857Y-27384285D01*
X28249619Y-27336666D01*
X28202000Y-27289047D01*
X28154380Y-27193809D01*
X37425333Y-23185380D02*
X37092000Y-22709190D01*
X36853904Y-23185380D02*
X36853904Y-22185380D01*
X37234857Y-22185380D01*
X37330095Y-22233000D01*
X37377714Y-22280619D01*
X37425333Y-22375857D01*
X37425333Y-22518714D01*
X37377714Y-22613952D01*
X37330095Y-22661571D01*
X37234857Y-22709190D01*
X36853904Y-22709190D01*
X38377714Y-23185380D02*
X37806285Y-23185380D01*
X38092000Y-23185380D02*
X38092000Y-22185380D01*
X37996761Y-22328238D01*
X37901523Y-22423476D01*
X37806285Y-22471095D01*
X38949380Y-28447904D02*
X39758904Y-28447904D01*
X39854142Y-28400285D01*
X39901761Y-28352666D01*
X39949380Y-28257428D01*
X39949380Y-28066952D01*
X39901761Y-27971714D01*
X39854142Y-27924095D01*
X39758904Y-27876476D01*
X38949380Y-27876476D01*
X39044619Y-27447904D02*
X38997000Y-27400285D01*
X38949380Y-27305047D01*
X38949380Y-27066952D01*
X38997000Y-26971714D01*
X39044619Y-26924095D01*
X39139857Y-26876476D01*
X39235095Y-26876476D01*
X39377952Y-26924095D01*
X39949380Y-27495523D01*
X39949380Y-26876476D01*
X32091333Y-37155380D02*
X31758000Y-36679190D01*
X31519904Y-37155380D02*
X31519904Y-36155380D01*
X31900857Y-36155380D01*
X31996095Y-36203000D01*
X32043714Y-36250619D01*
X32091333Y-36345857D01*
X32091333Y-36488714D01*
X32043714Y-36583952D01*
X31996095Y-36631571D01*
X31900857Y-36679190D01*
X31519904Y-36679190D01*
X32424666Y-36155380D02*
X33043714Y-36155380D01*
X32710380Y-36536333D01*
X32853238Y-36536333D01*
X32948476Y-36583952D01*
X32996095Y-36631571D01*
X33043714Y-36726809D01*
X33043714Y-36964904D01*
X32996095Y-37060142D01*
X32948476Y-37107761D01*
X32853238Y-37155380D01*
X32567523Y-37155380D01*
X32472285Y-37107761D01*
X32424666Y-37060142D01*
X42886333Y-37028380D02*
X42553000Y-36552190D01*
X42314904Y-37028380D02*
X42314904Y-36028380D01*
X42695857Y-36028380D01*
X42791095Y-36076000D01*
X42838714Y-36123619D01*
X42886333Y-36218857D01*
X42886333Y-36361714D01*
X42838714Y-36456952D01*
X42791095Y-36504571D01*
X42695857Y-36552190D01*
X42314904Y-36552190D01*
X43743476Y-36028380D02*
X43553000Y-36028380D01*
X43457761Y-36076000D01*
X43410142Y-36123619D01*
X43314904Y-36266476D01*
X43267285Y-36456952D01*
X43267285Y-36837904D01*
X43314904Y-36933142D01*
X43362523Y-36980761D01*
X43457761Y-37028380D01*
X43648238Y-37028380D01*
X43743476Y-36980761D01*
X43791095Y-36933142D01*
X43838714Y-36837904D01*
X43838714Y-36599809D01*
X43791095Y-36504571D01*
X43743476Y-36456952D01*
X43648238Y-36409333D01*
X43457761Y-36409333D01*
X43362523Y-36456952D01*
X43314904Y-36504571D01*
X43267285Y-36599809D01*
X32091333Y-20264380D02*
X31758000Y-19788190D01*
X31519904Y-20264380D02*
X31519904Y-19264380D01*
X31900857Y-19264380D01*
X31996095Y-19312000D01*
X32043714Y-19359619D01*
X32091333Y-19454857D01*
X32091333Y-19597714D01*
X32043714Y-19692952D01*
X31996095Y-19740571D01*
X31900857Y-19788190D01*
X31519904Y-19788190D01*
X32472285Y-19359619D02*
X32519904Y-19312000D01*
X32615142Y-19264380D01*
X32853238Y-19264380D01*
X32948476Y-19312000D01*
X32996095Y-19359619D01*
X33043714Y-19454857D01*
X33043714Y-19550095D01*
X32996095Y-19692952D01*
X32424666Y-20264380D01*
X33043714Y-20264380D01*
X37425333Y-34139142D02*
X37377714Y-34186761D01*
X37234857Y-34234380D01*
X37139619Y-34234380D01*
X36996761Y-34186761D01*
X36901523Y-34091523D01*
X36853904Y-33996285D01*
X36806285Y-33805809D01*
X36806285Y-33662952D01*
X36853904Y-33472476D01*
X36901523Y-33377238D01*
X36996761Y-33282000D01*
X37139619Y-33234380D01*
X37234857Y-33234380D01*
X37377714Y-33282000D01*
X37425333Y-33329619D01*
X38377714Y-34234380D02*
X37806285Y-34234380D01*
X38092000Y-34234380D02*
X38092000Y-33234380D01*
X37996761Y-33377238D01*
X37901523Y-33472476D01*
X37806285Y-33520095D01*
X50633333Y-31345142D02*
X50585714Y-31392761D01*
X50442857Y-31440380D01*
X50347619Y-31440380D01*
X50204761Y-31392761D01*
X50109523Y-31297523D01*
X50061904Y-31202285D01*
X50014285Y-31011809D01*
X50014285Y-30868952D01*
X50061904Y-30678476D01*
X50109523Y-30583238D01*
X50204761Y-30488000D01*
X50347619Y-30440380D01*
X50442857Y-30440380D01*
X50585714Y-30488000D01*
X50633333Y-30535619D01*
X51014285Y-30535619D02*
X51061904Y-30488000D01*
X51157142Y-30440380D01*
X51395238Y-30440380D01*
X51490476Y-30488000D01*
X51538095Y-30535619D01*
X51585714Y-30630857D01*
X51585714Y-30726095D01*
X51538095Y-30868952D01*
X50966666Y-31440380D01*
X51585714Y-31440380D01*
D13*
X47779000Y-25881064D02*
X47779000Y-25426936D01*
X49249000Y-25881064D02*
X49249000Y-25426936D01*
X43534064Y-22198000D02*
X43079936Y-22198000D01*
X43534064Y-20728000D02*
X43079936Y-20728000D01*
X29698000Y-27924000D02*
X29698000Y-25974000D01*
X29698000Y-27924000D02*
X29698000Y-29874000D01*
X34818000Y-27924000D02*
X34818000Y-29874000D01*
X34818000Y-27924000D02*
X34818000Y-24474000D01*
X38327000Y-25426936D02*
X38327000Y-25881064D01*
X36857000Y-25426936D02*
X36857000Y-25881064D01*
X40620000Y-27940000D02*
X40620000Y-25990000D01*
X45740000Y-27940000D02*
X45740000Y-24490000D01*
X45740000Y-27940000D02*
X45740000Y-29890000D01*
X40620000Y-27940000D02*
X40620000Y-29890000D01*
X32030936Y-35279000D02*
X32485064Y-35279000D01*
X32030936Y-33809000D02*
X32485064Y-33809000D01*
X42809936Y-33809000D02*
X43264064Y-33809000D01*
X42809936Y-35279000D02*
X43264064Y-35279000D01*
X32485064Y-22198000D02*
X32030936Y-22198000D01*
X32485064Y-20728000D02*
X32030936Y-20728000D01*
X38327000Y-30726748D02*
X38327000Y-31249252D01*
X36857000Y-30726748D02*
X36857000Y-31249252D01*
X47779000Y-30726748D02*
X47779000Y-31249252D01*
X49249000Y-30726748D02*
X49249000Y-31249252D01*
%LPC*%
D14*
X48514000Y-26654000D03*
X48514000Y-24654000D03*
D15*
X44307000Y-21463000D03*
X42307000Y-21463000D03*
D16*
X34163000Y-25449000D03*
X32893000Y-25449000D03*
X31623000Y-25449000D03*
X30353000Y-25449000D03*
X30353000Y-30399000D03*
X31623000Y-30399000D03*
X32893000Y-30399000D03*
X34163000Y-30399000D03*
D17*
X37592000Y-24654000D03*
X37592000Y-26654000D03*
D16*
X45085000Y-25465000D03*
X43815000Y-25465000D03*
X42545000Y-25465000D03*
X41275000Y-25465000D03*
X41275000Y-30415000D03*
X42545000Y-30415000D03*
X43815000Y-30415000D03*
X45085000Y-30415000D03*
D18*
X31258000Y-34544000D03*
X33258000Y-34544000D03*
X42037000Y-34544000D03*
X44037000Y-34544000D03*
D15*
X33258000Y-21463000D03*
X31258000Y-21463000D03*
D19*
X37592000Y-29950500D03*
X37592000Y-32025500D03*
X48514000Y-29950500D03*
X48514000Y-32025500D03*
D20*
X23618000Y-21590000D03*
D21*
X23618000Y-24130000D03*
X23618000Y-26670000D03*
X23618000Y-29210000D03*
X23618000Y-31750000D03*
X23618000Y-34290000D03*
D22*
X21078000Y-21590000D03*
D21*
X21078000Y-24130000D03*
X21078000Y-26670000D03*
X21078000Y-29210000D03*
X21078000Y-31750000D03*
X21078000Y-34290000D03*
M02*
