M48
; DRILL file {KiCad (6.0.1)} date Fri May 17 17:22:18 2024
; FORMAT={-:-/ absolute / metric / decimal}
; #@! TF.CreationDate,2024-05-17T17:22:18+02:00
; #@! TF.GenerationSoftware,Kicad,Pcbnew,(6.0.1)
; #@! TF.FileFunction,Plated,1,2,PTH
FMAT,2
METRIC
; #@! TA.AperFunction,Plated,PTH,ViaDrill
T1C0.400
; #@! TA.AperFunction,Plated,PTH,ComponentDrill
T2C1.000
%
G90
G05
T1
X29.464Y-20.701
X29.464Y-34.29
X29.464Y-35.814
X30.734Y-33.147
X31.623Y-32.385
X31.877Y-27.401
X32.512Y-23.114
X34.544Y-32.512
X35.814Y-25.4
X37.592Y-35.941
X39.333Y-19.976
X39.624Y-34.036
X40.005Y-30.734
X40.513Y-20.955
X41.275Y-33.02
X41.91Y-27.432
X42.545Y-28.448
X42.668Y-32.295
X43.434Y-23.368
X45.212Y-23.241
X48.514Y-35.052
T2
X21.078Y-21.59
X21.078Y-24.13
X21.078Y-26.67
X21.078Y-29.21
X21.078Y-31.75
X21.078Y-34.29
X23.618Y-21.59
X23.618Y-24.13
X23.618Y-26.67
X23.618Y-29.21
X23.618Y-31.75
X23.618Y-34.29
T0
M30
