%FSLAX45Y45*%
G04 Gerber Fmt 4.5, Leading zero omitted, Abs format (unit mm)*
G04 Created by KiCad (PCBNEW (6.0.1)) date 2024-05-17 17:22:19*
%MOMM*%
%LPD*%
G01*
G04 APERTURE LIST*
%TA.AperFunction,Profile*%
%ADD10C,0.100000*%
%TD*%
%ADD11C,0.200000*%
G04 APERTURE END LIST*
D10*
X5295900Y-3683000D02*
X5295900Y-1905000D01*
X5168900Y-1778000D02*
X1905000Y-1778000D01*
X5295900Y-1905000D02*
G75*
G03*
X5168900Y-1778000I-128831J-1831D01*
G01*
X5168900Y-3810000D02*
G75*
G03*
X5295900Y-3683000I0J127000D01*
G01*
X1778000Y-3683000D02*
G75*
G03*
X1905000Y-3810000I127000J0D01*
G01*
X1905000Y-1778000D02*
G75*
G03*
X1778000Y-1905000I0J-127000D01*
G01*
X1778000Y-1905000D02*
X1778000Y-3683000D01*
X1905000Y-3810000D02*
X5168900Y-3810000D01*
D11*
X2030619Y-4125476D02*
X2030619Y-3925476D01*
X2078238Y-3925476D01*
X2106810Y-3935000D01*
X2125857Y-3954048D01*
X2135381Y-3973095D01*
X2144905Y-4011190D01*
X2144905Y-4039762D01*
X2135381Y-4077857D01*
X2125857Y-4096905D01*
X2106810Y-4115952D01*
X2078238Y-4125476D01*
X2030619Y-4125476D01*
X2230619Y-4125476D02*
X2230619Y-3992143D01*
X2230619Y-4030238D02*
X2240143Y-4011190D01*
X2249667Y-4001667D01*
X2268714Y-3992143D01*
X2287762Y-3992143D01*
X2354429Y-4125476D02*
X2354429Y-3992143D01*
X2354429Y-3925476D02*
X2344905Y-3935000D01*
X2354429Y-3944524D01*
X2363952Y-3935000D01*
X2354429Y-3925476D01*
X2354429Y-3944524D01*
X2478238Y-4125476D02*
X2459190Y-4115952D01*
X2449667Y-4096905D01*
X2449667Y-3925476D01*
X2583000Y-4125476D02*
X2563952Y-4115952D01*
X2554429Y-4096905D01*
X2554429Y-3925476D01*
X2811571Y-4125476D02*
X2811571Y-3925476D01*
X2878238Y-4068333D01*
X2944905Y-3925476D01*
X2944905Y-4125476D01*
X3125857Y-4125476D02*
X3125857Y-4020714D01*
X3116333Y-4001667D01*
X3097286Y-3992143D01*
X3059190Y-3992143D01*
X3040143Y-4001667D01*
X3125857Y-4115952D02*
X3106809Y-4125476D01*
X3059190Y-4125476D01*
X3040143Y-4115952D01*
X3030619Y-4096905D01*
X3030619Y-4077857D01*
X3040143Y-4058810D01*
X3059190Y-4049286D01*
X3106809Y-4049286D01*
X3125857Y-4039762D01*
X3221095Y-3992143D02*
X3221095Y-4192143D01*
X3221095Y-4001667D02*
X3240143Y-3992143D01*
X3278238Y-3992143D01*
X3297286Y-4001667D01*
X3306809Y-4011190D01*
X3316333Y-4030238D01*
X3316333Y-4087381D01*
X3306809Y-4106429D01*
X3297286Y-4115952D01*
X3278238Y-4125476D01*
X3240143Y-4125476D01*
X3221095Y-4115952D01*
X3402048Y-4106429D02*
X3411571Y-4115952D01*
X3402048Y-4125476D01*
X3392524Y-4115952D01*
X3402048Y-4106429D01*
X3402048Y-4125476D01*
X3402048Y-4001667D02*
X3411571Y-4011190D01*
X3402048Y-4020714D01*
X3392524Y-4011190D01*
X3402048Y-4001667D01*
X3402048Y-4020714D01*
M02*
