G04 #@! TF.GenerationSoftware,KiCad,Pcbnew,(6.0.1)*
G04 #@! TF.CreationDate,2024-05-17T17:22:04+02:00*
G04 #@! TF.ProjectId,pmod_memory_module,706d6f64-5f6d-4656-9d6f-72795f6d6f64,rev?*
G04 #@! TF.SameCoordinates,Original*
G04 #@! TF.FileFunction,Legend,Bot*
G04 #@! TF.FilePolarity,Positive*
%FSLAX46Y46*%
G04 Gerber Fmt 4.6, Leading zero omitted, Abs format (unit mm)*
G04 Created by KiCad (PCBNEW (6.0.1)) date 2024-05-17 17:22:04*
%MOMM*%
%LPD*%
G01*
G04 APERTURE LIST*
G04 Aperture macros list*
%AMRoundRect*
0 Rectangle with rounded corners*
0 $1 Rounding radius*
0 $2 $3 $4 $5 $6 $7 $8 $9 X,Y pos of 4 corners*
0 Add a 4 corners polygon primitive as box body*
4,1,4,$2,$3,$4,$5,$6,$7,$8,$9,$2,$3,0*
0 Add four circle primitives for the rounded corners*
1,1,$1+$1,$2,$3*
1,1,$1+$1,$4,$5*
1,1,$1+$1,$6,$7*
1,1,$1+$1,$8,$9*
0 Add four rect primitives between the rounded corners*
20,1,$1+$1,$2,$3,$4,$5,0*
20,1,$1+$1,$4,$5,$6,$7,0*
20,1,$1+$1,$6,$7,$8,$9,0*
20,1,$1+$1,$8,$9,$2,$3,0*%
G04 Aperture macros list end*
%ADD10C,0.333981*%
%ADD11C,0.100000*%
%ADD12C,0.123000*%
%ADD13C,0.150000*%
%ADD14C,0.120000*%
%ADD15RoundRect,0.250000X-0.337500X-0.475000X0.337500X-0.475000X0.337500X0.475000X-0.337500X0.475000X0*%
%ADD16RoundRect,0.100000X-0.100000X0.637500X-0.100000X-0.637500X0.100000X-0.637500X0.100000X0.637500X0*%
%ADD17R,1.700000X1.700000*%
%ADD18O,1.700000X1.700000*%
%ADD19C,1.700000*%
G04 APERTURE END LIST*
D10*
X30900990Y-23749000D02*
G75*
G03*
X30900990Y-23749000I-166990J0D01*
G01*
X41695990Y-23749000D02*
G75*
G03*
X41695990Y-23749000I-166990J0D01*
G01*
D11*
X51435000Y-18034001D02*
X18796000Y-18034000D01*
X52705000Y-37084000D02*
X52705000Y-19304000D01*
X51689000Y-37855027D02*
X19304000Y-37855026D01*
X18034000Y-36703000D02*
G75*
G03*
X19304000Y-37855026I1157297J-230D01*
G01*
X51689000Y-37855027D02*
G75*
G03*
X52705000Y-37084000I8619J1043559D01*
G01*
X52705000Y-19304000D02*
G75*
G03*
X51435000Y-18034001I-1366477J-96478D01*
G01*
X18034000Y-18923000D02*
X18034000Y-36703000D01*
X18796000Y-18034000D02*
G75*
G03*
X18034000Y-18923000I147798J-897755D01*
G01*
D12*
X48114782Y-23069285D02*
X48138211Y-23139571D01*
X48138211Y-23256714D01*
X48114782Y-23303571D01*
X48091354Y-23327000D01*
X48044497Y-23350428D01*
X47997640Y-23350428D01*
X47950782Y-23327000D01*
X47927354Y-23303571D01*
X47903925Y-23256714D01*
X47880497Y-23163000D01*
X47857068Y-23116142D01*
X47833640Y-23092714D01*
X47786782Y-23069285D01*
X47739925Y-23069285D01*
X47693068Y-23092714D01*
X47669640Y-23116142D01*
X47646211Y-23163000D01*
X47646211Y-23280142D01*
X47669640Y-23350428D01*
X48138211Y-23561285D02*
X47646211Y-23561285D01*
X47646211Y-23748714D01*
X47669640Y-23795571D01*
X47693068Y-23819000D01*
X47739925Y-23842428D01*
X47810211Y-23842428D01*
X47857068Y-23819000D01*
X47880497Y-23795571D01*
X47903925Y-23748714D01*
X47903925Y-23561285D01*
X48138211Y-24053285D02*
X47646211Y-24053285D01*
X48138211Y-24662428D02*
X47646211Y-24662428D01*
X47997640Y-24826428D01*
X47646211Y-24990428D01*
X48138211Y-24990428D01*
X48114782Y-25412142D02*
X48138211Y-25365285D01*
X48138211Y-25271571D01*
X48114782Y-25224714D01*
X48067925Y-25201285D01*
X47880497Y-25201285D01*
X47833640Y-25224714D01*
X47810211Y-25271571D01*
X47810211Y-25365285D01*
X47833640Y-25412142D01*
X47880497Y-25435571D01*
X47927354Y-25435571D01*
X47974211Y-25201285D01*
X48138211Y-25646428D02*
X47810211Y-25646428D01*
X47857068Y-25646428D02*
X47833640Y-25669857D01*
X47810211Y-25716714D01*
X47810211Y-25787000D01*
X47833640Y-25833857D01*
X47880497Y-25857285D01*
X48138211Y-25857285D01*
X47880497Y-25857285D02*
X47833640Y-25880714D01*
X47810211Y-25927571D01*
X47810211Y-25997857D01*
X47833640Y-26044714D01*
X47880497Y-26068142D01*
X48138211Y-26068142D01*
X48138211Y-26372714D02*
X48114782Y-26325857D01*
X48091354Y-26302428D01*
X48044497Y-26279000D01*
X47903925Y-26279000D01*
X47857068Y-26302428D01*
X47833640Y-26325857D01*
X47810211Y-26372714D01*
X47810211Y-26443000D01*
X47833640Y-26489857D01*
X47857068Y-26513285D01*
X47903925Y-26536714D01*
X48044497Y-26536714D01*
X48091354Y-26513285D01*
X48114782Y-26489857D01*
X48138211Y-26443000D01*
X48138211Y-26372714D01*
X48138211Y-26747571D02*
X47810211Y-26747571D01*
X47903925Y-26747571D02*
X47857068Y-26771000D01*
X47833640Y-26794428D01*
X47810211Y-26841285D01*
X47810211Y-26888142D01*
X47810211Y-27005285D02*
X48138211Y-27122428D01*
X47810211Y-27239571D02*
X48138211Y-27122428D01*
X48255354Y-27075571D01*
X48278782Y-27052142D01*
X48302211Y-27005285D01*
X48138211Y-27801857D02*
X47646211Y-27801857D01*
X47646211Y-27989285D01*
X47669640Y-28036142D01*
X47693068Y-28059571D01*
X47739925Y-28083000D01*
X47810211Y-28083000D01*
X47857068Y-28059571D01*
X47880497Y-28036142D01*
X47903925Y-27989285D01*
X47903925Y-27801857D01*
X48138211Y-28293857D02*
X47646211Y-28293857D01*
X47997640Y-28457857D01*
X47646211Y-28621857D01*
X48138211Y-28621857D01*
X47646211Y-28949857D02*
X47646211Y-29043571D01*
X47669640Y-29090428D01*
X47716497Y-29137285D01*
X47810211Y-29160714D01*
X47974211Y-29160714D01*
X48067925Y-29137285D01*
X48114782Y-29090428D01*
X48138211Y-29043571D01*
X48138211Y-28949857D01*
X48114782Y-28903000D01*
X48067925Y-28856142D01*
X47974211Y-28832714D01*
X47810211Y-28832714D01*
X47716497Y-28856142D01*
X47669640Y-28903000D01*
X47646211Y-28949857D01*
X48138211Y-29371571D02*
X47646211Y-29371571D01*
X47646211Y-29488714D01*
X47669640Y-29559000D01*
X47716497Y-29605857D01*
X47763354Y-29629285D01*
X47857068Y-29652714D01*
X47927354Y-29652714D01*
X48021068Y-29629285D01*
X48067925Y-29605857D01*
X48114782Y-29559000D01*
X48138211Y-29488714D01*
X48138211Y-29371571D01*
X47880497Y-30402428D02*
X47903925Y-30472714D01*
X47927354Y-30496142D01*
X47974211Y-30519571D01*
X48044497Y-30519571D01*
X48091354Y-30496142D01*
X48114782Y-30472714D01*
X48138211Y-30425857D01*
X48138211Y-30238428D01*
X47646211Y-30238428D01*
X47646211Y-30402428D01*
X47669640Y-30449285D01*
X47693068Y-30472714D01*
X47739925Y-30496142D01*
X47786782Y-30496142D01*
X47833640Y-30472714D01*
X47857068Y-30449285D01*
X47880497Y-30402428D01*
X47880497Y-30238428D01*
X48138211Y-30800714D02*
X48114782Y-30753857D01*
X48091354Y-30730428D01*
X48044497Y-30707000D01*
X47903925Y-30707000D01*
X47857068Y-30730428D01*
X47833640Y-30753857D01*
X47810211Y-30800714D01*
X47810211Y-30871000D01*
X47833640Y-30917857D01*
X47857068Y-30941285D01*
X47903925Y-30964714D01*
X48044497Y-30964714D01*
X48091354Y-30941285D01*
X48114782Y-30917857D01*
X48138211Y-30871000D01*
X48138211Y-30800714D01*
X48138211Y-31386428D02*
X47880497Y-31386428D01*
X47833640Y-31363000D01*
X47810211Y-31316142D01*
X47810211Y-31222428D01*
X47833640Y-31175571D01*
X48114782Y-31386428D02*
X48138211Y-31339571D01*
X48138211Y-31222428D01*
X48114782Y-31175571D01*
X48067925Y-31152142D01*
X48021068Y-31152142D01*
X47974211Y-31175571D01*
X47950782Y-31222428D01*
X47950782Y-31339571D01*
X47927354Y-31386428D01*
X48138211Y-31620714D02*
X47810211Y-31620714D01*
X47903925Y-31620714D02*
X47857068Y-31644142D01*
X47833640Y-31667571D01*
X47810211Y-31714428D01*
X47810211Y-31761285D01*
X48138211Y-32136142D02*
X47646211Y-32136142D01*
X48114782Y-32136142D02*
X48138211Y-32089285D01*
X48138211Y-31995571D01*
X48114782Y-31948714D01*
X48091354Y-31925285D01*
X48044497Y-31901857D01*
X47903925Y-31901857D01*
X47857068Y-31925285D01*
X47833640Y-31948714D01*
X47810211Y-31995571D01*
X47810211Y-32089285D01*
X47833640Y-32136142D01*
X47810211Y-32698428D02*
X48138211Y-32815571D01*
X47810211Y-32932714D01*
X48138211Y-33377857D02*
X48138211Y-33096714D01*
X48138211Y-33237285D02*
X47646211Y-33237285D01*
X47716497Y-33190428D01*
X47763354Y-33143571D01*
X47786782Y-33096714D01*
X48091354Y-33588714D02*
X48114782Y-33612142D01*
X48138211Y-33588714D01*
X48114782Y-33565285D01*
X48091354Y-33588714D01*
X48138211Y-33588714D01*
X47646211Y-33916714D02*
X47646211Y-33963571D01*
X47669640Y-34010428D01*
X47693068Y-34033857D01*
X47739925Y-34057285D01*
X47833640Y-34080714D01*
X47950782Y-34080714D01*
X48044497Y-34057285D01*
X48091354Y-34033857D01*
X48114782Y-34010428D01*
X48138211Y-33963571D01*
X48138211Y-33916714D01*
X48114782Y-33869857D01*
X48091354Y-33846428D01*
X48044497Y-33823000D01*
X47950782Y-33799571D01*
X47833640Y-33799571D01*
X47739925Y-33823000D01*
X47693068Y-33846428D01*
X47669640Y-33869857D01*
X47646211Y-33916714D01*
X49464737Y-26981857D02*
X49464737Y-27145857D01*
X49722451Y-27216142D02*
X49722451Y-26981857D01*
X49230451Y-26981857D01*
X49230451Y-27216142D01*
X49722451Y-27637857D02*
X49230451Y-27637857D01*
X49699022Y-27637857D02*
X49722451Y-27591000D01*
X49722451Y-27497285D01*
X49699022Y-27450428D01*
X49675594Y-27427000D01*
X49628737Y-27403571D01*
X49488165Y-27403571D01*
X49441308Y-27427000D01*
X49417880Y-27450428D01*
X49394451Y-27497285D01*
X49394451Y-27591000D01*
X49417880Y-27637857D01*
X49394451Y-28083000D02*
X49722451Y-28083000D01*
X49394451Y-27872142D02*
X49652165Y-27872142D01*
X49699022Y-27895571D01*
X49722451Y-27942428D01*
X49722451Y-28012714D01*
X49699022Y-28059571D01*
X49675594Y-28083000D01*
X49394451Y-28528142D02*
X49722451Y-28528142D01*
X49207022Y-28411000D02*
X49558451Y-28293857D01*
X49558451Y-28598428D01*
X49675594Y-29067000D02*
X49699022Y-29043571D01*
X49722451Y-28973285D01*
X49722451Y-28926428D01*
X49699022Y-28856142D01*
X49652165Y-28809285D01*
X49605308Y-28785857D01*
X49511594Y-28762428D01*
X49441308Y-28762428D01*
X49347594Y-28785857D01*
X49300737Y-28809285D01*
X49253880Y-28856142D01*
X49230451Y-28926428D01*
X49230451Y-28973285D01*
X49253880Y-29043571D01*
X49277308Y-29067000D01*
X49722451Y-29277857D02*
X49230451Y-29277857D01*
X49722451Y-29488714D02*
X49464737Y-29488714D01*
X49417880Y-29465285D01*
X49394451Y-29418428D01*
X49394451Y-29348142D01*
X49417880Y-29301285D01*
X49441308Y-29277857D01*
X49722451Y-29723000D02*
X49394451Y-29723000D01*
X49230451Y-29723000D02*
X49253880Y-29699571D01*
X49277308Y-29723000D01*
X49253880Y-29746428D01*
X49230451Y-29723000D01*
X49277308Y-29723000D01*
X49394451Y-29957285D02*
X49886451Y-29957285D01*
X49417880Y-29957285D02*
X49394451Y-30004142D01*
X49394451Y-30097857D01*
X49417880Y-30144714D01*
X49441308Y-30168142D01*
X49488165Y-30191571D01*
X49628737Y-30191571D01*
X49675594Y-30168142D01*
X49699022Y-30144714D01*
X49722451Y-30097857D01*
X49722451Y-30004142D01*
X49699022Y-29957285D01*
X50814691Y-27075571D02*
X50814691Y-27122428D01*
X50838120Y-27169285D01*
X50861548Y-27192714D01*
X50908405Y-27216142D01*
X51002120Y-27239571D01*
X51119262Y-27239571D01*
X51212977Y-27216142D01*
X51259834Y-27192714D01*
X51283262Y-27169285D01*
X51306691Y-27122428D01*
X51306691Y-27075571D01*
X51283262Y-27028714D01*
X51259834Y-27005285D01*
X51212977Y-26981857D01*
X51119262Y-26958428D01*
X51002120Y-26958428D01*
X50908405Y-26981857D01*
X50861548Y-27005285D01*
X50838120Y-27028714D01*
X50814691Y-27075571D01*
X50814691Y-27684714D02*
X50814691Y-27450428D01*
X51048977Y-27427000D01*
X51025548Y-27450428D01*
X51002120Y-27497285D01*
X51002120Y-27614428D01*
X51025548Y-27661285D01*
X51048977Y-27684714D01*
X51095834Y-27708142D01*
X51212977Y-27708142D01*
X51259834Y-27684714D01*
X51283262Y-27661285D01*
X51306691Y-27614428D01*
X51306691Y-27497285D01*
X51283262Y-27450428D01*
X51259834Y-27427000D01*
X51119262Y-27919000D02*
X51119262Y-28293857D01*
X50861548Y-28504714D02*
X50838120Y-28528142D01*
X50814691Y-28575000D01*
X50814691Y-28692142D01*
X50838120Y-28739000D01*
X50861548Y-28762428D01*
X50908405Y-28785857D01*
X50955262Y-28785857D01*
X51025548Y-28762428D01*
X51306691Y-28481285D01*
X51306691Y-28785857D01*
X50814691Y-29090428D02*
X50814691Y-29137285D01*
X50838120Y-29184142D01*
X50861548Y-29207571D01*
X50908405Y-29231000D01*
X51002120Y-29254428D01*
X51119262Y-29254428D01*
X51212977Y-29231000D01*
X51259834Y-29207571D01*
X51283262Y-29184142D01*
X51306691Y-29137285D01*
X51306691Y-29090428D01*
X51283262Y-29043571D01*
X51259834Y-29020142D01*
X51212977Y-28996714D01*
X51119262Y-28973285D01*
X51002120Y-28973285D01*
X50908405Y-28996714D01*
X50861548Y-29020142D01*
X50838120Y-29043571D01*
X50814691Y-29090428D01*
X50861548Y-29441857D02*
X50838120Y-29465285D01*
X50814691Y-29512142D01*
X50814691Y-29629285D01*
X50838120Y-29676142D01*
X50861548Y-29699571D01*
X50908405Y-29723000D01*
X50955262Y-29723000D01*
X51025548Y-29699571D01*
X51306691Y-29418428D01*
X51306691Y-29723000D01*
X50978691Y-30144714D02*
X51306691Y-30144714D01*
X50791262Y-30027571D02*
X51142691Y-29910428D01*
X51142691Y-30215000D01*
D13*
X23961285Y-20407285D02*
X23961285Y-19978714D01*
X23961285Y-20193000D02*
X23211285Y-20193000D01*
X23318428Y-20121571D01*
X23389857Y-20050142D01*
X23425571Y-19978714D01*
X20798285Y-19816000D02*
X20798285Y-20316000D01*
X21548285Y-19994571D01*
X46458142Y-34631333D02*
X46505761Y-34583714D01*
X46553380Y-34440857D01*
X46553380Y-34345619D01*
X46505761Y-34202761D01*
X46410523Y-34107523D01*
X46315285Y-34059904D01*
X46124809Y-34012285D01*
X45981952Y-34012285D01*
X45791476Y-34059904D01*
X45696238Y-34107523D01*
X45601000Y-34202761D01*
X45553380Y-34345619D01*
X45553380Y-34440857D01*
X45601000Y-34583714D01*
X45648619Y-34631333D01*
X45886714Y-35488476D02*
X46553380Y-35488476D01*
X45505761Y-35250380D02*
X46220047Y-35012285D01*
X46220047Y-35631333D01*
X35790142Y-34631333D02*
X35837761Y-34583714D01*
X35885380Y-34440857D01*
X35885380Y-34345619D01*
X35837761Y-34202761D01*
X35742523Y-34107523D01*
X35647285Y-34059904D01*
X35456809Y-34012285D01*
X35313952Y-34012285D01*
X35123476Y-34059904D01*
X35028238Y-34107523D01*
X34933000Y-34202761D01*
X34885380Y-34345619D01*
X34885380Y-34440857D01*
X34933000Y-34583714D01*
X34980619Y-34631333D01*
X34885380Y-34964666D02*
X34885380Y-35583714D01*
X35266333Y-35250380D01*
X35266333Y-35393238D01*
X35313952Y-35488476D01*
X35361571Y-35536095D01*
X35456809Y-35583714D01*
X35694904Y-35583714D01*
X35790142Y-35536095D01*
X35837761Y-35488476D01*
X35885380Y-35393238D01*
X35885380Y-35107523D01*
X35837761Y-35012285D01*
X35790142Y-34964666D01*
X45172380Y-27178095D02*
X45981904Y-27178095D01*
X46077142Y-27225714D01*
X46124761Y-27273333D01*
X46172380Y-27368571D01*
X46172380Y-27559047D01*
X46124761Y-27654285D01*
X46077142Y-27701904D01*
X45981904Y-27749523D01*
X45172380Y-27749523D01*
X45172380Y-28130476D02*
X45172380Y-28749523D01*
X45553333Y-28416190D01*
X45553333Y-28559047D01*
X45600952Y-28654285D01*
X45648571Y-28701904D01*
X45743809Y-28749523D01*
X45981904Y-28749523D01*
X46077142Y-28701904D01*
X46124761Y-28654285D01*
X46172380Y-28559047D01*
X46172380Y-28273333D01*
X46124761Y-28178095D01*
X46077142Y-28130476D01*
X29297380Y-27305095D02*
X30106904Y-27305095D01*
X30202142Y-27352714D01*
X30249761Y-27400333D01*
X30297380Y-27495571D01*
X30297380Y-27686047D01*
X30249761Y-27781285D01*
X30202142Y-27828904D01*
X30106904Y-27876523D01*
X29297380Y-27876523D01*
X30297380Y-28876523D02*
X30297380Y-28305095D01*
X30297380Y-28590809D02*
X29297380Y-28590809D01*
X29440238Y-28495571D01*
X29535476Y-28400333D01*
X29583095Y-28305095D01*
D14*
X43045748Y-34063000D02*
X43568252Y-34063000D01*
X43045748Y-35533000D02*
X43568252Y-35533000D01*
X32250748Y-34063000D02*
X32773252Y-34063000D01*
X32250748Y-35533000D02*
X32773252Y-35533000D01*
G36*
X34301373Y-27390695D02*
G01*
X34328348Y-27390846D01*
X34350006Y-27391229D01*
X34367011Y-27391951D01*
X34380026Y-27393121D01*
X34389716Y-27394846D01*
X34396745Y-27397234D01*
X34401776Y-27400392D01*
X34405474Y-27404428D01*
X34408503Y-27409449D01*
X34411527Y-27415564D01*
X34412890Y-27418495D01*
X34414201Y-27421919D01*
X34415299Y-27426022D01*
X34416203Y-27431362D01*
X34416931Y-27438501D01*
X34417502Y-27447996D01*
X34417936Y-27460407D01*
X34418251Y-27476294D01*
X34418466Y-27496216D01*
X34418600Y-27520732D01*
X34418673Y-27550401D01*
X34418702Y-27585783D01*
X34418708Y-27627438D01*
X34418708Y-27824477D01*
X36596988Y-27824477D01*
X36608545Y-27832265D01*
X36610213Y-27833445D01*
X36618712Y-27841010D01*
X36624417Y-27848490D01*
X36624834Y-27849540D01*
X36625749Y-27854087D01*
X36626501Y-27861770D01*
X36627098Y-27873051D01*
X36627548Y-27888394D01*
X36627859Y-27908258D01*
X36628040Y-27933106D01*
X36628099Y-27963400D01*
X36628043Y-27999601D01*
X36627883Y-28042171D01*
X36627032Y-28227416D01*
X36604698Y-28249746D01*
X35511703Y-28250616D01*
X34418708Y-28251485D01*
X34418633Y-28448733D01*
X34418625Y-28465737D01*
X34418591Y-28505050D01*
X34418520Y-28538305D01*
X34418398Y-28566059D01*
X34418205Y-28588870D01*
X34417925Y-28607295D01*
X34417540Y-28621891D01*
X34417034Y-28633215D01*
X34416389Y-28641825D01*
X34415587Y-28648279D01*
X34414611Y-28653133D01*
X34413445Y-28656944D01*
X34412070Y-28660271D01*
X34411525Y-28661471D01*
X34408485Y-28667817D01*
X34405258Y-28673012D01*
X34401179Y-28677171D01*
X34395585Y-28680409D01*
X34387810Y-28682842D01*
X34377191Y-28684583D01*
X34363062Y-28685750D01*
X34344760Y-28686457D01*
X34321619Y-28686819D01*
X34292975Y-28686952D01*
X34258165Y-28686970D01*
X34235059Y-28686962D01*
X34206670Y-28686903D01*
X34183917Y-28686759D01*
X34166089Y-28686496D01*
X34152479Y-28686081D01*
X34142375Y-28685478D01*
X34135070Y-28684656D01*
X34129854Y-28683580D01*
X34126016Y-28682215D01*
X34122849Y-28680530D01*
X34113468Y-28672880D01*
X34105770Y-28663451D01*
X34105345Y-28662712D01*
X34104584Y-28661066D01*
X34103891Y-28658865D01*
X34103261Y-28655810D01*
X34102692Y-28651602D01*
X34102180Y-28645941D01*
X34101723Y-28638530D01*
X34101318Y-28629070D01*
X34100961Y-28617261D01*
X34100650Y-28602804D01*
X34100381Y-28585401D01*
X34100151Y-28564753D01*
X34099957Y-28540561D01*
X34099796Y-28512526D01*
X34099665Y-28480349D01*
X34099561Y-28443731D01*
X34099481Y-28402374D01*
X34099422Y-28355979D01*
X34099381Y-28304246D01*
X34099354Y-28246877D01*
X34099338Y-28183574D01*
X34099331Y-28114036D01*
X34099329Y-28037965D01*
X34099330Y-27997392D01*
X34099334Y-27924772D01*
X34099345Y-27858528D01*
X34099366Y-27798362D01*
X34099400Y-27743975D01*
X34099451Y-27695068D01*
X34099520Y-27651342D01*
X34099613Y-27612498D01*
X34099730Y-27578237D01*
X34099876Y-27548262D01*
X34100054Y-27522271D01*
X34100266Y-27499968D01*
X34100516Y-27481052D01*
X34100807Y-27465226D01*
X34101142Y-27452190D01*
X34101524Y-27441645D01*
X34101955Y-27433292D01*
X34102440Y-27426833D01*
X34102982Y-27421969D01*
X34103582Y-27418400D01*
X34104245Y-27415828D01*
X34104973Y-27413955D01*
X34105770Y-27412480D01*
X34106250Y-27411687D01*
X34109555Y-27406425D01*
X34112929Y-27402123D01*
X34117050Y-27398686D01*
X34122592Y-27396015D01*
X34130233Y-27394016D01*
X34140648Y-27392589D01*
X34154514Y-27391639D01*
X34172507Y-27391069D01*
X34195302Y-27390782D01*
X34223577Y-27390681D01*
X34258008Y-27390668D01*
X34268417Y-27390668D01*
X34301373Y-27390695D01*
G37*
G36*
X34562838Y-28859978D02*
G01*
X34623390Y-28859999D01*
X34689359Y-28860037D01*
X34760980Y-28860090D01*
X34838488Y-28860159D01*
X34922121Y-28860241D01*
X35012114Y-28860335D01*
X35108703Y-28860440D01*
X35137118Y-28860471D01*
X35232447Y-28860581D01*
X35321256Y-28860689D01*
X35403790Y-28860798D01*
X35480290Y-28860910D01*
X35551001Y-28861025D01*
X35616165Y-28861146D01*
X35676026Y-28861274D01*
X35730827Y-28861411D01*
X35780810Y-28861558D01*
X35826220Y-28861717D01*
X35867299Y-28861890D01*
X35904290Y-28862078D01*
X35937436Y-28862283D01*
X35966982Y-28862506D01*
X35993169Y-28862749D01*
X36016241Y-28863015D01*
X36036441Y-28863303D01*
X36054012Y-28863616D01*
X36069198Y-28863956D01*
X36082241Y-28864324D01*
X36093385Y-28864722D01*
X36102873Y-28865151D01*
X36110947Y-28865613D01*
X36117852Y-28866110D01*
X36123830Y-28866643D01*
X36129125Y-28867213D01*
X36167312Y-28872140D01*
X36223636Y-28881428D01*
X36274350Y-28892638D01*
X36320105Y-28906032D01*
X36361552Y-28921871D01*
X36399339Y-28940415D01*
X36434119Y-28961925D01*
X36466541Y-28986663D01*
X36497256Y-29014889D01*
X36508533Y-29026510D01*
X36541149Y-29064869D01*
X36569547Y-29106294D01*
X36593893Y-29151220D01*
X36614352Y-29200081D01*
X36631090Y-29253312D01*
X36644272Y-29311348D01*
X36654065Y-29374624D01*
X36660634Y-29443573D01*
X36661647Y-29464709D01*
X36662167Y-29491050D01*
X36662178Y-29520078D01*
X36661699Y-29549704D01*
X36660746Y-29577843D01*
X36659337Y-29602409D01*
X36653111Y-29663283D01*
X36641691Y-29730200D01*
X36625838Y-29791964D01*
X36605534Y-29848612D01*
X36580764Y-29900182D01*
X36551511Y-29946712D01*
X36517762Y-29988239D01*
X36479498Y-30024799D01*
X36462901Y-30038296D01*
X36425581Y-30065229D01*
X36386736Y-30088410D01*
X36345518Y-30108176D01*
X36301081Y-30124863D01*
X36252576Y-30138810D01*
X36199157Y-30150353D01*
X36139976Y-30159829D01*
X36136233Y-30160309D01*
X36131167Y-30160855D01*
X36125293Y-30161364D01*
X36118371Y-30161839D01*
X36110159Y-30162279D01*
X36100417Y-30162687D01*
X36088903Y-30163065D01*
X36075377Y-30163414D01*
X36059597Y-30163736D01*
X36041323Y-30164032D01*
X36020313Y-30164304D01*
X35996327Y-30164554D01*
X35969125Y-30164783D01*
X35938463Y-30164993D01*
X35904103Y-30165186D01*
X35865802Y-30165363D01*
X35823321Y-30165525D01*
X35776417Y-30165675D01*
X35724851Y-30165814D01*
X35668380Y-30165943D01*
X35606764Y-30166065D01*
X35539763Y-30166180D01*
X35467135Y-30166291D01*
X35388639Y-30166399D01*
X35304034Y-30166506D01*
X35213080Y-30166613D01*
X35115534Y-30166722D01*
X35112628Y-30166725D01*
X35015869Y-30166831D01*
X34925700Y-30166927D01*
X34841885Y-30167012D01*
X34764189Y-30167085D01*
X34692378Y-30167145D01*
X34626215Y-30167190D01*
X34565466Y-30167219D01*
X34509895Y-30167231D01*
X34459267Y-30167224D01*
X34413347Y-30167196D01*
X34371901Y-30167148D01*
X34334691Y-30167077D01*
X34301484Y-30166981D01*
X34272045Y-30166860D01*
X34246137Y-30166713D01*
X34223526Y-30166537D01*
X34203976Y-30166332D01*
X34187253Y-30166096D01*
X34173121Y-30165829D01*
X34161345Y-30165527D01*
X34151690Y-30165191D01*
X34143920Y-30164819D01*
X34137801Y-30164410D01*
X34133097Y-30163962D01*
X34129573Y-30163474D01*
X34126994Y-30162944D01*
X34125124Y-30162372D01*
X34123728Y-30161755D01*
X34122572Y-30161093D01*
X34120404Y-30159772D01*
X34115430Y-30156658D01*
X34111306Y-30153492D01*
X34107947Y-30149659D01*
X34105270Y-30144542D01*
X34103189Y-30137525D01*
X34101621Y-30127992D01*
X34100481Y-30115326D01*
X34099685Y-30098910D01*
X34099148Y-30078129D01*
X34098785Y-30052366D01*
X34098514Y-30021004D01*
X34098249Y-29983428D01*
X34098121Y-29962264D01*
X34098015Y-29930834D01*
X34098014Y-29901439D01*
X34098112Y-29874878D01*
X34098305Y-29851951D01*
X34098586Y-29833457D01*
X34098951Y-29820196D01*
X34099394Y-29812967D01*
X34100736Y-29804735D01*
X34105015Y-29792925D01*
X34113021Y-29782224D01*
X34124422Y-29769784D01*
X35097338Y-29767862D01*
X35170353Y-29767718D01*
X35263093Y-29767533D01*
X35349433Y-29767355D01*
X35429620Y-29767182D01*
X35503903Y-29767010D01*
X35572529Y-29766834D01*
X35635746Y-29766653D01*
X35693802Y-29766461D01*
X35746944Y-29766256D01*
X35795421Y-29766033D01*
X35839479Y-29765790D01*
X35879368Y-29765523D01*
X35915334Y-29765228D01*
X35947626Y-29764901D01*
X35976490Y-29764540D01*
X36002176Y-29764140D01*
X36024931Y-29763698D01*
X36045002Y-29763211D01*
X36062638Y-29762674D01*
X36078086Y-29762085D01*
X36091593Y-29761439D01*
X36103409Y-29760734D01*
X36113779Y-29759965D01*
X36122954Y-29759130D01*
X36131179Y-29758224D01*
X36138703Y-29757244D01*
X36145774Y-29756186D01*
X36152639Y-29755048D01*
X36159546Y-29753824D01*
X36166743Y-29752512D01*
X36175271Y-29750879D01*
X36218242Y-29739957D01*
X36255555Y-29725456D01*
X36287468Y-29707168D01*
X36314237Y-29684886D01*
X36336122Y-29658404D01*
X36353379Y-29627513D01*
X36366266Y-29592007D01*
X36369132Y-29579516D01*
X36372262Y-29557031D01*
X36374085Y-29531401D01*
X36374580Y-29504591D01*
X36373727Y-29478567D01*
X36371503Y-29455295D01*
X36367890Y-29436742D01*
X36359075Y-29411054D01*
X36341909Y-29378141D01*
X36319434Y-29349418D01*
X36291887Y-29325175D01*
X36259508Y-29305700D01*
X36245630Y-29299265D01*
X36222880Y-29290367D01*
X36198275Y-29282906D01*
X36170155Y-29276401D01*
X36136863Y-29270377D01*
X36133100Y-29269816D01*
X36128595Y-29269272D01*
X36123238Y-29268763D01*
X36116790Y-29268289D01*
X36109012Y-29267847D01*
X36099664Y-29267436D01*
X36088508Y-29267054D01*
X36075304Y-29266699D01*
X36059814Y-29266369D01*
X36041797Y-29266062D01*
X36021015Y-29265777D01*
X35997229Y-29265512D01*
X35970199Y-29265264D01*
X35939686Y-29265033D01*
X35905451Y-29264816D01*
X35867255Y-29264612D01*
X35824858Y-29264418D01*
X35778022Y-29264234D01*
X35726506Y-29264056D01*
X35670073Y-29263884D01*
X35608483Y-29263716D01*
X35541496Y-29263549D01*
X35468873Y-29263382D01*
X35390376Y-29263213D01*
X35305764Y-29263040D01*
X35214799Y-29262862D01*
X35117242Y-29262676D01*
X35063056Y-29262574D01*
X34969625Y-29262396D01*
X34882662Y-29262227D01*
X34801932Y-29262064D01*
X34727200Y-29261906D01*
X34658232Y-29261750D01*
X34594793Y-29261595D01*
X34536648Y-29261438D01*
X34483562Y-29261279D01*
X34435302Y-29261114D01*
X34391631Y-29260942D01*
X34352316Y-29260761D01*
X34317121Y-29260568D01*
X34285812Y-29260363D01*
X34258153Y-29260143D01*
X34233912Y-29259905D01*
X34212851Y-29259649D01*
X34194738Y-29259372D01*
X34179337Y-29259072D01*
X34166413Y-29258747D01*
X34155732Y-29258396D01*
X34147059Y-29258016D01*
X34140158Y-29257605D01*
X34134797Y-29257161D01*
X34130739Y-29256683D01*
X34127750Y-29256169D01*
X34125595Y-29255616D01*
X34124040Y-29255022D01*
X34122849Y-29254387D01*
X34113468Y-29246737D01*
X34105770Y-29237307D01*
X34105247Y-29236415D01*
X34103853Y-29233525D01*
X34102696Y-29229833D01*
X34101754Y-29224735D01*
X34101006Y-29217628D01*
X34100429Y-29207910D01*
X34100001Y-29194978D01*
X34099701Y-29178229D01*
X34099505Y-29157059D01*
X34099393Y-29130867D01*
X34099342Y-29099049D01*
X34099329Y-29061002D01*
X34099333Y-29035298D01*
X34099361Y-29001500D01*
X34099438Y-28973524D01*
X34099589Y-28950762D01*
X34099836Y-28932607D01*
X34100204Y-28918449D01*
X34100716Y-28907680D01*
X34101397Y-28899693D01*
X34102269Y-28893877D01*
X34103358Y-28889625D01*
X34104686Y-28886329D01*
X34106277Y-28883380D01*
X34107017Y-28882176D01*
X34115281Y-28872581D01*
X34125064Y-28865396D01*
X34126008Y-28864970D01*
X34127764Y-28864401D01*
X34130219Y-28863872D01*
X34133609Y-28863383D01*
X34138170Y-28862932D01*
X34144137Y-28862519D01*
X34151747Y-28862141D01*
X34161236Y-28861799D01*
X34172838Y-28861490D01*
X34186791Y-28861214D01*
X34203330Y-28860969D01*
X34222690Y-28860754D01*
X34245109Y-28860568D01*
X34270821Y-28860409D01*
X34300062Y-28860278D01*
X34333069Y-28860171D01*
X34370077Y-28860089D01*
X34411322Y-28860030D01*
X34457040Y-28859992D01*
X34507467Y-28859976D01*
X34562838Y-28859978D01*
G37*
G36*
X39217990Y-25661720D02*
G01*
X39221066Y-25666648D01*
X39227024Y-25677106D01*
X39235661Y-25692715D01*
X39246776Y-25713101D01*
X39260168Y-25737887D01*
X39275633Y-25766695D01*
X39292972Y-25799151D01*
X39311981Y-25834877D01*
X39332460Y-25873498D01*
X39354206Y-25914636D01*
X39377018Y-25957916D01*
X39400694Y-26002962D01*
X39420802Y-26041272D01*
X39451337Y-26099445D01*
X39479000Y-26152146D01*
X39503980Y-26199736D01*
X39526466Y-26242571D01*
X39546646Y-26281012D01*
X39564709Y-26315417D01*
X39580844Y-26346145D01*
X39595239Y-26373555D01*
X39608082Y-26398006D01*
X39619562Y-26419856D01*
X39629869Y-26439465D01*
X39639189Y-26457191D01*
X39647712Y-26473393D01*
X39655627Y-26488431D01*
X39663122Y-26502662D01*
X39670386Y-26516446D01*
X39677606Y-26530142D01*
X39684973Y-26544109D01*
X39692673Y-26558704D01*
X39700897Y-26574289D01*
X39706517Y-26584969D01*
X39718339Y-26607634D01*
X39728892Y-26628139D01*
X39737787Y-26645709D01*
X39744635Y-26659572D01*
X39749046Y-26668955D01*
X39750631Y-26673083D01*
X39750232Y-26674784D01*
X39747737Y-26682339D01*
X39743169Y-26695181D01*
X39736782Y-26712628D01*
X39728828Y-26733998D01*
X39719560Y-26758611D01*
X39709230Y-26785785D01*
X39698090Y-26814839D01*
X39664144Y-26903490D01*
X39630834Y-26991614D01*
X39600111Y-27074234D01*
X39571864Y-27151721D01*
X39545982Y-27224448D01*
X39522356Y-27292788D01*
X39500874Y-27357115D01*
X39481426Y-27417801D01*
X39463902Y-27475219D01*
X39448190Y-27529742D01*
X39434181Y-27581743D01*
X39421764Y-27631595D01*
X39410828Y-27679670D01*
X39401263Y-27726343D01*
X39392957Y-27771984D01*
X39385802Y-27816969D01*
X39379686Y-27861668D01*
X39374498Y-27906457D01*
X39374053Y-27911017D01*
X39372631Y-27931579D01*
X39371530Y-27957222D01*
X39370752Y-27986624D01*
X39370297Y-28018461D01*
X39370166Y-28051411D01*
X39370359Y-28084150D01*
X39370877Y-28115357D01*
X39371720Y-28143708D01*
X39372888Y-28167881D01*
X39374383Y-28186553D01*
X39377570Y-28214662D01*
X39383560Y-28260577D01*
X39390613Y-28306734D01*
X39398838Y-28353506D01*
X39408348Y-28401265D01*
X39419251Y-28450387D01*
X39431659Y-28501243D01*
X39445683Y-28554207D01*
X39461434Y-28609654D01*
X39479022Y-28667955D01*
X39498557Y-28729486D01*
X39520151Y-28794618D01*
X39543915Y-28863727D01*
X39569958Y-28937184D01*
X39598393Y-29015364D01*
X39629328Y-29098639D01*
X39662876Y-29187384D01*
X39699147Y-29281972D01*
X39704839Y-29296750D01*
X39715494Y-29324553D01*
X39725213Y-29350095D01*
X39733739Y-29372690D01*
X39740817Y-29391656D01*
X39746190Y-29406306D01*
X39749601Y-29415958D01*
X39750795Y-29419926D01*
X39749246Y-29423428D01*
X39744721Y-29432579D01*
X39737426Y-29446981D01*
X39727567Y-29466235D01*
X39715350Y-29489943D01*
X39700982Y-29517708D01*
X39684669Y-29549131D01*
X39666618Y-29583815D01*
X39647034Y-29621361D01*
X39626124Y-29661371D01*
X39604094Y-29703448D01*
X39581151Y-29747194D01*
X39576443Y-29756163D01*
X39540284Y-29825047D01*
X39507135Y-29888198D01*
X39476847Y-29945898D01*
X39449274Y-29998429D01*
X39424267Y-30046070D01*
X39401679Y-30089105D01*
X39381362Y-30127813D01*
X39363168Y-30162476D01*
X39346950Y-30193377D01*
X39332561Y-30220795D01*
X39319853Y-30245012D01*
X39308677Y-30266311D01*
X39298887Y-30284971D01*
X39290335Y-30301274D01*
X39282873Y-30315502D01*
X39276354Y-30327936D01*
X39270629Y-30338857D01*
X39265552Y-30348546D01*
X39260975Y-30357286D01*
X39256750Y-30365356D01*
X39252729Y-30373040D01*
X39248765Y-30380617D01*
X39240269Y-30396493D01*
X39231919Y-30411318D01*
X39225012Y-30422755D01*
X39220094Y-30429901D01*
X39217711Y-30431854D01*
X39217339Y-30431477D01*
X39216894Y-30430953D01*
X39216265Y-30430049D01*
X39215315Y-30428506D01*
X39213908Y-30426067D01*
X39211909Y-30422473D01*
X39209181Y-30417468D01*
X39205588Y-30410794D01*
X39200995Y-30402192D01*
X39195266Y-30391406D01*
X39188265Y-30378178D01*
X39179855Y-30362250D01*
X39169902Y-30343365D01*
X39158269Y-30321264D01*
X39144820Y-30295691D01*
X39129420Y-30266387D01*
X39111932Y-30233095D01*
X39092221Y-30195557D01*
X39070151Y-30153516D01*
X39045585Y-30106714D01*
X39018389Y-30054893D01*
X38988425Y-29997796D01*
X38955559Y-29935165D01*
X38919654Y-29866742D01*
X38685533Y-29420586D01*
X38728257Y-29309964D01*
X38735768Y-29290496D01*
X38772700Y-29194073D01*
X38806916Y-29103458D01*
X38838514Y-29018308D01*
X38867593Y-28938283D01*
X38894249Y-28863038D01*
X38918580Y-28792232D01*
X38940685Y-28725523D01*
X38960660Y-28662568D01*
X38978604Y-28603025D01*
X38994613Y-28546552D01*
X39008786Y-28492805D01*
X39021220Y-28441444D01*
X39032014Y-28392126D01*
X39041264Y-28344508D01*
X39049068Y-28298249D01*
X39055525Y-28253005D01*
X39060730Y-28208434D01*
X39064784Y-28164195D01*
X39067782Y-28119945D01*
X39069827Y-28057885D01*
X39068390Y-27980892D01*
X39062578Y-27901222D01*
X39052327Y-27817645D01*
X39048697Y-27793706D01*
X39041398Y-27750572D01*
X39032926Y-27706441D01*
X39023172Y-27660963D01*
X39012027Y-27613791D01*
X38999381Y-27564575D01*
X38985126Y-27512966D01*
X38969152Y-27458617D01*
X38951351Y-27401178D01*
X38931612Y-27340302D01*
X38909827Y-27275639D01*
X38885887Y-27206841D01*
X38859682Y-27133559D01*
X38831103Y-27055444D01*
X38800041Y-26972149D01*
X38766387Y-26883324D01*
X38730032Y-26788621D01*
X38685519Y-26673328D01*
X38734418Y-26580257D01*
X38735761Y-26577700D01*
X38744047Y-26561921D01*
X38755216Y-26540649D01*
X38769025Y-26514342D01*
X38785233Y-26483461D01*
X38803599Y-26448466D01*
X38823881Y-26409817D01*
X38845839Y-26367973D01*
X38869230Y-26323394D01*
X38893814Y-26276541D01*
X38919349Y-26227873D01*
X38945595Y-26177850D01*
X38972308Y-26126933D01*
X38999249Y-26075580D01*
X39013419Y-26048573D01*
X39038921Y-25999993D01*
X39063467Y-25953261D01*
X39086873Y-25908728D01*
X39108954Y-25866744D01*
X39129526Y-25827660D01*
X39148404Y-25791825D01*
X39165404Y-25759589D01*
X39180340Y-25731303D01*
X39193029Y-25707318D01*
X39203285Y-25687982D01*
X39210923Y-25673647D01*
X39215761Y-25664663D01*
X39217611Y-25661380D01*
X39217990Y-25661720D01*
G37*
G36*
X35254868Y-25911799D02*
G01*
X35365633Y-25911813D01*
X35474184Y-25911835D01*
X35582430Y-25911867D01*
X35684162Y-25911909D01*
X35779543Y-25911961D01*
X35868736Y-25912025D01*
X35951905Y-25912100D01*
X36029213Y-25912187D01*
X36100823Y-25912287D01*
X36166898Y-25912401D01*
X36227602Y-25912528D01*
X36283097Y-25912670D01*
X36333547Y-25912826D01*
X36379115Y-25912999D01*
X36419964Y-25913187D01*
X36456258Y-25913392D01*
X36488159Y-25913615D01*
X36515831Y-25913855D01*
X36539437Y-25914114D01*
X36559141Y-25914391D01*
X36575105Y-25914688D01*
X36587493Y-25915006D01*
X36596467Y-25915343D01*
X36602192Y-25915702D01*
X36604830Y-25916083D01*
X36613968Y-25920951D01*
X36622757Y-25932116D01*
X36623358Y-25933434D01*
X36624243Y-25936048D01*
X36625025Y-25939600D01*
X36625711Y-25944483D01*
X36626308Y-25951091D01*
X36626820Y-25959814D01*
X36627255Y-25971048D01*
X36627620Y-25985184D01*
X36627919Y-26002616D01*
X36628159Y-26023736D01*
X36628347Y-26048937D01*
X36628489Y-26078613D01*
X36628591Y-26113155D01*
X36628659Y-26152958D01*
X36628700Y-26198414D01*
X36628719Y-26249915D01*
X36628723Y-26307855D01*
X36628698Y-26357911D01*
X36628606Y-26414583D01*
X36628449Y-26467382D01*
X36628230Y-26515980D01*
X36627952Y-26560049D01*
X36627618Y-26599259D01*
X36627230Y-26633281D01*
X36626792Y-26661788D01*
X36626306Y-26684449D01*
X36625775Y-26700937D01*
X36625203Y-26710921D01*
X36624229Y-26721300D01*
X36616217Y-26783878D01*
X36604937Y-26840793D01*
X36590220Y-26892426D01*
X36571898Y-26939155D01*
X36549802Y-26981359D01*
X36523764Y-27019419D01*
X36493615Y-27053712D01*
X36459187Y-27084620D01*
X36447626Y-27093667D01*
X36410778Y-27119371D01*
X36373114Y-27140548D01*
X36332182Y-27158626D01*
X36328410Y-27160090D01*
X36294589Y-27172003D01*
X36258708Y-27182415D01*
X36219976Y-27191474D01*
X36177602Y-27199331D01*
X36130796Y-27206132D01*
X36078768Y-27212028D01*
X36020725Y-27217165D01*
X36014462Y-27217546D01*
X35999133Y-27218125D01*
X35977697Y-27218662D01*
X35950599Y-27219160D01*
X35918286Y-27219616D01*
X35881204Y-27220032D01*
X35839798Y-27220407D01*
X35794516Y-27220741D01*
X35745803Y-27221034D01*
X35694105Y-27221287D01*
X35639869Y-27221499D01*
X35583540Y-27221671D01*
X35525565Y-27221801D01*
X35466389Y-27221891D01*
X35406460Y-27221940D01*
X35346222Y-27221949D01*
X35286123Y-27221916D01*
X35226607Y-27221843D01*
X35168122Y-27221729D01*
X35111113Y-27221575D01*
X35056027Y-27221379D01*
X35003310Y-27221143D01*
X34953407Y-27220866D01*
X34906766Y-27220548D01*
X34863831Y-27220190D01*
X34825049Y-27219790D01*
X34790867Y-27219350D01*
X34761730Y-27218869D01*
X34738084Y-27218347D01*
X34720377Y-27217785D01*
X34709052Y-27217181D01*
X34674954Y-27214300D01*
X34611853Y-27207592D01*
X34554653Y-27199437D01*
X34502801Y-27189646D01*
X34455745Y-27178033D01*
X34412930Y-27164411D01*
X34373805Y-27148593D01*
X34337817Y-27130391D01*
X34304413Y-27109620D01*
X34273041Y-27086091D01*
X34243147Y-27059619D01*
X34218552Y-27033881D01*
X34189819Y-26996372D01*
X34165322Y-26954623D01*
X34144852Y-26908213D01*
X34128203Y-26856723D01*
X34115168Y-26799733D01*
X34115111Y-26799430D01*
X34112711Y-26786500D01*
X34110567Y-26774277D01*
X34108666Y-26762317D01*
X34106991Y-26750177D01*
X34105529Y-26737413D01*
X34104266Y-26723583D01*
X34103186Y-26708242D01*
X34102276Y-26690947D01*
X34101522Y-26671254D01*
X34100908Y-26648721D01*
X34100420Y-26622904D01*
X34100044Y-26593359D01*
X34099766Y-26559644D01*
X34099570Y-26521313D01*
X34099443Y-26477925D01*
X34099370Y-26429036D01*
X34099337Y-26374201D01*
X34099329Y-26314687D01*
X34390660Y-26314687D01*
X34392341Y-26459005D01*
X34392476Y-26470328D01*
X34392994Y-26507889D01*
X34393606Y-26539543D01*
X34394393Y-26566015D01*
X34395437Y-26588033D01*
X34396816Y-26606324D01*
X34398613Y-26621613D01*
X34400906Y-26634627D01*
X34403778Y-26646094D01*
X34407308Y-26656739D01*
X34411578Y-26667289D01*
X34416666Y-26678471D01*
X34420065Y-26685333D01*
X34436527Y-26711190D01*
X34457351Y-26733622D01*
X34482884Y-26752818D01*
X34513472Y-26768970D01*
X34549462Y-26782269D01*
X34591198Y-26792904D01*
X34639028Y-26801069D01*
X34649158Y-26802434D01*
X34661854Y-26804057D01*
X34674502Y-26805535D01*
X34687446Y-26806876D01*
X34701029Y-26808086D01*
X34715597Y-26809171D01*
X34731493Y-26810140D01*
X34749060Y-26810997D01*
X34768643Y-26811751D01*
X34790587Y-26812407D01*
X34815234Y-26812972D01*
X34842928Y-26813453D01*
X34874015Y-26813857D01*
X34908837Y-26814190D01*
X34947739Y-26814458D01*
X34991065Y-26814669D01*
X35039158Y-26814830D01*
X35092364Y-26814946D01*
X35151024Y-26815025D01*
X35215485Y-26815073D01*
X35286089Y-26815097D01*
X35363181Y-26815104D01*
X35378399Y-26815104D01*
X35454318Y-26815095D01*
X35523815Y-26815069D01*
X35587237Y-26815018D01*
X35644927Y-26814935D01*
X35697231Y-26814811D01*
X35744493Y-26814641D01*
X35787059Y-26814417D01*
X35825273Y-26814130D01*
X35859481Y-26813775D01*
X35890027Y-26813344D01*
X35917255Y-26812829D01*
X35941512Y-26812224D01*
X35963142Y-26811520D01*
X35982489Y-26810710D01*
X35999899Y-26809788D01*
X36015717Y-26808746D01*
X36030287Y-26807576D01*
X36043954Y-26806272D01*
X36057064Y-26804825D01*
X36069961Y-26803230D01*
X36082989Y-26801477D01*
X36096495Y-26799561D01*
X36105142Y-26798263D01*
X36151275Y-26789360D01*
X36191396Y-26777846D01*
X36225856Y-26763476D01*
X36255003Y-26746006D01*
X36279190Y-26725194D01*
X36298766Y-26700795D01*
X36314082Y-26672565D01*
X36325488Y-26640262D01*
X36326788Y-26635439D01*
X36328364Y-26628789D01*
X36329660Y-26621705D01*
X36330712Y-26613477D01*
X36331554Y-26603394D01*
X36332221Y-26590746D01*
X36332750Y-26574820D01*
X36333173Y-26554906D01*
X36333528Y-26530294D01*
X36333848Y-26500271D01*
X36334169Y-26464129D01*
X36335431Y-26314687D01*
X34390660Y-26314687D01*
X34099329Y-26314687D01*
X34099329Y-26312979D01*
X34099329Y-25944071D01*
X34107523Y-25932583D01*
X34108636Y-25931110D01*
X34117460Y-25922408D01*
X34127054Y-25916358D01*
X34127446Y-25916224D01*
X34129743Y-25915805D01*
X34133749Y-25915411D01*
X34139661Y-25915043D01*
X34147676Y-25914698D01*
X34157991Y-25914377D01*
X34170804Y-25914079D01*
X34186311Y-25913803D01*
X34204708Y-25913549D01*
X34226195Y-25913315D01*
X34250966Y-25913101D01*
X34279219Y-25912906D01*
X34311152Y-25912730D01*
X34346961Y-25912571D01*
X34386844Y-25912430D01*
X34390660Y-25912419D01*
X34430997Y-25912305D01*
X34479617Y-25912195D01*
X34532901Y-25912101D01*
X34591047Y-25912020D01*
X34654252Y-25911953D01*
X34722712Y-25911899D01*
X34796624Y-25911856D01*
X34876186Y-25911825D01*
X34961594Y-25911805D01*
X35053046Y-25911794D01*
X35150738Y-25911792D01*
X35254868Y-25911799D01*
G37*
G36*
X40540379Y-25661488D02*
G01*
X40540803Y-25662013D01*
X40541493Y-25663069D01*
X40542586Y-25664917D01*
X40544221Y-25667821D01*
X40546537Y-25672043D01*
X40549673Y-25677847D01*
X40553766Y-25685495D01*
X40558955Y-25695250D01*
X40565379Y-25707375D01*
X40573176Y-25722133D01*
X40582485Y-25739786D01*
X40593444Y-25760598D01*
X40606192Y-25784831D01*
X40620866Y-25812749D01*
X40637607Y-25844613D01*
X40656552Y-25880687D01*
X40677839Y-25921234D01*
X40701607Y-25966516D01*
X40727996Y-26016797D01*
X40757142Y-26072338D01*
X40789185Y-26133404D01*
X40824263Y-26200257D01*
X40844962Y-26239699D01*
X40867900Y-26283394D01*
X40890571Y-26326565D01*
X40912653Y-26368600D01*
X40933821Y-26408883D01*
X40953755Y-26446800D01*
X40972130Y-26481738D01*
X40988624Y-26513083D01*
X41002913Y-26540219D01*
X41014676Y-26562534D01*
X41023589Y-26579412D01*
X41028750Y-26589172D01*
X41040471Y-26611355D01*
X41050942Y-26631193D01*
X41059774Y-26647946D01*
X41066576Y-26660877D01*
X41070962Y-26669246D01*
X41072540Y-26672316D01*
X41071935Y-26674061D01*
X41069155Y-26681509D01*
X41064343Y-26694218D01*
X41057746Y-26711541D01*
X41049609Y-26732834D01*
X41040180Y-26757450D01*
X41029704Y-26784745D01*
X41018428Y-26814073D01*
X41014764Y-26823599D01*
X40993584Y-26878760D01*
X40974561Y-26928525D01*
X40957392Y-26973714D01*
X40941772Y-27015151D01*
X40927397Y-27053657D01*
X40913964Y-27090057D01*
X40901169Y-27125171D01*
X40888708Y-27159823D01*
X40876277Y-27194835D01*
X40863572Y-27231029D01*
X40850290Y-27269229D01*
X40839597Y-27300383D01*
X40807861Y-27396792D01*
X40779978Y-27488318D01*
X40755900Y-27575505D01*
X40735582Y-27658900D01*
X40718976Y-27739048D01*
X40706036Y-27816496D01*
X40696716Y-27891788D01*
X40690969Y-27965470D01*
X40688748Y-28038089D01*
X40690007Y-28110189D01*
X40694700Y-28182318D01*
X40702779Y-28255019D01*
X40714199Y-28328840D01*
X40728912Y-28404325D01*
X40746873Y-28482021D01*
X40756058Y-28518083D01*
X40768803Y-28565267D01*
X40782921Y-28614535D01*
X40798541Y-28666265D01*
X40815792Y-28720833D01*
X40834803Y-28778618D01*
X40855703Y-28839997D01*
X40878621Y-28905346D01*
X40903685Y-28975044D01*
X40931025Y-29049468D01*
X40960770Y-29128994D01*
X40993048Y-29214002D01*
X41027988Y-29304867D01*
X41072752Y-29420639D01*
X40996226Y-29566177D01*
X40987968Y-29581884D01*
X40971128Y-29613924D01*
X40952386Y-29649595D01*
X40931995Y-29688412D01*
X40910210Y-29729892D01*
X40887284Y-29773550D01*
X40863472Y-29818903D01*
X40839027Y-29865467D01*
X40814203Y-29912757D01*
X40789254Y-29960291D01*
X40764435Y-30007583D01*
X40739999Y-30054150D01*
X40716200Y-30099509D01*
X40693292Y-30143175D01*
X40671528Y-30184664D01*
X40651164Y-30223492D01*
X40632453Y-30259176D01*
X40615649Y-30291231D01*
X40601005Y-30319173D01*
X40588776Y-30342520D01*
X40579216Y-30360786D01*
X40572578Y-30373487D01*
X40572335Y-30373954D01*
X40562857Y-30391933D01*
X40554353Y-30407733D01*
X40547361Y-30420379D01*
X40542419Y-30428899D01*
X40540065Y-30432318D01*
X40538954Y-30431175D01*
X40534905Y-30424799D01*
X40528274Y-30413375D01*
X40519394Y-30397509D01*
X40508599Y-30377804D01*
X40496222Y-30354865D01*
X40482597Y-30329297D01*
X40468056Y-30301705D01*
X40464213Y-30294372D01*
X40452283Y-30271616D01*
X40437586Y-30243586D01*
X40420415Y-30210842D01*
X40401063Y-30173940D01*
X40379823Y-30133439D01*
X40356987Y-30089898D01*
X40332848Y-30043874D01*
X40307698Y-29995927D01*
X40281832Y-29946613D01*
X40255540Y-29896492D01*
X40229117Y-29846122D01*
X40202855Y-29796060D01*
X40180586Y-29753594D01*
X40156720Y-29708048D01*
X40133925Y-29664506D01*
X40112392Y-29623336D01*
X40092312Y-29584905D01*
X40073877Y-29549582D01*
X40057278Y-29517734D01*
X40042708Y-29489728D01*
X40030357Y-29465932D01*
X40020418Y-29446713D01*
X40013081Y-29432439D01*
X40008538Y-29423478D01*
X40006981Y-29420197D01*
X40008018Y-29416779D01*
X40011174Y-29407946D01*
X40016061Y-29394796D01*
X40022287Y-29378383D01*
X40029459Y-29359763D01*
X40050937Y-29304239D01*
X40086944Y-29210359D01*
X40120323Y-29122190D01*
X40151178Y-29039396D01*
X40179611Y-28961641D01*
X40205727Y-28888588D01*
X40229627Y-28819901D01*
X40251416Y-28755245D01*
X40271196Y-28694282D01*
X40289071Y-28636678D01*
X40305144Y-28582095D01*
X40319518Y-28530198D01*
X40332296Y-28480650D01*
X40343582Y-28433116D01*
X40353478Y-28387259D01*
X40362088Y-28342743D01*
X40369515Y-28299232D01*
X40375863Y-28256390D01*
X40381233Y-28213880D01*
X40382168Y-28205157D01*
X40384476Y-28176910D01*
X40386338Y-28144047D01*
X40387723Y-28108187D01*
X40388600Y-28070949D01*
X40388938Y-28033953D01*
X40388707Y-27998819D01*
X40387876Y-27967166D01*
X40386414Y-27940615D01*
X40383203Y-27903227D01*
X40377364Y-27850413D01*
X40369883Y-27797339D01*
X40360598Y-27743265D01*
X40349346Y-27687455D01*
X40335966Y-27629169D01*
X40320295Y-27567670D01*
X40302170Y-27502220D01*
X40281428Y-27432079D01*
X40257909Y-27356510D01*
X40248127Y-27326473D01*
X40235021Y-27287719D01*
X40219672Y-27243584D01*
X40202259Y-27194561D01*
X40182963Y-27141145D01*
X40161963Y-27083830D01*
X40139440Y-27023110D01*
X40115572Y-26959479D01*
X40090541Y-26893431D01*
X40064527Y-26825461D01*
X40053364Y-26796319D01*
X40042506Y-26767728D01*
X40032700Y-26741657D01*
X40024182Y-26718748D01*
X40017189Y-26699642D01*
X40011958Y-26684980D01*
X40008725Y-26675404D01*
X40007728Y-26671556D01*
X40008322Y-26670136D01*
X40011758Y-26663097D01*
X40018052Y-26650673D01*
X40027003Y-26633246D01*
X40038411Y-26611196D01*
X40052073Y-26584906D01*
X40067790Y-26554756D01*
X40085360Y-26521127D01*
X40104582Y-26484401D01*
X40125255Y-26444958D01*
X40147179Y-26403180D01*
X40170151Y-26359448D01*
X40193972Y-26314144D01*
X40218440Y-26267648D01*
X40243353Y-26220341D01*
X40268512Y-26172605D01*
X40293716Y-26124821D01*
X40318762Y-26077370D01*
X40343450Y-26030633D01*
X40367580Y-25984992D01*
X40390949Y-25940827D01*
X40413358Y-25898520D01*
X40434605Y-25858452D01*
X40454488Y-25821004D01*
X40472808Y-25786557D01*
X40489363Y-25755493D01*
X40503952Y-25728192D01*
X40516375Y-25705036D01*
X40526429Y-25686406D01*
X40533914Y-25672683D01*
X40538629Y-25664248D01*
X40540374Y-25661483D01*
X40540379Y-25661488D01*
G37*
G36*
X37900716Y-25662694D02*
G01*
X37902937Y-25666669D01*
X37906690Y-25673586D01*
X37912068Y-25683617D01*
X37919162Y-25696934D01*
X37928061Y-25713712D01*
X37938857Y-25734122D01*
X37951641Y-25758337D01*
X37966505Y-25786530D01*
X37983538Y-25818874D01*
X38002832Y-25855541D01*
X38024478Y-25896705D01*
X38048566Y-25942538D01*
X38075188Y-25993214D01*
X38104435Y-26048903D01*
X38136398Y-26109781D01*
X38171167Y-26176019D01*
X38208833Y-26247789D01*
X38249488Y-26325266D01*
X38293222Y-26408622D01*
X38307315Y-26435471D01*
X38324196Y-26467606D01*
X38340752Y-26499092D01*
X38356507Y-26529029D01*
X38370988Y-26556517D01*
X38383721Y-26580655D01*
X38394231Y-26600542D01*
X38402045Y-26615279D01*
X38402209Y-26615586D01*
X38411617Y-26633304D01*
X38419816Y-26648790D01*
X38426306Y-26661096D01*
X38430585Y-26669272D01*
X38432153Y-26672368D01*
X38432146Y-26672409D01*
X38430784Y-26676189D01*
X38427254Y-26685573D01*
X38421826Y-26699859D01*
X38414769Y-26718340D01*
X38406351Y-26740315D01*
X38396842Y-26765076D01*
X38386510Y-26791922D01*
X38372955Y-26827172D01*
X38336562Y-26922609D01*
X38302861Y-27012279D01*
X38271759Y-27096516D01*
X38243160Y-27175655D01*
X38216969Y-27250030D01*
X38193091Y-27319978D01*
X38171431Y-27385834D01*
X38151894Y-27447931D01*
X38134385Y-27506606D01*
X38118809Y-27562192D01*
X38105071Y-27615026D01*
X38093077Y-27665443D01*
X38082730Y-27713776D01*
X38073937Y-27760362D01*
X38066602Y-27805536D01*
X38060629Y-27849631D01*
X38055925Y-27892984D01*
X38052394Y-27935930D01*
X38049941Y-27978803D01*
X38048666Y-28015583D01*
X38048234Y-28061418D01*
X38049168Y-28107373D01*
X38051552Y-28153765D01*
X38055466Y-28200915D01*
X38060991Y-28249140D01*
X38068210Y-28298760D01*
X38077205Y-28350094D01*
X38088056Y-28403460D01*
X38100845Y-28459177D01*
X38115654Y-28517564D01*
X38132565Y-28578939D01*
X38151659Y-28643623D01*
X38173017Y-28711933D01*
X38196722Y-28784188D01*
X38222855Y-28860708D01*
X38251497Y-28941811D01*
X38282731Y-29027816D01*
X38316637Y-29119041D01*
X38353298Y-29215806D01*
X38392795Y-29318429D01*
X38432321Y-29420437D01*
X38264508Y-29740283D01*
X38247745Y-29772229D01*
X38224481Y-29816560D01*
X38201806Y-29859760D01*
X38179979Y-29901336D01*
X38159258Y-29940798D01*
X38139901Y-29977652D01*
X38122168Y-30011408D01*
X38106316Y-30041573D01*
X38092604Y-30067655D01*
X38081290Y-30089163D01*
X38072632Y-30105605D01*
X38066889Y-30116489D01*
X38065416Y-30119277D01*
X38056516Y-30136154D01*
X38045109Y-30157832D01*
X38031743Y-30183270D01*
X38016963Y-30211428D01*
X38001315Y-30241265D01*
X37985344Y-30271743D01*
X37969598Y-30301820D01*
X37961324Y-30317607D01*
X37947447Y-30343967D01*
X37934688Y-30368061D01*
X37923385Y-30389254D01*
X37913878Y-30406916D01*
X37906506Y-30420414D01*
X37901609Y-30429116D01*
X37899525Y-30432389D01*
X37898428Y-30431238D01*
X37894398Y-30424850D01*
X37887785Y-30413415D01*
X37878921Y-30397539D01*
X37868141Y-30377825D01*
X37855775Y-30354879D01*
X37842158Y-30329306D01*
X37827622Y-30301711D01*
X37815692Y-30278949D01*
X37797538Y-30244326D01*
X37777433Y-30205995D01*
X37756078Y-30165292D01*
X37734175Y-30123553D01*
X37712424Y-30082113D01*
X37691525Y-30042308D01*
X37672181Y-30005475D01*
X37658700Y-29979810D01*
X37638975Y-29942257D01*
X37617155Y-29900714D01*
X37593848Y-29856339D01*
X37569662Y-29810290D01*
X37545207Y-29763727D01*
X37521090Y-29717808D01*
X37497920Y-29673691D01*
X37476306Y-29632535D01*
X37464358Y-29609763D01*
X37446572Y-29575787D01*
X37429916Y-29543876D01*
X37414648Y-29514527D01*
X37401024Y-29488239D01*
X37389300Y-29465508D01*
X37379735Y-29446832D01*
X37372585Y-29432707D01*
X37368106Y-29423632D01*
X37366556Y-29420102D01*
X37367673Y-29416323D01*
X37370958Y-29406997D01*
X37376090Y-29393021D01*
X37382745Y-29375267D01*
X37390599Y-29354605D01*
X37399328Y-29331907D01*
X37410293Y-29303513D01*
X37447664Y-29206007D01*
X37482330Y-29114304D01*
X37514383Y-29028076D01*
X37543915Y-28946994D01*
X37571016Y-28870732D01*
X37595778Y-28798962D01*
X37618293Y-28731356D01*
X37638652Y-28667586D01*
X37656946Y-28607326D01*
X37673267Y-28550246D01*
X37687707Y-28496021D01*
X37700356Y-28444322D01*
X37711306Y-28394821D01*
X37720649Y-28347191D01*
X37728476Y-28301104D01*
X37734879Y-28256233D01*
X37739948Y-28212249D01*
X37743776Y-28168827D01*
X37746454Y-28125637D01*
X37748073Y-28082352D01*
X37748588Y-28051841D01*
X37748293Y-28006007D01*
X37746632Y-27960028D01*
X37743520Y-27913568D01*
X37738871Y-27866293D01*
X37732598Y-27817868D01*
X37724614Y-27767956D01*
X37714835Y-27716225D01*
X37703172Y-27662337D01*
X37689541Y-27605958D01*
X37673854Y-27546754D01*
X37656026Y-27484388D01*
X37635969Y-27418526D01*
X37613599Y-27348833D01*
X37588828Y-27274974D01*
X37561571Y-27196613D01*
X37531740Y-27113415D01*
X37499250Y-27025046D01*
X37464014Y-26931170D01*
X37425947Y-26831452D01*
X37425095Y-26829236D01*
X37413313Y-26798523D01*
X37402332Y-26769771D01*
X37392389Y-26743612D01*
X37383722Y-26720674D01*
X37376568Y-26701589D01*
X37371164Y-26686986D01*
X37367748Y-26677496D01*
X37366556Y-26673748D01*
X37366639Y-26673466D01*
X37368073Y-26670343D01*
X37371347Y-26663745D01*
X37376530Y-26653535D01*
X37383694Y-26639578D01*
X37392910Y-26621740D01*
X37404248Y-26599885D01*
X37417778Y-26573878D01*
X37433572Y-26543584D01*
X37451700Y-26508867D01*
X37472233Y-26469593D01*
X37495242Y-26425625D01*
X37520797Y-26376830D01*
X37548969Y-26323071D01*
X37579829Y-26264214D01*
X37613448Y-26200123D01*
X37649895Y-26130663D01*
X37689243Y-26055699D01*
X37731561Y-25975095D01*
X37776920Y-25888717D01*
X37825392Y-25796430D01*
X37837877Y-25772766D01*
X37851964Y-25746333D01*
X37864855Y-25722432D01*
X37876224Y-25701652D01*
X37885745Y-25684580D01*
X37893094Y-25671807D01*
X37897945Y-25663919D01*
X37899973Y-25661505D01*
X37900716Y-25662694D01*
G37*
X41443000Y-27940000D02*
X41443000Y-30140000D01*
X44663000Y-27940000D02*
X44663000Y-30140000D01*
X41443000Y-27940000D02*
X41443000Y-24340000D01*
X44663000Y-27940000D02*
X44663000Y-25740000D01*
G36*
X28530733Y-21294072D02*
G01*
X28577895Y-21313359D01*
X28619137Y-21345588D01*
X28636007Y-21364429D01*
X28653285Y-21388337D01*
X28663245Y-21407973D01*
X28667287Y-21425106D01*
X28671236Y-21459704D01*
X28672137Y-21498035D01*
X28669937Y-21533891D01*
X28664581Y-21561064D01*
X28658985Y-21575211D01*
X28636741Y-21610798D01*
X28606930Y-21639791D01*
X28572916Y-21659380D01*
X28538062Y-21666756D01*
X28531178Y-21666357D01*
X28524420Y-21662083D01*
X28521534Y-21650064D01*
X28520925Y-21626565D01*
X28521301Y-21605636D01*
X28524147Y-21591165D01*
X28531990Y-21583093D01*
X28547356Y-21576648D01*
X28552731Y-21574536D01*
X28581460Y-21554777D01*
X28598856Y-21524966D01*
X28604704Y-21485448D01*
X28603882Y-21466477D01*
X28598113Y-21443680D01*
X28584756Y-21423516D01*
X28571779Y-21409586D01*
X28544271Y-21389855D01*
X28510878Y-21379127D01*
X28467468Y-21375718D01*
X28450484Y-21376082D01*
X28403577Y-21383722D01*
X28367134Y-21401565D01*
X28340141Y-21430044D01*
X28337230Y-21434717D01*
X28325480Y-21467064D01*
X28324504Y-21501474D01*
X28333339Y-21534039D01*
X28351024Y-21560851D01*
X28376595Y-21578003D01*
X28386966Y-21582484D01*
X28395081Y-21590038D01*
X28398418Y-21603570D01*
X28399066Y-21627701D01*
X28399066Y-21668917D01*
X28370684Y-21664311D01*
X28367493Y-21663750D01*
X28329080Y-21649161D01*
X28297692Y-21622116D01*
X28274218Y-21584023D01*
X28259548Y-21536291D01*
X28254568Y-21480327D01*
X28257317Y-21445173D01*
X28272219Y-21395353D01*
X28299266Y-21353860D01*
X28337561Y-21321600D01*
X28386206Y-21299482D01*
X28444303Y-21288413D01*
X28476120Y-21287225D01*
X28530733Y-21294072D01*
G37*
G36*
X28673249Y-32255638D02*
G01*
X28671235Y-32318322D01*
X28663970Y-32374425D01*
X28650665Y-32419487D01*
X28630548Y-32455333D01*
X28602843Y-32483786D01*
X28566779Y-32506669D01*
X28546505Y-32516201D01*
X28524096Y-32523361D01*
X28498584Y-32526755D01*
X28463934Y-32527613D01*
X28438708Y-32527211D01*
X28410195Y-32524592D01*
X28386725Y-32518509D01*
X28362268Y-32507785D01*
X28356290Y-32504727D01*
X28323975Y-32484167D01*
X28299220Y-32459360D01*
X28281048Y-32428154D01*
X28268481Y-32388400D01*
X28260543Y-32337950D01*
X28258308Y-32304958D01*
X28330521Y-32304958D01*
X28333065Y-32344462D01*
X28343209Y-32379928D01*
X28362325Y-32406473D01*
X28391723Y-32426699D01*
X28432127Y-32440971D01*
X28475449Y-32444387D01*
X28516782Y-32436818D01*
X28552705Y-32418908D01*
X28579799Y-32391300D01*
X28584862Y-32383105D01*
X28592387Y-32365011D01*
X28596096Y-32342187D01*
X28597087Y-32309425D01*
X28597087Y-32253430D01*
X28330521Y-32253430D01*
X28330521Y-32304958D01*
X28258308Y-32304958D01*
X28256255Y-32274653D01*
X28252098Y-32169652D01*
X28673249Y-32169652D01*
X28673249Y-32255638D01*
G37*
G36*
X26662456Y-34326939D02*
G01*
X26661980Y-34353606D01*
X26659846Y-34393893D01*
X26656396Y-34429931D01*
X26652073Y-34456233D01*
X26635462Y-34502205D01*
X26606566Y-34543652D01*
X26567803Y-34574709D01*
X26520443Y-34594647D01*
X26465760Y-34602734D01*
X26405024Y-34598239D01*
X26382714Y-34593286D01*
X26336848Y-34573814D01*
X26300283Y-34542692D01*
X26271548Y-34498824D01*
X26264398Y-34483873D01*
X26257677Y-34466504D01*
X26253037Y-34447729D01*
X26249885Y-34424091D01*
X26247626Y-34392135D01*
X26246871Y-34375293D01*
X26319846Y-34375293D01*
X26323625Y-34421180D01*
X26336826Y-34460393D01*
X26360038Y-34488521D01*
X26393819Y-34506211D01*
X26438724Y-34514114D01*
X26452419Y-34514724D01*
X26496559Y-34511596D01*
X26531561Y-34499222D01*
X26560404Y-34476686D01*
X26566524Y-34470044D01*
X26575339Y-34457670D01*
X26580590Y-34442947D01*
X26583499Y-34421580D01*
X26585290Y-34389276D01*
X26587976Y-34325035D01*
X26319846Y-34325035D01*
X26319846Y-34375293D01*
X26246871Y-34375293D01*
X26245665Y-34348405D01*
X26241424Y-34241256D01*
X26662575Y-34241256D01*
X26662456Y-34326939D01*
G37*
G36*
X26658767Y-26019577D02*
G01*
X26364547Y-26027193D01*
X26443111Y-26073153D01*
X26474588Y-26091696D01*
X26497406Y-26105976D01*
X26511323Y-26116668D01*
X26518541Y-26125875D01*
X26521258Y-26135700D01*
X26521675Y-26148245D01*
X26521529Y-26157316D01*
X26519691Y-26168105D01*
X26513860Y-26177414D01*
X26501727Y-26187501D01*
X26480983Y-26200626D01*
X26449321Y-26219046D01*
X26425052Y-26233182D01*
X26398451Y-26249094D01*
X26378993Y-26261228D01*
X26369732Y-26267717D01*
X26372989Y-26269850D01*
X26389881Y-26271887D01*
X26419619Y-26273419D01*
X26460929Y-26274384D01*
X26512536Y-26274720D01*
X26662575Y-26274720D01*
X26662575Y-26358498D01*
X26242957Y-26358498D01*
X26245225Y-26310897D01*
X26247492Y-26263295D01*
X26340670Y-26209982D01*
X26352871Y-26202960D01*
X26384748Y-26184190D01*
X26410476Y-26168423D01*
X26427676Y-26157141D01*
X26433968Y-26151826D01*
X26432898Y-26150460D01*
X26421968Y-26142425D01*
X26401105Y-26128904D01*
X26372635Y-26111378D01*
X26338886Y-26091328D01*
X26243684Y-26035671D01*
X26243684Y-25939607D01*
X26663371Y-25939607D01*
X26658767Y-26019577D01*
G37*
G36*
X28568527Y-24383359D02*
G01*
X28597922Y-24391084D01*
X28621264Y-24404158D01*
X28640180Y-24425449D01*
X28658642Y-24458258D01*
X28664375Y-24471413D01*
X28669702Y-24491778D01*
X28671813Y-24517502D01*
X28671359Y-24553460D01*
X28669073Y-24586704D01*
X28660021Y-24633468D01*
X28643832Y-24667647D01*
X28619733Y-24690161D01*
X28586949Y-24701929D01*
X28544705Y-24703871D01*
X28520666Y-24701998D01*
X28501321Y-24697854D01*
X28486953Y-24689523D01*
X28471974Y-24674770D01*
X28464541Y-24665569D01*
X28445961Y-24633128D01*
X28429841Y-24591415D01*
X28424382Y-24574370D01*
X28410387Y-24534283D01*
X28398168Y-24506460D01*
X28386552Y-24488974D01*
X28374368Y-24479896D01*
X28360442Y-24477298D01*
X28347575Y-24478521D01*
X28335721Y-24486251D01*
X28325892Y-24504744D01*
X28319791Y-24529521D01*
X28320701Y-24557352D01*
X28328276Y-24582157D01*
X28341251Y-24599957D01*
X28358358Y-24606774D01*
X28363707Y-24610090D01*
X28367456Y-24624237D01*
X28368602Y-24651415D01*
X28368600Y-24657003D01*
X28368119Y-24679450D01*
X28365604Y-24690601D01*
X28359351Y-24693785D01*
X28347657Y-24692330D01*
X28315638Y-24680495D01*
X28287829Y-24655789D01*
X28268100Y-24620225D01*
X28257270Y-24575320D01*
X28256155Y-24522593D01*
X28259682Y-24493741D01*
X28272963Y-24449933D01*
X28294792Y-24418151D01*
X28324847Y-24398792D01*
X28362803Y-24392251D01*
X28402789Y-24397855D01*
X28435126Y-24414421D01*
X28457084Y-24440951D01*
X28459265Y-24445431D01*
X28468584Y-24467430D01*
X28479962Y-24497206D01*
X28491419Y-24529638D01*
X28502437Y-24560461D01*
X28515755Y-24590567D01*
X28528740Y-24609447D01*
X28542967Y-24619220D01*
X28560011Y-24622006D01*
X28572357Y-24620109D01*
X28591323Y-24606532D01*
X28603236Y-24581315D01*
X28607043Y-24546158D01*
X28606657Y-24535547D01*
X28600859Y-24502892D01*
X28587636Y-24482266D01*
X28566208Y-24472265D01*
X28565310Y-24472085D01*
X28553133Y-24468663D01*
X28546709Y-24462056D01*
X28544202Y-24448248D01*
X28543774Y-24423223D01*
X28543774Y-24378669D01*
X28568527Y-24383359D01*
G37*
G36*
X25485641Y-29367772D02*
G01*
X25543650Y-29375680D01*
X25590231Y-29391577D01*
X25624709Y-29415183D01*
X25646412Y-29446218D01*
X25652613Y-29465777D01*
X25656668Y-29503107D01*
X25653433Y-29541104D01*
X25643094Y-29572650D01*
X25639783Y-29578257D01*
X25618627Y-29600800D01*
X25584615Y-29622036D01*
X25582915Y-29622910D01*
X25561952Y-29633000D01*
X25543619Y-29639425D01*
X25523453Y-29643003D01*
X25496989Y-29644550D01*
X25459763Y-29644885D01*
X25422295Y-29644206D01*
X25376803Y-29640306D01*
X25341381Y-29632273D01*
X25313097Y-29619352D01*
X25289021Y-29600783D01*
X25283636Y-29595437D01*
X25258942Y-29559394D01*
X25248324Y-29518525D01*
X25248647Y-29515006D01*
X25317535Y-29515006D01*
X25320529Y-29523939D01*
X25332653Y-29540322D01*
X25353752Y-29551733D01*
X25385848Y-29559026D01*
X25430963Y-29563058D01*
X25467478Y-29563880D01*
X25516324Y-29560532D01*
X25553204Y-29551673D01*
X25576925Y-29537513D01*
X25582049Y-29531223D01*
X25588950Y-29509127D01*
X25584067Y-29486178D01*
X25568112Y-29467984D01*
X25560232Y-29464258D01*
X25535650Y-29458171D01*
X25502366Y-29453767D01*
X25464648Y-29451270D01*
X25426765Y-29450904D01*
X25392984Y-29452894D01*
X25367575Y-29457462D01*
X25362252Y-29459171D01*
X25334340Y-29473595D01*
X25319009Y-29492696D01*
X25317535Y-29515006D01*
X25248647Y-29515006D01*
X25252346Y-29474765D01*
X25267744Y-29438733D01*
X25296496Y-29407430D01*
X25337464Y-29384966D01*
X25390487Y-29371426D01*
X25426765Y-29368894D01*
X25455408Y-29366894D01*
X25485641Y-29367772D01*
G37*
G36*
X27531364Y-29187231D02*
G01*
X27543905Y-29184700D01*
X27556676Y-29184105D01*
X27591750Y-29184105D01*
X27591750Y-29366894D01*
X27667912Y-29366894D01*
X27667912Y-29443055D01*
X27591750Y-29443055D01*
X27591750Y-29469712D01*
X27591539Y-29481574D01*
X27588508Y-29491943D01*
X27578536Y-29495800D01*
X27557477Y-29496369D01*
X27542226Y-29496204D01*
X27528895Y-29493847D01*
X27523936Y-29486091D01*
X27523204Y-29469712D01*
X27523204Y-29443055D01*
X27264254Y-29443055D01*
X27264254Y-29361715D01*
X27265028Y-29361181D01*
X27371000Y-29361181D01*
X27374270Y-29362843D01*
X27389758Y-29364932D01*
X27415088Y-29366363D01*
X27447042Y-29366894D01*
X27523204Y-29366894D01*
X27523204Y-29312946D01*
X27523193Y-29309849D01*
X27522181Y-29284505D01*
X27519845Y-29267204D01*
X27516643Y-29261536D01*
X27508633Y-29265687D01*
X27490646Y-29276697D01*
X27466964Y-29292099D01*
X27440669Y-29309784D01*
X27414843Y-29327644D01*
X27392568Y-29343569D01*
X27376926Y-29355451D01*
X27371000Y-29361181D01*
X27265028Y-29361181D01*
X27392928Y-29272910D01*
X27399997Y-29268034D01*
X27442294Y-29239062D01*
X27474519Y-29217613D01*
X27498732Y-29202570D01*
X27516643Y-29193002D01*
X27516993Y-29192815D01*
X27531364Y-29187231D01*
G37*
G36*
X28571942Y-21732391D02*
G01*
X28580172Y-21734094D01*
X28612033Y-21746061D01*
X28635751Y-21766940D01*
X28655220Y-21799890D01*
X28669382Y-21844374D01*
X28674272Y-21895723D01*
X28669165Y-21946728D01*
X28654095Y-21991787D01*
X28636712Y-22020277D01*
X28612142Y-22042529D01*
X28580794Y-22053151D01*
X28539714Y-22053741D01*
X28523606Y-22052145D01*
X28502405Y-22047656D01*
X28487100Y-22038843D01*
X28471636Y-22022969D01*
X28458540Y-22003857D01*
X28443192Y-21973505D01*
X28430327Y-21939944D01*
X28428018Y-21932781D01*
X28413117Y-21889726D01*
X28400161Y-21859454D01*
X28388030Y-21840117D01*
X28375604Y-21829869D01*
X28361763Y-21826864D01*
X28361080Y-21826866D01*
X28340807Y-21830814D01*
X28327893Y-21844200D01*
X28319544Y-21869868D01*
X28319078Y-21872344D01*
X28319448Y-21897253D01*
X28326670Y-21922681D01*
X28338643Y-21943381D01*
X28353267Y-21954105D01*
X28356661Y-21955180D01*
X28364203Y-21961311D01*
X28367729Y-21974624D01*
X28368602Y-21999116D01*
X28368447Y-22013323D01*
X28366761Y-22030651D01*
X28362073Y-22038361D01*
X28352991Y-22040117D01*
X28327083Y-22035438D01*
X28299692Y-22017474D01*
X28278191Y-21987274D01*
X28263455Y-21946148D01*
X28256361Y-21895409D01*
X28255420Y-21870135D01*
X28256618Y-21845188D01*
X28261485Y-21825228D01*
X28270951Y-21804461D01*
X28275727Y-21795772D01*
X28299740Y-21764247D01*
X28328132Y-21746261D01*
X28362721Y-21740547D01*
X28387107Y-21742185D01*
X28415028Y-21750515D01*
X28438219Y-21767390D01*
X28458183Y-21794469D01*
X28476423Y-21833409D01*
X28494442Y-21885870D01*
X28498972Y-21899908D01*
X28513944Y-21936255D01*
X28530046Y-21958983D01*
X28548406Y-21969325D01*
X28570155Y-21968513D01*
X28570298Y-21968477D01*
X28591093Y-21955933D01*
X28603289Y-21930987D01*
X28606949Y-21893512D01*
X28606373Y-21882062D01*
X28599182Y-21850173D01*
X28584904Y-21827966D01*
X28564906Y-21817898D01*
X28557673Y-21816204D01*
X28550841Y-21810122D01*
X28547244Y-21796395D01*
X28545285Y-21771227D01*
X28542989Y-21727016D01*
X28571942Y-21732391D01*
G37*
G36*
X28514671Y-27464965D02*
G01*
X28549860Y-27469422D01*
X28562887Y-27472618D01*
X28605134Y-27489200D01*
X28638843Y-27512412D01*
X28660770Y-27540184D01*
X28662733Y-27544302D01*
X28670462Y-27573205D01*
X28671334Y-27611685D01*
X28668753Y-27636101D01*
X28656953Y-27672489D01*
X28634339Y-27700460D01*
X28598938Y-27723046D01*
X28582876Y-27730253D01*
X28565070Y-27735729D01*
X28543808Y-27738943D01*
X28515168Y-27740457D01*
X28475228Y-27740837D01*
X28429472Y-27739532D01*
X28376345Y-27732919D01*
X28335139Y-27720063D01*
X28304414Y-27700237D01*
X28282728Y-27672716D01*
X28268639Y-27636774D01*
X28264950Y-27617295D01*
X28265346Y-27609635D01*
X28332183Y-27609635D01*
X28340422Y-27625338D01*
X28356476Y-27641097D01*
X28382804Y-27652329D01*
X28420573Y-27658742D01*
X28471420Y-27660782D01*
X28506772Y-27659823D01*
X28550787Y-27654554D01*
X28580996Y-27644771D01*
X28596998Y-27630569D01*
X28603879Y-27605521D01*
X28597650Y-27581639D01*
X28579154Y-27562706D01*
X28549911Y-27551278D01*
X28536106Y-27549256D01*
X28504396Y-27547286D01*
X28467481Y-27547188D01*
X28430459Y-27548808D01*
X28398424Y-27551988D01*
X28376475Y-27556574D01*
X28374841Y-27557167D01*
X28353773Y-27569483D01*
X28338847Y-27585731D01*
X28333444Y-27596525D01*
X28332183Y-27609635D01*
X28265346Y-27609635D01*
X28267132Y-27575040D01*
X28282556Y-27536580D01*
X28309846Y-27504611D01*
X28347629Y-27481829D01*
X28352952Y-27479848D01*
X28385832Y-27471877D01*
X28427310Y-27466520D01*
X28467481Y-27464353D01*
X28472038Y-27464107D01*
X28514671Y-27464965D01*
G37*
G36*
X25322125Y-21800207D02*
G01*
X25322151Y-21810773D01*
X25322661Y-21846971D01*
X25323726Y-21876262D01*
X25325213Y-21895872D01*
X25326993Y-21903026D01*
X25329900Y-21901946D01*
X25344554Y-21895119D01*
X25369677Y-21882841D01*
X25403301Y-21866088D01*
X25443462Y-21845834D01*
X25488195Y-21823055D01*
X25513691Y-21810057D01*
X25556268Y-21788554D01*
X25593265Y-21770128D01*
X25622692Y-21755756D01*
X25642561Y-21746416D01*
X25650883Y-21743085D01*
X25653223Y-21745817D01*
X25656110Y-21759823D01*
X25657237Y-21781734D01*
X25657237Y-21820383D01*
X25486417Y-21903594D01*
X25474593Y-21909343D01*
X25419458Y-21935796D01*
X25375870Y-21955941D01*
X25342211Y-21970446D01*
X25316858Y-21979979D01*
X25298190Y-21985209D01*
X25284587Y-21986804D01*
X25253579Y-21986804D01*
X25253579Y-21697388D01*
X25322125Y-21697388D01*
X25322125Y-21800207D01*
G37*
G36*
X28492276Y-31236363D02*
G01*
X28540682Y-31246862D01*
X28585093Y-31267360D01*
X28623034Y-31297882D01*
X28652025Y-31338453D01*
X28658549Y-31351627D01*
X28667710Y-31375964D01*
X28672113Y-31401741D01*
X28673249Y-31435804D01*
X28673249Y-31436102D01*
X28671825Y-31467822D01*
X28668138Y-31496804D01*
X28662979Y-31516808D01*
X28660486Y-31522486D01*
X28633439Y-31564175D01*
X28596292Y-31595221D01*
X28550661Y-31614599D01*
X28498160Y-31621286D01*
X28452380Y-31621286D01*
X28452380Y-31438498D01*
X28520925Y-31438498D01*
X28520925Y-31488003D01*
X28521206Y-31508990D01*
X28522948Y-31527002D01*
X28527071Y-31535424D01*
X28534463Y-31537508D01*
X28546026Y-31536120D01*
X28569269Y-31523782D01*
X28587421Y-31501367D01*
X28599396Y-31472168D01*
X28604110Y-31439478D01*
X28600478Y-31406588D01*
X28587415Y-31376790D01*
X28575031Y-31361006D01*
X28547342Y-31339909D01*
X28511082Y-31328013D01*
X28463804Y-31324279D01*
X28436463Y-31325370D01*
X28395508Y-31333434D01*
X28364234Y-31350228D01*
X28340193Y-31376790D01*
X28338337Y-31379688D01*
X28325871Y-31411195D01*
X28323350Y-31445354D01*
X28330008Y-31478105D01*
X28345079Y-31505387D01*
X28367798Y-31523141D01*
X28377999Y-31528114D01*
X28387014Y-31536300D01*
X28390726Y-31549830D01*
X28391450Y-31573640D01*
X28391323Y-31586369D01*
X28389687Y-31604002D01*
X28385007Y-31611870D01*
X28375840Y-31613670D01*
X28370274Y-31613401D01*
X28340332Y-31603690D01*
X28311154Y-31581810D01*
X28285348Y-31550181D01*
X28265521Y-31511227D01*
X28259652Y-31489629D01*
X28255592Y-31451542D01*
X28256439Y-31410328D01*
X28261966Y-31371907D01*
X28271949Y-31342200D01*
X28277061Y-31333006D01*
X28308271Y-31293874D01*
X28347875Y-31264619D01*
X28393395Y-31245266D01*
X28442355Y-31235839D01*
X28492276Y-31236363D01*
G37*
G36*
X28673249Y-31788843D02*
G01*
X28530446Y-31789242D01*
X28519799Y-31789273D01*
X28472841Y-31789501D01*
X28439039Y-31789974D01*
X28416648Y-31790879D01*
X28403926Y-31792404D01*
X28399130Y-31794736D01*
X28400517Y-31798063D01*
X28406343Y-31802570D01*
X28406575Y-31802731D01*
X28419013Y-31811291D01*
X28441614Y-31826816D01*
X28472064Y-31847715D01*
X28508045Y-31872399D01*
X28547243Y-31899277D01*
X28669441Y-31983055D01*
X28671743Y-32023041D01*
X28674045Y-32063026D01*
X28254359Y-32063026D01*
X28254359Y-31986864D01*
X28539898Y-31986864D01*
X28475904Y-31943070D01*
X28453874Y-31927964D01*
X28414808Y-31901086D01*
X28373214Y-31872386D01*
X28335038Y-31845964D01*
X28258167Y-31792651D01*
X28253563Y-31712681D01*
X28673249Y-31712681D01*
X28673249Y-31788843D01*
G37*
G36*
X28669441Y-26019577D02*
G01*
X28522332Y-26023385D01*
X28375222Y-26027193D01*
X28453786Y-26073153D01*
X28485263Y-26091696D01*
X28508080Y-26105976D01*
X28521998Y-26116668D01*
X28529215Y-26125875D01*
X28531933Y-26135700D01*
X28532350Y-26148245D01*
X28532204Y-26157316D01*
X28530366Y-26168105D01*
X28524535Y-26177414D01*
X28512402Y-26187501D01*
X28491658Y-26200626D01*
X28459996Y-26219046D01*
X28435726Y-26233182D01*
X28409125Y-26249094D01*
X28389667Y-26261228D01*
X28380407Y-26267717D01*
X28383663Y-26269850D01*
X28400556Y-26271887D01*
X28430294Y-26273419D01*
X28471603Y-26274384D01*
X28523210Y-26274720D01*
X28673249Y-26274720D01*
X28673249Y-26358498D01*
X28253632Y-26358498D01*
X28255899Y-26310897D01*
X28258167Y-26263295D01*
X28351344Y-26209982D01*
X28363546Y-26202960D01*
X28395423Y-26184190D01*
X28421151Y-26168423D01*
X28438350Y-26157141D01*
X28444643Y-26151826D01*
X28443573Y-26150460D01*
X28432642Y-26142425D01*
X28411779Y-26128904D01*
X28383310Y-26111378D01*
X28349561Y-26091328D01*
X28254359Y-26035671D01*
X28254359Y-25939607D01*
X28674045Y-25939607D01*
X28669441Y-26019577D01*
G37*
G36*
X28527191Y-23929566D02*
G01*
X28577897Y-23949887D01*
X28621414Y-23982999D01*
X28638419Y-24001932D01*
X28655393Y-24025342D01*
X28664958Y-24044296D01*
X28665985Y-24048323D01*
X28669058Y-24071063D01*
X28670739Y-24102032D01*
X28670684Y-24135740D01*
X28670478Y-24141988D01*
X28668608Y-24174368D01*
X28664981Y-24197099D01*
X28658469Y-24215004D01*
X28647943Y-24232905D01*
X28637028Y-24247825D01*
X28598275Y-24284217D01*
X28550679Y-24309211D01*
X28495904Y-24322108D01*
X28435614Y-24322208D01*
X28382299Y-24310737D01*
X28334782Y-24288045D01*
X28297262Y-24255550D01*
X28288707Y-24244861D01*
X28268784Y-24209940D01*
X28257771Y-24169122D01*
X28254742Y-24123145D01*
X28322904Y-24123145D01*
X28327411Y-24155964D01*
X28344432Y-24188753D01*
X28373208Y-24213130D01*
X28412769Y-24228324D01*
X28462145Y-24233568D01*
X28487053Y-24232788D01*
X28527300Y-24226164D01*
X28558541Y-24211759D01*
X28584115Y-24188334D01*
X28596253Y-24171181D01*
X28602964Y-24151115D01*
X28604704Y-24123145D01*
X28603324Y-24097499D01*
X28597211Y-24076962D01*
X28584115Y-24057957D01*
X28571651Y-24044878D01*
X28543622Y-24026180D01*
X28508232Y-24015875D01*
X28462145Y-24012723D01*
X28420751Y-24016305D01*
X28379398Y-24029809D01*
X28348659Y-24052630D01*
X28329505Y-24083998D01*
X28322904Y-24123145D01*
X28254742Y-24123145D01*
X28254433Y-24118454D01*
X28257987Y-24077547D01*
X28273916Y-24027671D01*
X28301903Y-23986315D01*
X28341142Y-23954570D01*
X28390831Y-23933524D01*
X28410564Y-23928657D01*
X28462145Y-23923286D01*
X28470884Y-23922376D01*
X28527191Y-23929566D01*
G37*
G36*
X28669441Y-24869532D02*
G01*
X28258167Y-24869532D01*
X28253563Y-24789562D01*
X28674045Y-24789562D01*
X28669441Y-24869532D01*
G37*
G36*
X28542767Y-27015174D02*
G01*
X28588831Y-27034115D01*
X28625411Y-27064177D01*
X28653180Y-27105682D01*
X28658618Y-27117108D01*
X28667646Y-27141992D01*
X28672011Y-27168545D01*
X28673082Y-27203486D01*
X28672852Y-27214967D01*
X28664811Y-27270826D01*
X28645054Y-27317178D01*
X28613249Y-27354597D01*
X28569063Y-27383657D01*
X28544080Y-27391760D01*
X28507433Y-27397168D01*
X28465623Y-27399097D01*
X28423648Y-27397542D01*
X28386503Y-27392493D01*
X28359184Y-27383946D01*
X28330570Y-27365799D01*
X28296586Y-27334368D01*
X28270840Y-27299097D01*
X28269930Y-27297348D01*
X28262812Y-27273360D01*
X28258645Y-27239815D01*
X28257492Y-27203895D01*
X28322961Y-27203895D01*
X28327836Y-27240355D01*
X28344822Y-27272649D01*
X28373865Y-27295770D01*
X28414837Y-27309620D01*
X28467612Y-27314105D01*
X28504281Y-27312154D01*
X28541421Y-27303693D01*
X28569056Y-27287524D01*
X28589779Y-27262551D01*
X28600192Y-27236878D01*
X28604647Y-27203895D01*
X28599901Y-27166282D01*
X28583695Y-27134251D01*
X28555760Y-27111590D01*
X28515871Y-27098123D01*
X28463804Y-27093673D01*
X28415742Y-27097387D01*
X28374812Y-27110070D01*
X28345856Y-27131931D01*
X28328648Y-27163148D01*
X28322961Y-27203895D01*
X28257492Y-27203895D01*
X28257418Y-27201589D01*
X28259122Y-27163559D01*
X28263743Y-27130603D01*
X28271273Y-27107597D01*
X28271503Y-27107176D01*
X28301895Y-27065000D01*
X28340636Y-27034668D01*
X28388743Y-27015601D01*
X28447231Y-27007219D01*
X28463804Y-27007140D01*
X28486546Y-27007032D01*
X28542767Y-27015174D01*
G37*
G36*
X26516517Y-23929566D02*
G01*
X26567223Y-23949887D01*
X26610740Y-23982999D01*
X26627745Y-24001932D01*
X26644719Y-24025342D01*
X26654283Y-24044296D01*
X26655310Y-24048323D01*
X26658384Y-24071063D01*
X26660065Y-24102032D01*
X26660010Y-24135740D01*
X26659803Y-24141988D01*
X26657933Y-24174368D01*
X26654307Y-24197099D01*
X26647795Y-24215004D01*
X26637269Y-24232905D01*
X26626353Y-24247825D01*
X26587600Y-24284217D01*
X26540004Y-24309211D01*
X26485230Y-24322108D01*
X26424939Y-24322208D01*
X26371625Y-24310737D01*
X26324108Y-24288045D01*
X26286588Y-24255550D01*
X26278032Y-24244861D01*
X26258110Y-24209940D01*
X26247097Y-24169122D01*
X26244067Y-24123145D01*
X26312230Y-24123145D01*
X26316736Y-24155964D01*
X26333758Y-24188753D01*
X26362534Y-24213130D01*
X26402094Y-24228324D01*
X26451470Y-24233568D01*
X26476378Y-24232788D01*
X26516626Y-24226164D01*
X26547867Y-24211759D01*
X26573440Y-24188334D01*
X26589247Y-24160323D01*
X26595514Y-24124726D01*
X26590245Y-24088909D01*
X26573440Y-24057957D01*
X26560977Y-24044878D01*
X26532947Y-24026180D01*
X26497558Y-24015875D01*
X26451470Y-24012723D01*
X26410076Y-24016305D01*
X26368723Y-24029809D01*
X26337984Y-24052630D01*
X26318830Y-24083998D01*
X26312230Y-24123145D01*
X26244067Y-24123145D01*
X26243758Y-24118454D01*
X26247312Y-24077547D01*
X26263242Y-24027671D01*
X26291228Y-23986315D01*
X26330468Y-23954570D01*
X26380156Y-23933524D01*
X26399889Y-23928657D01*
X26451470Y-23923286D01*
X26460210Y-23922376D01*
X26516517Y-23929566D01*
G37*
G36*
X26662575Y-31788843D02*
G01*
X26519771Y-31789242D01*
X26509125Y-31789273D01*
X26462167Y-31789501D01*
X26428364Y-31789974D01*
X26405973Y-31790879D01*
X26393251Y-31792404D01*
X26388455Y-31794736D01*
X26389842Y-31798063D01*
X26395668Y-31802570D01*
X26395900Y-31802731D01*
X26408338Y-31811291D01*
X26430940Y-31826816D01*
X26461389Y-31847715D01*
X26497371Y-31872399D01*
X26536568Y-31899277D01*
X26658767Y-31983055D01*
X26661069Y-32023041D01*
X26663371Y-32063026D01*
X26243684Y-32063026D01*
X26243684Y-31986864D01*
X26529224Y-31986864D01*
X26465229Y-31943070D01*
X26443199Y-31927964D01*
X26404133Y-31901086D01*
X26362539Y-31872386D01*
X26324363Y-31845964D01*
X26247492Y-31792651D01*
X26242888Y-31712681D01*
X26662575Y-31712681D01*
X26662575Y-31788843D01*
G37*
G36*
X28673130Y-34776294D02*
G01*
X28672655Y-34802962D01*
X28670520Y-34843248D01*
X28667071Y-34879287D01*
X28662748Y-34905588D01*
X28646137Y-34951560D01*
X28617241Y-34993007D01*
X28578477Y-35024065D01*
X28531118Y-35044003D01*
X28476434Y-35052090D01*
X28415699Y-35047594D01*
X28393389Y-35042641D01*
X28347523Y-35023169D01*
X28310958Y-34992047D01*
X28282223Y-34948179D01*
X28275073Y-34933228D01*
X28268351Y-34915860D01*
X28263712Y-34897084D01*
X28260560Y-34873446D01*
X28258301Y-34841490D01*
X28257546Y-34824648D01*
X28330521Y-34824648D01*
X28334300Y-34870536D01*
X28347500Y-34909749D01*
X28370713Y-34937876D01*
X28404494Y-34955567D01*
X28449398Y-34963470D01*
X28463093Y-34964080D01*
X28507234Y-34960951D01*
X28542236Y-34948577D01*
X28571078Y-34926042D01*
X28577199Y-34919399D01*
X28586014Y-34907025D01*
X28591265Y-34892302D01*
X28594174Y-34870936D01*
X28595965Y-34838631D01*
X28598650Y-34774390D01*
X28330521Y-34774390D01*
X28330521Y-34824648D01*
X28257546Y-34824648D01*
X28256340Y-34797760D01*
X28252098Y-34690612D01*
X28673249Y-34690612D01*
X28673130Y-34776294D01*
G37*
G36*
X26532092Y-27015174D02*
G01*
X26578156Y-27034115D01*
X26614736Y-27064177D01*
X26642505Y-27105682D01*
X26647944Y-27117108D01*
X26656971Y-27141992D01*
X26661336Y-27168545D01*
X26662407Y-27203486D01*
X26662177Y-27214967D01*
X26654136Y-27270826D01*
X26634379Y-27317178D01*
X26602574Y-27354597D01*
X26558389Y-27383657D01*
X26533406Y-27391760D01*
X26496758Y-27397168D01*
X26454949Y-27399097D01*
X26412973Y-27397542D01*
X26375828Y-27392493D01*
X26348510Y-27383946D01*
X26319895Y-27365799D01*
X26285911Y-27334368D01*
X26260166Y-27299097D01*
X26259256Y-27297348D01*
X26252137Y-27273360D01*
X26247970Y-27239815D01*
X26246818Y-27203895D01*
X26312287Y-27203895D01*
X26317162Y-27240355D01*
X26334148Y-27272649D01*
X26363190Y-27295770D01*
X26404162Y-27309620D01*
X26456937Y-27314105D01*
X26493606Y-27312154D01*
X26530746Y-27303693D01*
X26558381Y-27287524D01*
X26579105Y-27262551D01*
X26589517Y-27236878D01*
X26593972Y-27203895D01*
X26589226Y-27166282D01*
X26573020Y-27134251D01*
X26545085Y-27111590D01*
X26505197Y-27098123D01*
X26453129Y-27093673D01*
X26405067Y-27097387D01*
X26364138Y-27110070D01*
X26335181Y-27131931D01*
X26317973Y-27163148D01*
X26312287Y-27203895D01*
X26246818Y-27203895D01*
X26246744Y-27201589D01*
X26248447Y-27163559D01*
X26253069Y-27130603D01*
X26260598Y-27107597D01*
X26260829Y-27107176D01*
X26291220Y-27065000D01*
X26329961Y-27034668D01*
X26378068Y-27015601D01*
X26436556Y-27007219D01*
X26453129Y-27007140D01*
X26475871Y-27007032D01*
X26532092Y-27015174D01*
G37*
G36*
X26384959Y-22131718D02*
G01*
X26397636Y-22133779D01*
X26401183Y-22139942D01*
X26399056Y-22152456D01*
X26397181Y-22159033D01*
X26388390Y-22181554D01*
X26376599Y-22205769D01*
X26358999Y-22238138D01*
X26505709Y-22238138D01*
X26509509Y-22238140D01*
X26554981Y-22238431D01*
X26594948Y-22239165D01*
X26626977Y-22240262D01*
X26648637Y-22241639D01*
X26657497Y-22243215D01*
X26659135Y-22246830D01*
X26661603Y-22262542D01*
X26662575Y-22285104D01*
X26662575Y-22321916D01*
X26258916Y-22321916D01*
X26258916Y-22286773D01*
X26260946Y-22262564D01*
X26268923Y-22242904D01*
X26285735Y-22220653D01*
X26294608Y-22209328D01*
X26310906Y-22183541D01*
X26321213Y-22160416D01*
X26325649Y-22146774D01*
X26332425Y-22136204D01*
X26344522Y-22132162D01*
X26366894Y-22131511D01*
X26384959Y-22131718D01*
G37*
G36*
X28501653Y-29809511D02*
G01*
X28559662Y-29817419D01*
X28606243Y-29833316D01*
X28640721Y-29856922D01*
X28662424Y-29887957D01*
X28668625Y-29907517D01*
X28672680Y-29944846D01*
X28669445Y-29982843D01*
X28659106Y-30014389D01*
X28655799Y-30019991D01*
X28634642Y-30042537D01*
X28600628Y-30063775D01*
X28594671Y-30066820D01*
X28575089Y-30075962D01*
X28557277Y-30081759D01*
X28536987Y-30084965D01*
X28509967Y-30086335D01*
X28471968Y-30086624D01*
X28441591Y-30086287D01*
X28403960Y-30084204D01*
X28375257Y-30079837D01*
X28351682Y-30072748D01*
X28330679Y-30062771D01*
X28296741Y-30035566D01*
X28274189Y-30000524D01*
X28264303Y-29960038D01*
X28264610Y-29956745D01*
X28333547Y-29956745D01*
X28336541Y-29965678D01*
X28348665Y-29982062D01*
X28369764Y-29993472D01*
X28401860Y-30000765D01*
X28446975Y-30004797D01*
X28483490Y-30005619D01*
X28532336Y-30002271D01*
X28569216Y-29993412D01*
X28592936Y-29979252D01*
X28598061Y-29972962D01*
X28604962Y-29950866D01*
X28600079Y-29927917D01*
X28584124Y-29909723D01*
X28576244Y-29905997D01*
X28551662Y-29899910D01*
X28518378Y-29895506D01*
X28480660Y-29893009D01*
X28442777Y-29892644D01*
X28408996Y-29894633D01*
X28383587Y-29899201D01*
X28378264Y-29900910D01*
X28350352Y-29915334D01*
X28335021Y-29934435D01*
X28333547Y-29956745D01*
X28264610Y-29956745D01*
X28268358Y-29916504D01*
X28283756Y-29880472D01*
X28312508Y-29849169D01*
X28353476Y-29826705D01*
X28406499Y-29813165D01*
X28442777Y-29810633D01*
X28471420Y-29808633D01*
X28501653Y-29809511D01*
G37*
G36*
X24986964Y-20599968D02*
G01*
X25992301Y-20600054D01*
X26961510Y-20600136D01*
X26969605Y-20600136D01*
X26997638Y-20600139D01*
X27144973Y-20600152D01*
X27316319Y-20600168D01*
X27483019Y-20600186D01*
X27644451Y-20600203D01*
X27799992Y-20600222D01*
X27949019Y-20600241D01*
X28002976Y-20600248D01*
X28090910Y-20600260D01*
X28225041Y-20600280D01*
X28350790Y-20600300D01*
X28467535Y-20600320D01*
X28574652Y-20600339D01*
X28671519Y-20600359D01*
X28757512Y-20600378D01*
X28832010Y-20600397D01*
X28894390Y-20600416D01*
X28944028Y-20600434D01*
X28980301Y-20600451D01*
X29002588Y-20600467D01*
X29010266Y-20600483D01*
X29010320Y-20603613D01*
X29010401Y-20620792D01*
X29010477Y-20652673D01*
X29010549Y-20698931D01*
X29010616Y-20759245D01*
X29010679Y-20833290D01*
X29010738Y-20920743D01*
X29010792Y-21021281D01*
X29010842Y-21134580D01*
X29010887Y-21260317D01*
X29010928Y-21398169D01*
X29010964Y-21547813D01*
X29010996Y-21708924D01*
X29011023Y-21881181D01*
X29011046Y-22064258D01*
X29011065Y-22257834D01*
X29011079Y-22461585D01*
X29011088Y-22675186D01*
X29011093Y-22898316D01*
X29011094Y-23130651D01*
X29011089Y-23371867D01*
X29011081Y-23621641D01*
X29011068Y-23879650D01*
X29011050Y-24145570D01*
X29011028Y-24419079D01*
X29011001Y-24699852D01*
X29010970Y-24987566D01*
X29010934Y-25281898D01*
X29010893Y-25582525D01*
X29010848Y-25889123D01*
X29010799Y-26201370D01*
X29010745Y-26518941D01*
X29010686Y-26841513D01*
X29010623Y-27168763D01*
X29010555Y-27500368D01*
X29010482Y-27836005D01*
X29010405Y-28175349D01*
X29008640Y-35750041D01*
X26959741Y-35751556D01*
X24910843Y-35753070D01*
X24910863Y-35673100D01*
X24987012Y-35673100D01*
X25916188Y-35673100D01*
X25992350Y-35673100D01*
X26921525Y-35673100D01*
X26997687Y-35673100D01*
X27926862Y-35673100D01*
X28003024Y-35673100D01*
X28932200Y-35673100D01*
X28932200Y-33213070D01*
X28003024Y-33213070D01*
X28003024Y-35673100D01*
X27926862Y-35673100D01*
X27926862Y-33213070D01*
X26997687Y-33213070D01*
X26997687Y-35673100D01*
X26921525Y-35673100D01*
X26921525Y-33213070D01*
X25992350Y-33213070D01*
X25992350Y-35673100D01*
X25916188Y-35673100D01*
X25916188Y-33213070D01*
X24987012Y-33213070D01*
X24987012Y-35673100D01*
X24910863Y-35673100D01*
X24911502Y-33136909D01*
X24987012Y-33136909D01*
X25916188Y-33136909D01*
X25992350Y-33136909D01*
X26921525Y-33136909D01*
X26997687Y-33136909D01*
X27926862Y-33136909D01*
X28003024Y-33136909D01*
X28932200Y-33136909D01*
X28932200Y-30631181D01*
X28003024Y-30631181D01*
X28003024Y-33136909D01*
X27926862Y-33136909D01*
X27926862Y-30631181D01*
X26997687Y-30631181D01*
X26997687Y-33136909D01*
X26921525Y-33136909D01*
X26921525Y-30631181D01*
X25992350Y-30631181D01*
X25992350Y-33136909D01*
X25916188Y-33136909D01*
X25916188Y-30631181D01*
X24987012Y-30631181D01*
X24987012Y-33136909D01*
X24911502Y-33136909D01*
X24912152Y-30555020D01*
X24987012Y-30555020D01*
X25916188Y-30555020D01*
X25992350Y-30555020D01*
X26921525Y-30555020D01*
X26997687Y-30555020D01*
X27926862Y-30555020D01*
X28003024Y-30555020D01*
X28932200Y-30555020D01*
X28932200Y-28125454D01*
X28003024Y-28125454D01*
X28003024Y-30555020D01*
X27926862Y-30555020D01*
X27926862Y-28125454D01*
X26997687Y-28125454D01*
X26997687Y-30555020D01*
X26921525Y-30555020D01*
X26921525Y-28125454D01*
X25992350Y-28125454D01*
X25992350Y-30555020D01*
X25916188Y-30555020D01*
X25916188Y-28125454D01*
X24987012Y-28125454D01*
X24987012Y-30555020D01*
X24912152Y-30555020D01*
X24912783Y-28049292D01*
X24987012Y-28049292D01*
X25916188Y-28049292D01*
X25992350Y-28049292D01*
X26921525Y-28049292D01*
X26997687Y-28049292D01*
X27926862Y-28049292D01*
X28003024Y-28049292D01*
X28932200Y-28049292D01*
X28932200Y-25619727D01*
X28003024Y-25619727D01*
X28003024Y-28049292D01*
X27926862Y-28049292D01*
X27926862Y-25619727D01*
X26997687Y-25619727D01*
X26997687Y-28049292D01*
X26921525Y-28049292D01*
X26921525Y-25619727D01*
X25992350Y-25619727D01*
X25992350Y-28049292D01*
X25916188Y-28049292D01*
X25916188Y-25619727D01*
X24987012Y-25619727D01*
X24987012Y-28049292D01*
X24912783Y-28049292D01*
X24913414Y-25543565D01*
X24987012Y-25543565D01*
X25916188Y-25543565D01*
X25992350Y-25543565D01*
X26921525Y-25543565D01*
X26997687Y-25543565D01*
X27926862Y-25543565D01*
X28003024Y-25543565D01*
X28932200Y-25543565D01*
X28932200Y-23083535D01*
X28003024Y-23083535D01*
X28003024Y-25543565D01*
X27926862Y-25543565D01*
X27926862Y-23083535D01*
X26997687Y-23083535D01*
X26997687Y-25543565D01*
X26921525Y-25543565D01*
X26921525Y-23083535D01*
X25992350Y-23083535D01*
X25992350Y-25543565D01*
X25916188Y-25543565D01*
X25916188Y-23083535D01*
X24987012Y-23083535D01*
X24987012Y-25543565D01*
X24913414Y-25543565D01*
X24914640Y-20676819D01*
X24986964Y-20676819D01*
X24990820Y-23003565D01*
X25916188Y-23007491D01*
X25916188Y-20676819D01*
X25992301Y-20676819D01*
X25994229Y-21840192D01*
X25996158Y-23003565D01*
X26458841Y-23005528D01*
X26921525Y-23007491D01*
X26921525Y-20676819D01*
X26997638Y-20676819D01*
X26999567Y-21840192D01*
X27001495Y-23003565D01*
X27464179Y-23005528D01*
X27926862Y-23007491D01*
X27926862Y-20676819D01*
X28002976Y-20676819D01*
X28006832Y-23003565D01*
X28932200Y-23007491D01*
X28932200Y-20676819D01*
X28002976Y-20676819D01*
X27926862Y-20676819D01*
X26997638Y-20676819D01*
X26921525Y-20676819D01*
X25992301Y-20676819D01*
X25916188Y-20676819D01*
X24986964Y-20676819D01*
X24914640Y-20676819D01*
X24914659Y-20599962D01*
X24986964Y-20599968D01*
G37*
G36*
X28673249Y-23502426D02*
G01*
X28524284Y-23502426D01*
X28517003Y-23502433D01*
X28472337Y-23502829D01*
X28434002Y-23503756D01*
X28404221Y-23505117D01*
X28385222Y-23506815D01*
X28379229Y-23508753D01*
X28386099Y-23514254D01*
X28403689Y-23525842D01*
X28429133Y-23541586D01*
X28459649Y-23559722D01*
X28485122Y-23574675D01*
X28509466Y-23589692D01*
X28524502Y-23600810D01*
X28532470Y-23610139D01*
X28535609Y-23619790D01*
X28536158Y-23631876D01*
X28535793Y-23642588D01*
X28533195Y-23652213D01*
X28526152Y-23661219D01*
X28512451Y-23671622D01*
X28489882Y-23685434D01*
X28456232Y-23704671D01*
X28455531Y-23705068D01*
X28424737Y-23722976D01*
X28399540Y-23738476D01*
X28382520Y-23749921D01*
X28376261Y-23755664D01*
X28376390Y-23755904D01*
X28385432Y-23757637D01*
X28407095Y-23759140D01*
X28439072Y-23760323D01*
X28479054Y-23761098D01*
X28524734Y-23761376D01*
X28673249Y-23761376D01*
X28673249Y-23837538D01*
X28254359Y-23837538D01*
X28254359Y-23749325D01*
X28350090Y-23693427D01*
X28389868Y-23669472D01*
X28418932Y-23650261D01*
X28435277Y-23637029D01*
X28438417Y-23630124D01*
X28437744Y-23629528D01*
X28426736Y-23621947D01*
X28405726Y-23608699D01*
X28377436Y-23591474D01*
X28344590Y-23571958D01*
X28258167Y-23521196D01*
X28255899Y-23473730D01*
X28253632Y-23426264D01*
X28673249Y-23426264D01*
X28673249Y-23502426D01*
G37*
G36*
X26561267Y-21732391D02*
G01*
X26569497Y-21734094D01*
X26601359Y-21746061D01*
X26625076Y-21766940D01*
X26644546Y-21799890D01*
X26658707Y-21844374D01*
X26663597Y-21895723D01*
X26658490Y-21946728D01*
X26643420Y-21991787D01*
X26626038Y-22020277D01*
X26601468Y-22042529D01*
X26570120Y-22053151D01*
X26529039Y-22053741D01*
X26512931Y-22052145D01*
X26491731Y-22047656D01*
X26476426Y-22038843D01*
X26460962Y-22022969D01*
X26447866Y-22003857D01*
X26432517Y-21973505D01*
X26419652Y-21939944D01*
X26417344Y-21932781D01*
X26402443Y-21889726D01*
X26389486Y-21859454D01*
X26377355Y-21840117D01*
X26364929Y-21829869D01*
X26351089Y-21826864D01*
X26350406Y-21826866D01*
X26330133Y-21830814D01*
X26317218Y-21844200D01*
X26308869Y-21869868D01*
X26308403Y-21872344D01*
X26308773Y-21897253D01*
X26315995Y-21922681D01*
X26327969Y-21943381D01*
X26342593Y-21954105D01*
X26345987Y-21955180D01*
X26353528Y-21961311D01*
X26357054Y-21974624D01*
X26357927Y-21999116D01*
X26357773Y-22013323D01*
X26356086Y-22030651D01*
X26351399Y-22038361D01*
X26342316Y-22040117D01*
X26316408Y-22035438D01*
X26289018Y-22017474D01*
X26267516Y-21987274D01*
X26252780Y-21946148D01*
X26245686Y-21895409D01*
X26244746Y-21870135D01*
X26245944Y-21845188D01*
X26250811Y-21825228D01*
X26260276Y-21804461D01*
X26265053Y-21795772D01*
X26289065Y-21764247D01*
X26317457Y-21746261D01*
X26352046Y-21740547D01*
X26376432Y-21742185D01*
X26404354Y-21750515D01*
X26427545Y-21767390D01*
X26447509Y-21794469D01*
X26465748Y-21833409D01*
X26483767Y-21885870D01*
X26488298Y-21899908D01*
X26503269Y-21936255D01*
X26519371Y-21958983D01*
X26537732Y-21969325D01*
X26559481Y-21968513D01*
X26559624Y-21968477D01*
X26580418Y-21955933D01*
X26592614Y-21930987D01*
X26596274Y-21893512D01*
X26595698Y-21882062D01*
X26588507Y-21850173D01*
X26574230Y-21827966D01*
X26554231Y-21817898D01*
X26546999Y-21816204D01*
X26540167Y-21810122D01*
X26536569Y-21796395D01*
X26534611Y-21771227D01*
X26532314Y-21727016D01*
X26561267Y-21732391D01*
G37*
G36*
X28673249Y-26541286D02*
G01*
X28254359Y-26541286D01*
X28254359Y-26457508D01*
X28673249Y-26457508D01*
X28673249Y-26541286D01*
G37*
G36*
X28575432Y-28584666D02*
G01*
X28580534Y-28585505D01*
X28614185Y-28599431D01*
X28642227Y-28625944D01*
X28662380Y-28662989D01*
X28666078Y-28675543D01*
X28670945Y-28709488D01*
X28671886Y-28748938D01*
X28669142Y-28788783D01*
X28662954Y-28823910D01*
X28653566Y-28849207D01*
X28646513Y-28859741D01*
X28619574Y-28884701D01*
X28586395Y-28899951D01*
X28550401Y-28905297D01*
X28515013Y-28900551D01*
X28483654Y-28885520D01*
X28459747Y-28860014D01*
X28456698Y-28854623D01*
X28445991Y-28831789D01*
X28433612Y-28801319D01*
X28421666Y-28768286D01*
X28416892Y-28754643D01*
X28405309Y-28724807D01*
X28394578Y-28701136D01*
X28386529Y-28687822D01*
X28386329Y-28687602D01*
X28367872Y-28675306D01*
X28349726Y-28676287D01*
X28334162Y-28688739D01*
X28323450Y-28710856D01*
X28319862Y-28740834D01*
X28321719Y-28762705D01*
X28328897Y-28779945D01*
X28344614Y-28795803D01*
X28351393Y-28801689D01*
X28362591Y-28814942D01*
X28367509Y-28831015D01*
X28368602Y-28856085D01*
X28368287Y-28878707D01*
X28366017Y-28890470D01*
X28359803Y-28893573D01*
X28347657Y-28891364D01*
X28333622Y-28886891D01*
X28300129Y-28865815D01*
X28273399Y-28832964D01*
X28266683Y-28816840D01*
X28260089Y-28784391D01*
X28257272Y-28745839D01*
X28258273Y-28706320D01*
X28263134Y-28670970D01*
X28271894Y-28644923D01*
X28295968Y-28615295D01*
X28329762Y-28596539D01*
X28371402Y-28590070D01*
X28401195Y-28594132D01*
X28427273Y-28607803D01*
X28449856Y-28632494D01*
X28470217Y-28669607D01*
X28489625Y-28720545D01*
X28502403Y-28756649D01*
X28515813Y-28786787D01*
X28528954Y-28805784D01*
X28543301Y-28815683D01*
X28560330Y-28818528D01*
X28570758Y-28817519D01*
X28590835Y-28806233D01*
X28602662Y-28782312D01*
X28606326Y-28745615D01*
X28604937Y-28720206D01*
X28599608Y-28700016D01*
X28588762Y-28684490D01*
X28588441Y-28684150D01*
X28572355Y-28671464D01*
X28557679Y-28666204D01*
X28553591Y-28665835D01*
X28547388Y-28661078D01*
X28544490Y-28648060D01*
X28543774Y-28623312D01*
X28543774Y-28580420D01*
X28575432Y-28584666D01*
G37*
G36*
X25400691Y-24196391D02*
G01*
X25414321Y-24205423D01*
X25431218Y-24221143D01*
X25442073Y-24230807D01*
X25448862Y-24228250D01*
X25449906Y-24225796D01*
X25470068Y-24196090D01*
X25497688Y-24177222D01*
X25529896Y-24169025D01*
X25541171Y-24169793D01*
X25563825Y-24171336D01*
X25596606Y-24183989D01*
X25625372Y-24206818D01*
X25647254Y-24239660D01*
X25651572Y-24255422D01*
X25654649Y-24283744D01*
X25655101Y-24317917D01*
X25654269Y-24337575D01*
X25651177Y-24364837D01*
X25644977Y-24385084D01*
X25634389Y-24403613D01*
X25626372Y-24413889D01*
X25596428Y-24437688D01*
X25560422Y-24450734D01*
X25523136Y-24450991D01*
X25511923Y-24447779D01*
X25486094Y-24433845D01*
X25463549Y-24414216D01*
X25450070Y-24393447D01*
X25447881Y-24389431D01*
X25441258Y-24390142D01*
X25429377Y-24402857D01*
X25426486Y-24406228D01*
X25400216Y-24425049D01*
X25367604Y-24434240D01*
X25333166Y-24433775D01*
X25301414Y-24423626D01*
X25276862Y-24403767D01*
X25273259Y-24398916D01*
X25256440Y-24364913D01*
X25248589Y-24326405D01*
X25248806Y-24314577D01*
X25306892Y-24314577D01*
X25306893Y-24314811D01*
X25313509Y-24337413D01*
X25330237Y-24353572D01*
X25352797Y-24361732D01*
X25376907Y-24360335D01*
X25398287Y-24347823D01*
X25398756Y-24347347D01*
X25410948Y-24325568D01*
X25411211Y-24301480D01*
X25409948Y-24298628D01*
X25475935Y-24298628D01*
X25476270Y-24324602D01*
X25487298Y-24347732D01*
X25507505Y-24364321D01*
X25535378Y-24370672D01*
X25543095Y-24370458D01*
X25564343Y-24365235D01*
X25580523Y-24350604D01*
X25585404Y-24343667D01*
X25594875Y-24317755D01*
X25592774Y-24293029D01*
X25581515Y-24271785D01*
X25563510Y-24256317D01*
X25541171Y-24248918D01*
X25516911Y-24251883D01*
X25493143Y-24267507D01*
X25487806Y-24273507D01*
X25475935Y-24298628D01*
X25409948Y-24298628D01*
X25401339Y-24279189D01*
X25383125Y-24262803D01*
X25358364Y-24256429D01*
X25347391Y-24258499D01*
X25327797Y-24271324D01*
X25312845Y-24291658D01*
X25306892Y-24314577D01*
X25248806Y-24314577D01*
X25249313Y-24286998D01*
X25258221Y-24250297D01*
X25274923Y-24219908D01*
X25299027Y-24199436D01*
X25311934Y-24194282D01*
X25342819Y-24188718D01*
X25358364Y-24189023D01*
X25374887Y-24189347D01*
X25400691Y-24196391D01*
G37*
G36*
X26572674Y-26620004D02*
G01*
X26604880Y-26635193D01*
X26632193Y-26662182D01*
X26651983Y-26698818D01*
X26654644Y-26707308D01*
X26659972Y-26743591D01*
X26660405Y-26793105D01*
X26660371Y-26794036D01*
X26656196Y-26840490D01*
X26646828Y-26875569D01*
X26630929Y-26902581D01*
X26607163Y-26924836D01*
X26606627Y-26925229D01*
X26580711Y-26936358D01*
X26547312Y-26940472D01*
X26512369Y-26937460D01*
X26481819Y-26927208D01*
X26479668Y-26926042D01*
X26464744Y-26915428D01*
X26451778Y-26900165D01*
X26439335Y-26877725D01*
X26425981Y-26845582D01*
X26410282Y-26801210D01*
X26408626Y-26796363D01*
X26391527Y-26752922D01*
X26375111Y-26724205D01*
X26358925Y-26709789D01*
X26342516Y-26709252D01*
X26325428Y-26722171D01*
X26315865Y-26736294D01*
X26307878Y-26764469D01*
X26309465Y-26794105D01*
X26320057Y-26820369D01*
X26339088Y-26838426D01*
X26344112Y-26841348D01*
X26352988Y-26850168D01*
X26356993Y-26864473D01*
X26357927Y-26889110D01*
X26357851Y-26898836D01*
X26356393Y-26918359D01*
X26352128Y-26927466D01*
X26343821Y-26929712D01*
X26327430Y-26925668D01*
X26303938Y-26911883D01*
X26280933Y-26891723D01*
X26263136Y-26868757D01*
X26256592Y-26853388D01*
X26249656Y-26820794D01*
X26246599Y-26781977D01*
X26247472Y-26742113D01*
X26252328Y-26706377D01*
X26261219Y-26679945D01*
X26278250Y-26656864D01*
X26307802Y-26635854D01*
X26342151Y-26626145D01*
X26377954Y-26627974D01*
X26411864Y-26641579D01*
X26440537Y-26667198D01*
X26445031Y-26674174D01*
X26455737Y-26695956D01*
X26468001Y-26725632D01*
X26479960Y-26758871D01*
X26482665Y-26766928D01*
X26496102Y-26804071D01*
X26507725Y-26829070D01*
X26519132Y-26844160D01*
X26531923Y-26851575D01*
X26547695Y-26853550D01*
X26560854Y-26852109D01*
X26580728Y-26840418D01*
X26592394Y-26816539D01*
X26596205Y-26779937D01*
X26596058Y-26767273D01*
X26593910Y-26745688D01*
X26587728Y-26731408D01*
X26575652Y-26718906D01*
X26573737Y-26717298D01*
X26556955Y-26705896D01*
X26544099Y-26701226D01*
X26537969Y-26697959D01*
X26534202Y-26684887D01*
X26533099Y-26659337D01*
X26533423Y-26637994D01*
X26535612Y-26624092D01*
X26541401Y-26618487D01*
X26552518Y-26617448D01*
X26572674Y-26620004D01*
G37*
G36*
X28261326Y-33807157D02*
G01*
X28271531Y-33809994D01*
X28294023Y-33817110D01*
X28326882Y-33827871D01*
X28368187Y-33841643D01*
X28416017Y-33857791D01*
X28468452Y-33875679D01*
X28474493Y-33877750D01*
X28526195Y-33895435D01*
X28572812Y-33911319D01*
X28612482Y-33924770D01*
X28643341Y-33935158D01*
X28663523Y-33941853D01*
X28671165Y-33944225D01*
X28672256Y-33951134D01*
X28672447Y-33969315D01*
X28671693Y-33994823D01*
X28669441Y-34045421D01*
X28476361Y-34112605D01*
X28425929Y-34130139D01*
X28378030Y-34146761D01*
X28336321Y-34161205D01*
X28302851Y-34172762D01*
X28279668Y-34180723D01*
X28268820Y-34184380D01*
X28262006Y-34185673D01*
X28257005Y-34181853D01*
X28254832Y-34169077D01*
X28254359Y-34144211D01*
X28254359Y-34099453D01*
X28409883Y-34051225D01*
X28425991Y-34046216D01*
X28471073Y-34032052D01*
X28510625Y-34019411D01*
X28542391Y-34009028D01*
X28564110Y-34001640D01*
X28573525Y-33997980D01*
X28572967Y-33996710D01*
X28561875Y-33991272D01*
X28539081Y-33982550D01*
X28506527Y-33971233D01*
X28466154Y-33958008D01*
X28419905Y-33943564D01*
X28258167Y-33894165D01*
X28255883Y-33850649D01*
X28255558Y-33832479D01*
X28257255Y-33814087D01*
X28261059Y-33807133D01*
X28261326Y-33807157D01*
G37*
G36*
X28530501Y-22115253D02*
G01*
X28582879Y-22128064D01*
X28608401Y-22138887D01*
X28636273Y-22158970D01*
X28659079Y-22188633D01*
X28659505Y-22189335D01*
X28669295Y-22216570D01*
X28673044Y-22250936D01*
X28670606Y-22285739D01*
X28661833Y-22314284D01*
X28660655Y-22316467D01*
X28639246Y-22342834D01*
X28608607Y-22365849D01*
X28574239Y-22381303D01*
X28554114Y-22386474D01*
X28497364Y-22393982D01*
X28438364Y-22393145D01*
X28382291Y-22384255D01*
X28334321Y-22367610D01*
X28332600Y-22366760D01*
X28300069Y-22342853D01*
X28277889Y-22311093D01*
X28266172Y-22274543D01*
X28265628Y-22256342D01*
X28331757Y-22256342D01*
X28340870Y-22277091D01*
X28363169Y-22293621D01*
X28382017Y-22300331D01*
X28417508Y-22307199D01*
X28457985Y-22310271D01*
X28499475Y-22309662D01*
X28538000Y-22305491D01*
X28569587Y-22297875D01*
X28590259Y-22286930D01*
X28592788Y-22284411D01*
X28603111Y-22263557D01*
X28602448Y-22239975D01*
X28590751Y-22220256D01*
X28575231Y-22211043D01*
X28545250Y-22202190D01*
X28507580Y-22196704D01*
X28466266Y-22194738D01*
X28425357Y-22196447D01*
X28388898Y-22201985D01*
X28360939Y-22211505D01*
X28353467Y-22215927D01*
X28335925Y-22234809D01*
X28331757Y-22256342D01*
X28265628Y-22256342D01*
X28265027Y-22236264D01*
X28274566Y-22199318D01*
X28294900Y-22166767D01*
X28326140Y-22141674D01*
X28363413Y-22126034D01*
X28416054Y-22114488D01*
X28466266Y-22111264D01*
X28473321Y-22110811D01*
X28530501Y-22115253D01*
G37*
G36*
X28673130Y-34326939D02*
G01*
X28672655Y-34353606D01*
X28670520Y-34393893D01*
X28667071Y-34429931D01*
X28662748Y-34456233D01*
X28646137Y-34502205D01*
X28617241Y-34543652D01*
X28578477Y-34574709D01*
X28531118Y-34594647D01*
X28476434Y-34602734D01*
X28415699Y-34598239D01*
X28393389Y-34593286D01*
X28347523Y-34573814D01*
X28310958Y-34542692D01*
X28282223Y-34498824D01*
X28275073Y-34483873D01*
X28268351Y-34466504D01*
X28263712Y-34447729D01*
X28260560Y-34424091D01*
X28258301Y-34392135D01*
X28257546Y-34375293D01*
X28330521Y-34375293D01*
X28334300Y-34421180D01*
X28347500Y-34460393D01*
X28370713Y-34488521D01*
X28404494Y-34506211D01*
X28449398Y-34514114D01*
X28463093Y-34514724D01*
X28507234Y-34511596D01*
X28542236Y-34499222D01*
X28571078Y-34476686D01*
X28577199Y-34470044D01*
X28586014Y-34457670D01*
X28591265Y-34442947D01*
X28594174Y-34421580D01*
X28595965Y-34389276D01*
X28598650Y-34325035D01*
X28330521Y-34325035D01*
X28330521Y-34375293D01*
X28257546Y-34375293D01*
X28256340Y-34348405D01*
X28252098Y-34241256D01*
X28673249Y-34241256D01*
X28673130Y-34326939D01*
G37*
G36*
X26662456Y-34776294D02*
G01*
X26661980Y-34802962D01*
X26659846Y-34843248D01*
X26656396Y-34879287D01*
X26652073Y-34905588D01*
X26635462Y-34951560D01*
X26606566Y-34993007D01*
X26567803Y-35024065D01*
X26520443Y-35044003D01*
X26465760Y-35052090D01*
X26405024Y-35047594D01*
X26382714Y-35042641D01*
X26336848Y-35023169D01*
X26300283Y-34992047D01*
X26271548Y-34948179D01*
X26264398Y-34933228D01*
X26257677Y-34915860D01*
X26253037Y-34897084D01*
X26249885Y-34873446D01*
X26247626Y-34841490D01*
X26246871Y-34824648D01*
X26319846Y-34824648D01*
X26323625Y-34870536D01*
X26336826Y-34909749D01*
X26360038Y-34937876D01*
X26393819Y-34955567D01*
X26438724Y-34963470D01*
X26452419Y-34964080D01*
X26496559Y-34960951D01*
X26531561Y-34948577D01*
X26560404Y-34926042D01*
X26566524Y-34919399D01*
X26575339Y-34907025D01*
X26580590Y-34892302D01*
X26583499Y-34870936D01*
X26585290Y-34838631D01*
X26587976Y-34774390D01*
X26319846Y-34774390D01*
X26319846Y-34824648D01*
X26246871Y-34824648D01*
X26245665Y-34797760D01*
X26241424Y-34690612D01*
X26662575Y-34690612D01*
X26662456Y-34776294D01*
G37*
G36*
X28529992Y-24950240D02*
G01*
X28563568Y-24956072D01*
X28602593Y-24971568D01*
X28637031Y-24995948D01*
X28659909Y-25025816D01*
X28668594Y-25052111D01*
X28672729Y-25085205D01*
X28671522Y-25117476D01*
X28664702Y-25142312D01*
X28645950Y-25170625D01*
X28616132Y-25196330D01*
X28576786Y-25213936D01*
X28526459Y-25224057D01*
X28463696Y-25227308D01*
X28433287Y-25227067D01*
X28405481Y-25225580D01*
X28384188Y-25221934D01*
X28364582Y-25215228D01*
X28341837Y-25204563D01*
X28334917Y-25201042D01*
X28309300Y-25185671D01*
X28292330Y-25169404D01*
X28279111Y-25147814D01*
X28270851Y-25128311D01*
X28264230Y-25090975D01*
X28332450Y-25090975D01*
X28340298Y-25111749D01*
X28361983Y-25128999D01*
X28380460Y-25136154D01*
X28415287Y-25143056D01*
X28455675Y-25145855D01*
X28497535Y-25144720D01*
X28536779Y-25139823D01*
X28569318Y-25131334D01*
X28591064Y-25119425D01*
X28598160Y-25111279D01*
X28605111Y-25089534D01*
X28599355Y-25067402D01*
X28581512Y-25049417D01*
X28560659Y-25040176D01*
X28525208Y-25032242D01*
X28484328Y-25028940D01*
X28442053Y-25030110D01*
X28402419Y-25035589D01*
X28369460Y-25045214D01*
X28347212Y-25058825D01*
X28338933Y-25069023D01*
X28332450Y-25090975D01*
X28264230Y-25090975D01*
X28263335Y-25085926D01*
X28269718Y-25045896D01*
X28289094Y-25010246D01*
X28320552Y-24981004D01*
X28363187Y-24960195D01*
X28366188Y-24959247D01*
X28400053Y-24952381D01*
X28442479Y-24948513D01*
X28484328Y-24947815D01*
X28487711Y-24947759D01*
X28529992Y-24950240D01*
G37*
G36*
X26494398Y-28971792D02*
G01*
X26533429Y-28979136D01*
X26563772Y-28990000D01*
X26567961Y-28992288D01*
X26598894Y-29015666D01*
X26627626Y-29047196D01*
X26648782Y-29081117D01*
X26651858Y-29088857D01*
X26658654Y-29120712D01*
X26661233Y-29159838D01*
X26659712Y-29200728D01*
X26654209Y-29237870D01*
X26644841Y-29265758D01*
X26618745Y-29302230D01*
X26581169Y-29330589D01*
X26535003Y-29346575D01*
X26510251Y-29351280D01*
X26510251Y-29309684D01*
X26510651Y-29288079D01*
X26513461Y-29273163D01*
X26521012Y-29264560D01*
X26535629Y-29257484D01*
X26536274Y-29257212D01*
X26568103Y-29236570D01*
X26587477Y-29207217D01*
X26594000Y-29169750D01*
X26589105Y-29134258D01*
X26571769Y-29100633D01*
X26542747Y-29075736D01*
X26502909Y-29060276D01*
X26453129Y-29054964D01*
X26450080Y-29054981D01*
X26400607Y-29060676D01*
X26361538Y-29076156D01*
X26333631Y-29100767D01*
X26317649Y-29133852D01*
X26314350Y-29174753D01*
X26316759Y-29195089D01*
X26324339Y-29218107D01*
X26339048Y-29237587D01*
X26343635Y-29242088D01*
X26360807Y-29255054D01*
X26374584Y-29260267D01*
X26379721Y-29260948D01*
X26385208Y-29266528D01*
X26387763Y-29280583D01*
X26388392Y-29306477D01*
X26388142Y-29326269D01*
X26386495Y-29342654D01*
X26382458Y-29349117D01*
X26375063Y-29348728D01*
X26361372Y-29344956D01*
X26340688Y-29339747D01*
X26328628Y-29334937D01*
X26304934Y-29316983D01*
X26281945Y-29290607D01*
X26262895Y-29259820D01*
X26251019Y-29228630D01*
X26248981Y-29218845D01*
X26245172Y-29180169D01*
X26246245Y-29139006D01*
X26251817Y-29101109D01*
X26261500Y-29072230D01*
X26275683Y-29049259D01*
X26311482Y-29012726D01*
X26357784Y-28986432D01*
X26413465Y-28971125D01*
X26415463Y-28970820D01*
X26452977Y-28968756D01*
X26494398Y-28971792D01*
G37*
G36*
X27569555Y-31736968D02*
G01*
X27594799Y-31746145D01*
X27605314Y-31751726D01*
X27629586Y-31771848D01*
X27650510Y-31797632D01*
X27662818Y-31823115D01*
X27662865Y-31823297D01*
X27664681Y-31838602D01*
X27665580Y-31863674D01*
X27665369Y-31893179D01*
X27662218Y-31930352D01*
X27652920Y-31960806D01*
X27635293Y-31985133D01*
X27607060Y-32007808D01*
X27604704Y-32009376D01*
X27585785Y-32018867D01*
X27563030Y-32023636D01*
X27530820Y-32024945D01*
X27505410Y-32023708D01*
X27466962Y-32014401D01*
X27437746Y-31994949D01*
X27415447Y-31964134D01*
X27409282Y-31949569D01*
X27402404Y-31914435D01*
X27403438Y-31878073D01*
X27412558Y-31847496D01*
X27423677Y-31826179D01*
X27380142Y-31828455D01*
X27336608Y-31830732D01*
X27332284Y-31994480D01*
X27264254Y-31994480D01*
X27264254Y-31767961D01*
X27327087Y-31763025D01*
X27328722Y-31762896D01*
X27366524Y-31759809D01*
X27405522Y-31756455D01*
X27437522Y-31753538D01*
X27485123Y-31748987D01*
X27484881Y-31786051D01*
X27484341Y-31797323D01*
X27480236Y-31821517D01*
X27473457Y-31837899D01*
X27472263Y-31839643D01*
X27465171Y-31858435D01*
X27462275Y-31881693D01*
X27463391Y-31895171D01*
X27474597Y-31922098D01*
X27496043Y-31939833D01*
X27525496Y-31947004D01*
X27560721Y-31942235D01*
X27582883Y-31930769D01*
X27599736Y-31909759D01*
X27606418Y-31884269D01*
X27602818Y-31858108D01*
X27588824Y-31835086D01*
X27564325Y-31819015D01*
X27560265Y-31817329D01*
X27551119Y-31810261D01*
X27547007Y-31797298D01*
X27546053Y-31773799D01*
X27546073Y-31769498D01*
X27547958Y-31747076D01*
X27554863Y-31736755D01*
X27569555Y-31736968D01*
G37*
G36*
X28583349Y-26620004D02*
G01*
X28615555Y-26635193D01*
X28642868Y-26662182D01*
X28662658Y-26698818D01*
X28665318Y-26707308D01*
X28670647Y-26743591D01*
X28671080Y-26793105D01*
X28671045Y-26794036D01*
X28666870Y-26840490D01*
X28657502Y-26875569D01*
X28641604Y-26902581D01*
X28617838Y-26924836D01*
X28617302Y-26925229D01*
X28591386Y-26936358D01*
X28557987Y-26940472D01*
X28523044Y-26937460D01*
X28492494Y-26927208D01*
X28490343Y-26926042D01*
X28475419Y-26915428D01*
X28462453Y-26900165D01*
X28450010Y-26877725D01*
X28436656Y-26845582D01*
X28420957Y-26801210D01*
X28419301Y-26796363D01*
X28402201Y-26752922D01*
X28385786Y-26724205D01*
X28369600Y-26709789D01*
X28353190Y-26709252D01*
X28336103Y-26722171D01*
X28326540Y-26736294D01*
X28318553Y-26764469D01*
X28320139Y-26794105D01*
X28330732Y-26820369D01*
X28349763Y-26838426D01*
X28354787Y-26841348D01*
X28363663Y-26850168D01*
X28367667Y-26864473D01*
X28368602Y-26889110D01*
X28368526Y-26898836D01*
X28367068Y-26918359D01*
X28362803Y-26927466D01*
X28354496Y-26929712D01*
X28338105Y-26925668D01*
X28314613Y-26911883D01*
X28291607Y-26891723D01*
X28273811Y-26868757D01*
X28267266Y-26853388D01*
X28260331Y-26820794D01*
X28257274Y-26781977D01*
X28258147Y-26742113D01*
X28263002Y-26706377D01*
X28271894Y-26679945D01*
X28288925Y-26656864D01*
X28318476Y-26635854D01*
X28352826Y-26626145D01*
X28388628Y-26627974D01*
X28422539Y-26641579D01*
X28451211Y-26667198D01*
X28455706Y-26674174D01*
X28466412Y-26695956D01*
X28478676Y-26725632D01*
X28490635Y-26758871D01*
X28493339Y-26766928D01*
X28506776Y-26804071D01*
X28518399Y-26829070D01*
X28529807Y-26844160D01*
X28542597Y-26851575D01*
X28558370Y-26853550D01*
X28571529Y-26852109D01*
X28591402Y-26840418D01*
X28603069Y-26816539D01*
X28606880Y-26779937D01*
X28606732Y-26767273D01*
X28604584Y-26745688D01*
X28598403Y-26731408D01*
X28586326Y-26718906D01*
X28584412Y-26717298D01*
X28567630Y-26705896D01*
X28554774Y-26701226D01*
X28548643Y-26697959D01*
X28544876Y-26684887D01*
X28543774Y-26659337D01*
X28544097Y-26637994D01*
X28546287Y-26624092D01*
X28552075Y-26618487D01*
X28563193Y-26617448D01*
X28583349Y-26620004D01*
G37*
G36*
X25377165Y-31926094D02*
G01*
X25391544Y-31927806D01*
X25396159Y-31932871D01*
X25394388Y-31943070D01*
X25390945Y-31955151D01*
X25385259Y-31975439D01*
X25378365Y-31991642D01*
X25366823Y-32010888D01*
X25366159Y-32011836D01*
X25356553Y-32026878D01*
X25352590Y-32035641D01*
X25352900Y-32035930D01*
X25362951Y-32037279D01*
X25385494Y-32038445D01*
X25418253Y-32039362D01*
X25458951Y-32039962D01*
X25505311Y-32040177D01*
X25658033Y-32040177D01*
X25653429Y-32120147D01*
X25453504Y-32122177D01*
X25253579Y-32124208D01*
X25253579Y-32085307D01*
X25253624Y-32079444D01*
X25255960Y-32055549D01*
X25263925Y-32036604D01*
X25280397Y-32015075D01*
X25289271Y-32003751D01*
X25305569Y-31977964D01*
X25315876Y-31954839D01*
X25320435Y-31940868D01*
X25327232Y-31930513D01*
X25339422Y-31926564D01*
X25361925Y-31925934D01*
X25377165Y-31926094D01*
G37*
G36*
X26564757Y-28584666D02*
G01*
X26569859Y-28585505D01*
X26603510Y-28599431D01*
X26631552Y-28625944D01*
X26651706Y-28662989D01*
X26655403Y-28675543D01*
X26660271Y-28709488D01*
X26661211Y-28748938D01*
X26658467Y-28788783D01*
X26652280Y-28823910D01*
X26642891Y-28849207D01*
X26635838Y-28859741D01*
X26608899Y-28884701D01*
X26575721Y-28899951D01*
X26539726Y-28905297D01*
X26504338Y-28900551D01*
X26472979Y-28885520D01*
X26449073Y-28860014D01*
X26446023Y-28854623D01*
X26435316Y-28831789D01*
X26422937Y-28801319D01*
X26410991Y-28768286D01*
X26406217Y-28754643D01*
X26394634Y-28724807D01*
X26383903Y-28701136D01*
X26375854Y-28687822D01*
X26375654Y-28687602D01*
X26357197Y-28675306D01*
X26339052Y-28676287D01*
X26323488Y-28688739D01*
X26312776Y-28710856D01*
X26309187Y-28740834D01*
X26311045Y-28762705D01*
X26318223Y-28779945D01*
X26333939Y-28795803D01*
X26340718Y-28801689D01*
X26351917Y-28814942D01*
X26356834Y-28831015D01*
X26357927Y-28856085D01*
X26357612Y-28878707D01*
X26355342Y-28890470D01*
X26349128Y-28893573D01*
X26336982Y-28891364D01*
X26322947Y-28886891D01*
X26289454Y-28865815D01*
X26262725Y-28832964D01*
X26256008Y-28816840D01*
X26249414Y-28784391D01*
X26246598Y-28745839D01*
X26247599Y-28706320D01*
X26252459Y-28670970D01*
X26261219Y-28644923D01*
X26285294Y-28615295D01*
X26319087Y-28596539D01*
X26360727Y-28590070D01*
X26390520Y-28594132D01*
X26416598Y-28607803D01*
X26439182Y-28632494D01*
X26459542Y-28669607D01*
X26478951Y-28720545D01*
X26491728Y-28756649D01*
X26505139Y-28786787D01*
X26518280Y-28805784D01*
X26532627Y-28815683D01*
X26549655Y-28818528D01*
X26560083Y-28817519D01*
X26580161Y-28806233D01*
X26591987Y-28782312D01*
X26595651Y-28745615D01*
X26594262Y-28720206D01*
X26588934Y-28700016D01*
X26578087Y-28684490D01*
X26577766Y-28684150D01*
X26561680Y-28671464D01*
X26547004Y-28666204D01*
X26542916Y-28665835D01*
X26536713Y-28661078D01*
X26533815Y-28648060D01*
X26533099Y-28623312D01*
X26533099Y-28580420D01*
X26564757Y-28584666D01*
G37*
G36*
X25641616Y-34463664D02*
G01*
X25652160Y-34467203D01*
X25653705Y-34475400D01*
X25655119Y-34496503D01*
X25656237Y-34527955D01*
X25656973Y-34567257D01*
X25657237Y-34611911D01*
X25657237Y-34751541D01*
X25588692Y-34751541D01*
X25588692Y-34667763D01*
X25588334Y-34638674D01*
X25587129Y-34610401D01*
X25585274Y-34591235D01*
X25582979Y-34584238D01*
X25578306Y-34587567D01*
X25565213Y-34600345D01*
X25546324Y-34620455D01*
X25523954Y-34645497D01*
X25506310Y-34664961D01*
X25465798Y-34703074D01*
X25428152Y-34728026D01*
X25391849Y-34740686D01*
X25355367Y-34741927D01*
X25337105Y-34738685D01*
X25300018Y-34722451D01*
X25272626Y-34695034D01*
X25255730Y-34657432D01*
X25250129Y-34610642D01*
X25250911Y-34593699D01*
X25260879Y-34549625D01*
X25281708Y-34515244D01*
X25312647Y-34491514D01*
X25352946Y-34479391D01*
X25383054Y-34475353D01*
X25383054Y-34514436D01*
X25382999Y-34522611D01*
X25381583Y-34542204D01*
X25377251Y-34551296D01*
X25368666Y-34553520D01*
X25363063Y-34553900D01*
X25340828Y-34563668D01*
X25325066Y-34583818D01*
X25319078Y-34610553D01*
X25319338Y-34617579D01*
X25326771Y-34641712D01*
X25345054Y-34655655D01*
X25374990Y-34660118D01*
X25378211Y-34660072D01*
X25396425Y-34657706D01*
X25414505Y-34650707D01*
X25434375Y-34637617D01*
X25457958Y-34616979D01*
X25487176Y-34587335D01*
X25523954Y-34547228D01*
X25543217Y-34525945D01*
X25568747Y-34498646D01*
X25587586Y-34480308D01*
X25601697Y-34469258D01*
X25613047Y-34463819D01*
X25623599Y-34462319D01*
X25641616Y-34463664D01*
G37*
G36*
X26662575Y-29519217D02*
G01*
X26446233Y-29519217D01*
X26662575Y-29678995D01*
X26662575Y-29725223D01*
X26662559Y-29729987D01*
X26661524Y-29753985D01*
X26658519Y-29765211D01*
X26653054Y-29765752D01*
X26648044Y-29762359D01*
X26631915Y-29750841D01*
X26607374Y-29733020D01*
X26576690Y-29710546D01*
X26542133Y-29685070D01*
X26440732Y-29610087D01*
X26351728Y-29679978D01*
X26337776Y-29690934D01*
X26307019Y-29715085D01*
X26281080Y-29735451D01*
X26262346Y-29750160D01*
X26253204Y-29757335D01*
X26251451Y-29758482D01*
X26246780Y-29756785D01*
X26244369Y-29744243D01*
X26243684Y-29718684D01*
X26243684Y-29672567D01*
X26342640Y-29597796D01*
X26441595Y-29523026D01*
X26342640Y-29520900D01*
X26243684Y-29518775D01*
X26243684Y-29435439D01*
X26662575Y-29435439D01*
X26662575Y-29519217D01*
G37*
G36*
X26658767Y-24869532D02*
G01*
X26247492Y-24869532D01*
X26242888Y-24789562D01*
X26663371Y-24789562D01*
X26658767Y-24869532D01*
G37*
G36*
X25419632Y-26695008D02*
G01*
X25454736Y-26711695D01*
X25481291Y-26738327D01*
X25498218Y-26771715D01*
X25504437Y-26808672D01*
X25498872Y-26846010D01*
X25480442Y-26880540D01*
X25463987Y-26901459D01*
X25504058Y-26897608D01*
X25506454Y-26897363D01*
X25545836Y-26887799D01*
X25574937Y-26869414D01*
X25592066Y-26843252D01*
X25593510Y-26838521D01*
X25594345Y-26812398D01*
X25585060Y-26788898D01*
X25567639Y-26773678D01*
X25564132Y-26771983D01*
X25555545Y-26764286D01*
X25551575Y-26750456D01*
X25550611Y-26725975D01*
X25550611Y-26685790D01*
X25578893Y-26697607D01*
X25601497Y-26708602D01*
X25628627Y-26729972D01*
X25646555Y-26758348D01*
X25653168Y-26781046D01*
X25656523Y-26817125D01*
X25654184Y-26854446D01*
X25646172Y-26885789D01*
X25642063Y-26894314D01*
X25619362Y-26924539D01*
X25588038Y-26950842D01*
X25553168Y-26968697D01*
X25536369Y-26973065D01*
X25499723Y-26977723D01*
X25456794Y-26979201D01*
X25412893Y-26977583D01*
X25373332Y-26972953D01*
X25343424Y-26965395D01*
X25307996Y-26945789D01*
X25277150Y-26914530D01*
X25256790Y-26876316D01*
X25247920Y-26834052D01*
X25248708Y-26824613D01*
X25314745Y-26824613D01*
X25318042Y-26849279D01*
X25331856Y-26871700D01*
X25356766Y-26888468D01*
X25362397Y-26890744D01*
X25389772Y-26898282D01*
X25409039Y-26895461D01*
X25423069Y-26881999D01*
X25425956Y-26877390D01*
X25439021Y-26845201D01*
X25439644Y-26815887D01*
X25428837Y-26791906D01*
X25407608Y-26775715D01*
X25376966Y-26769772D01*
X25362155Y-26771203D01*
X25337381Y-26782169D01*
X25321384Y-26801108D01*
X25314745Y-26824613D01*
X25248708Y-26824613D01*
X25251545Y-26790643D01*
X25268666Y-26748993D01*
X25295529Y-26718515D01*
X25331414Y-26698385D01*
X25373090Y-26689986D01*
X25376966Y-26690375D01*
X25417483Y-26694444D01*
X25419632Y-26695008D01*
G37*
G36*
X26662575Y-26541286D02*
G01*
X26243684Y-26541286D01*
X26243684Y-26457508D01*
X26662575Y-26457508D01*
X26662575Y-26541286D01*
G37*
G36*
X26250651Y-33807157D02*
G01*
X26260856Y-33809994D01*
X26283348Y-33817110D01*
X26316207Y-33827871D01*
X26357512Y-33841643D01*
X26405342Y-33857791D01*
X26457778Y-33875679D01*
X26463819Y-33877750D01*
X26515520Y-33895435D01*
X26562138Y-33911319D01*
X26601808Y-33924770D01*
X26632666Y-33935158D01*
X26652848Y-33941853D01*
X26660490Y-33944225D01*
X26661581Y-33951134D01*
X26661772Y-33969315D01*
X26661019Y-33994823D01*
X26658767Y-34045421D01*
X26465687Y-34112605D01*
X26415254Y-34130139D01*
X26367355Y-34146761D01*
X26325646Y-34161205D01*
X26292176Y-34172762D01*
X26268993Y-34180723D01*
X26258146Y-34184380D01*
X26251331Y-34185673D01*
X26246331Y-34181853D01*
X26244158Y-34169077D01*
X26243684Y-34144211D01*
X26243684Y-34099453D01*
X26399208Y-34051225D01*
X26415317Y-34046216D01*
X26460398Y-34032052D01*
X26499951Y-34019411D01*
X26531716Y-34009028D01*
X26553436Y-34001640D01*
X26562850Y-33997980D01*
X26562293Y-33996710D01*
X26551200Y-33991272D01*
X26528406Y-33982550D01*
X26495852Y-33971233D01*
X26455480Y-33958008D01*
X26409230Y-33943564D01*
X26247492Y-33894165D01*
X26245208Y-33850649D01*
X26244883Y-33832479D01*
X26246581Y-33814087D01*
X26250385Y-33807133D01*
X26250651Y-33807157D01*
G37*
G36*
X27667912Y-24454450D02*
G01*
X27599366Y-24454450D01*
X27599366Y-24276254D01*
X27533755Y-24346568D01*
X27533019Y-24347356D01*
X27506154Y-24375209D01*
X27481205Y-24399484D01*
X27460927Y-24417596D01*
X27448073Y-24426961D01*
X27434878Y-24432935D01*
X27391787Y-24443559D01*
X27351777Y-24440888D01*
X27316712Y-24426402D01*
X27288452Y-24401581D01*
X27268860Y-24367906D01*
X27259797Y-24326856D01*
X27263126Y-24279913D01*
X27271543Y-24250918D01*
X27292087Y-24216730D01*
X27322942Y-24193421D01*
X27365168Y-24179956D01*
X27393729Y-24174696D01*
X27393729Y-24210380D01*
X27393616Y-24220950D01*
X27391420Y-24238680D01*
X27384172Y-24248866D01*
X27368976Y-24256958D01*
X27364461Y-24259116D01*
X27342592Y-24276549D01*
X27330961Y-24298523D01*
X27329215Y-24321599D01*
X27337006Y-24342338D01*
X27353983Y-24357303D01*
X27379794Y-24363055D01*
X27395720Y-24361799D01*
X27416071Y-24355648D01*
X27437785Y-24343069D01*
X27462818Y-24322631D01*
X27493122Y-24292900D01*
X27530650Y-24252445D01*
X27543413Y-24238332D01*
X27570393Y-24208949D01*
X27590171Y-24188668D01*
X27604821Y-24175813D01*
X27616416Y-24168707D01*
X27627029Y-24165673D01*
X27638735Y-24165035D01*
X27667912Y-24165035D01*
X27667912Y-24454450D01*
G37*
G36*
X25377615Y-29054808D02*
G01*
X25391680Y-29056557D01*
X25396058Y-29061629D01*
X25394080Y-29071766D01*
X25392023Y-29078299D01*
X25381102Y-29107814D01*
X25370147Y-29130245D01*
X25360983Y-29141736D01*
X25355076Y-29146067D01*
X25352986Y-29151380D01*
X25360157Y-29155366D01*
X25377783Y-29158185D01*
X25407056Y-29159999D01*
X25449168Y-29160969D01*
X25505311Y-29161256D01*
X25658033Y-29161256D01*
X25653429Y-29241226D01*
X25453504Y-29243257D01*
X25253579Y-29245287D01*
X25253579Y-29206387D01*
X25253606Y-29201777D01*
X25255816Y-29177265D01*
X25263646Y-29158108D01*
X25280011Y-29136606D01*
X25288738Y-29125613D01*
X25304772Y-29101244D01*
X25314874Y-29080178D01*
X25318981Y-29068876D01*
X25325978Y-29059176D01*
X25338465Y-29055320D01*
X25361310Y-29054630D01*
X25377615Y-29054808D01*
G37*
G36*
X25377436Y-34157645D02*
G01*
X25391624Y-34159368D01*
X25396058Y-34164434D01*
X25394080Y-34174615D01*
X25392023Y-34181148D01*
X25381102Y-34210662D01*
X25370147Y-34233093D01*
X25360983Y-34244584D01*
X25355076Y-34248916D01*
X25352986Y-34254229D01*
X25360157Y-34258214D01*
X25377783Y-34261033D01*
X25407056Y-34262847D01*
X25449168Y-34263817D01*
X25505311Y-34264105D01*
X25658033Y-34264105D01*
X25653429Y-34344075D01*
X25453504Y-34346105D01*
X25253579Y-34348136D01*
X25253579Y-34307545D01*
X25253641Y-34299838D01*
X25255716Y-34276743D01*
X25262481Y-34260683D01*
X25276292Y-34245194D01*
X25280912Y-34240374D01*
X25298303Y-34216540D01*
X25311600Y-34190456D01*
X25318416Y-34173639D01*
X25326476Y-34162334D01*
X25339153Y-34158111D01*
X25361754Y-34157478D01*
X25377436Y-34157645D01*
G37*
G36*
X28505073Y-28971792D02*
G01*
X28544104Y-28979136D01*
X28574447Y-28990000D01*
X28578636Y-28992288D01*
X28609569Y-29015666D01*
X28638301Y-29047196D01*
X28659457Y-29081117D01*
X28662533Y-29088857D01*
X28669329Y-29120712D01*
X28671908Y-29159838D01*
X28670387Y-29200728D01*
X28664884Y-29237870D01*
X28655516Y-29265758D01*
X28629420Y-29302230D01*
X28591843Y-29330589D01*
X28545678Y-29346575D01*
X28520925Y-29351280D01*
X28520925Y-29309684D01*
X28521325Y-29288079D01*
X28524136Y-29273163D01*
X28531686Y-29264560D01*
X28546303Y-29257484D01*
X28546948Y-29257212D01*
X28578777Y-29236570D01*
X28598151Y-29207217D01*
X28604675Y-29169750D01*
X28599779Y-29134258D01*
X28582444Y-29100633D01*
X28553421Y-29075736D01*
X28513584Y-29060276D01*
X28463804Y-29054964D01*
X28460754Y-29054981D01*
X28411282Y-29060676D01*
X28372212Y-29076156D01*
X28344306Y-29100767D01*
X28328324Y-29133852D01*
X28325025Y-29174753D01*
X28327434Y-29195089D01*
X28335014Y-29218107D01*
X28349723Y-29237587D01*
X28354310Y-29242088D01*
X28371482Y-29255054D01*
X28385259Y-29260267D01*
X28390396Y-29260948D01*
X28395883Y-29266528D01*
X28398438Y-29280583D01*
X28399066Y-29306477D01*
X28398816Y-29326269D01*
X28397170Y-29342654D01*
X28393133Y-29349117D01*
X28385738Y-29348728D01*
X28372047Y-29344956D01*
X28351363Y-29339747D01*
X28339303Y-29334937D01*
X28315609Y-29316983D01*
X28292619Y-29290607D01*
X28273569Y-29259820D01*
X28261694Y-29228630D01*
X28259656Y-29218845D01*
X28255846Y-29180169D01*
X28256920Y-29139006D01*
X28262491Y-29101109D01*
X28272175Y-29072230D01*
X28286357Y-29049259D01*
X28322156Y-29012726D01*
X28368459Y-28986432D01*
X28424140Y-28971125D01*
X28426138Y-28970820D01*
X28463652Y-28968756D01*
X28505073Y-28971792D01*
G37*
G36*
X26481602Y-31236363D02*
G01*
X26530007Y-31246862D01*
X26574419Y-31267360D01*
X26612359Y-31297882D01*
X26641350Y-31338453D01*
X26647874Y-31351627D01*
X26657036Y-31375964D01*
X26661439Y-31401741D01*
X26662575Y-31435804D01*
X26662574Y-31436102D01*
X26661150Y-31467822D01*
X26657463Y-31496804D01*
X26652304Y-31516808D01*
X26649811Y-31522486D01*
X26622765Y-31564175D01*
X26585618Y-31595221D01*
X26539986Y-31614599D01*
X26487485Y-31621286D01*
X26441705Y-31621286D01*
X26441705Y-31438498D01*
X26510251Y-31438498D01*
X26510251Y-31488003D01*
X26510531Y-31508990D01*
X26512274Y-31527002D01*
X26516396Y-31535424D01*
X26523788Y-31537508D01*
X26535352Y-31536120D01*
X26558595Y-31523782D01*
X26576746Y-31501367D01*
X26588721Y-31472168D01*
X26593435Y-31439478D01*
X26589803Y-31406588D01*
X26576741Y-31376790D01*
X26564356Y-31361006D01*
X26536667Y-31339909D01*
X26500407Y-31328013D01*
X26453129Y-31324279D01*
X26425789Y-31325370D01*
X26384833Y-31333434D01*
X26353559Y-31350228D01*
X26329518Y-31376790D01*
X26327662Y-31379688D01*
X26315196Y-31411195D01*
X26312676Y-31445354D01*
X26319334Y-31478105D01*
X26334405Y-31505387D01*
X26357123Y-31523141D01*
X26367325Y-31528114D01*
X26376339Y-31536300D01*
X26380052Y-31549830D01*
X26380775Y-31573640D01*
X26380648Y-31586369D01*
X26379012Y-31604002D01*
X26374332Y-31611870D01*
X26365165Y-31613670D01*
X26359599Y-31613401D01*
X26329657Y-31603690D01*
X26300480Y-31581810D01*
X26274673Y-31550181D01*
X26254847Y-31511227D01*
X26248978Y-31489629D01*
X26244918Y-31451542D01*
X26245764Y-31410328D01*
X26251291Y-31371907D01*
X26261274Y-31342200D01*
X26266386Y-31333006D01*
X26297596Y-31293874D01*
X26337200Y-31264619D01*
X26382721Y-31245266D01*
X26431680Y-31235839D01*
X26481602Y-31236363D01*
G37*
G36*
X25377165Y-31590981D02*
G01*
X25391544Y-31592694D01*
X25396159Y-31597759D01*
X25394388Y-31607958D01*
X25390945Y-31620038D01*
X25385259Y-31640327D01*
X25378365Y-31656529D01*
X25366823Y-31675775D01*
X25366159Y-31676724D01*
X25356553Y-31691766D01*
X25352590Y-31700528D01*
X25352900Y-31700818D01*
X25362951Y-31702166D01*
X25385494Y-31703333D01*
X25418253Y-31704250D01*
X25458951Y-31704850D01*
X25505311Y-31705064D01*
X25658033Y-31705064D01*
X25655731Y-31745049D01*
X25653429Y-31785035D01*
X25453504Y-31787065D01*
X25253579Y-31789096D01*
X25253579Y-31750195D01*
X25253624Y-31744331D01*
X25255960Y-31720436D01*
X25263925Y-31701492D01*
X25280397Y-31679963D01*
X25289271Y-31668639D01*
X25305569Y-31642851D01*
X25315876Y-31619727D01*
X25320435Y-31605755D01*
X25327232Y-31595401D01*
X25339422Y-31591452D01*
X25361925Y-31590822D01*
X25377165Y-31590981D01*
G37*
G36*
X27390296Y-21720444D02*
G01*
X27402973Y-21722504D01*
X27406521Y-21728667D01*
X27404393Y-21741181D01*
X27402518Y-21747759D01*
X27393728Y-21770280D01*
X27381936Y-21794495D01*
X27364337Y-21826864D01*
X27511047Y-21826864D01*
X27514846Y-21826865D01*
X27560319Y-21827156D01*
X27600285Y-21827891D01*
X27632314Y-21828987D01*
X27653975Y-21830364D01*
X27662834Y-21831941D01*
X27664472Y-21835555D01*
X27666940Y-21851268D01*
X27667912Y-21873830D01*
X27667912Y-21910642D01*
X27264254Y-21910642D01*
X27264254Y-21875499D01*
X27266284Y-21851290D01*
X27274261Y-21831629D01*
X27291072Y-21809378D01*
X27299946Y-21798054D01*
X27316243Y-21772267D01*
X27326550Y-21749142D01*
X27330986Y-21735499D01*
X27337762Y-21724930D01*
X27349859Y-21720888D01*
X27372231Y-21720237D01*
X27390296Y-21720444D01*
G37*
G36*
X26557852Y-24383359D02*
G01*
X26587247Y-24391084D01*
X26610589Y-24404158D01*
X26629505Y-24425449D01*
X26647967Y-24458258D01*
X26653700Y-24471413D01*
X26659028Y-24491778D01*
X26661139Y-24517502D01*
X26660684Y-24553460D01*
X26658399Y-24586704D01*
X26649346Y-24633468D01*
X26633158Y-24667647D01*
X26609058Y-24690161D01*
X26576274Y-24701929D01*
X26534031Y-24703871D01*
X26509991Y-24701998D01*
X26490646Y-24697854D01*
X26476278Y-24689523D01*
X26461299Y-24674770D01*
X26453866Y-24665569D01*
X26435286Y-24633128D01*
X26419166Y-24591415D01*
X26413707Y-24574370D01*
X26399712Y-24534283D01*
X26387493Y-24506460D01*
X26375878Y-24488974D01*
X26363693Y-24479896D01*
X26349767Y-24477298D01*
X26336900Y-24478521D01*
X26325046Y-24486251D01*
X26315217Y-24504744D01*
X26309116Y-24529521D01*
X26310027Y-24557352D01*
X26317602Y-24582157D01*
X26330576Y-24599957D01*
X26347683Y-24606774D01*
X26353033Y-24610090D01*
X26356782Y-24624237D01*
X26357927Y-24651415D01*
X26357925Y-24657003D01*
X26357444Y-24679450D01*
X26354929Y-24690601D01*
X26348676Y-24693785D01*
X26336982Y-24692330D01*
X26304963Y-24680495D01*
X26277154Y-24655789D01*
X26257426Y-24620225D01*
X26246595Y-24575320D01*
X26245481Y-24522593D01*
X26249008Y-24493741D01*
X26262288Y-24449933D01*
X26284118Y-24418151D01*
X26314172Y-24398792D01*
X26352128Y-24392251D01*
X26392115Y-24397855D01*
X26424452Y-24414421D01*
X26446409Y-24440951D01*
X26448590Y-24445431D01*
X26457909Y-24467430D01*
X26469288Y-24497206D01*
X26480744Y-24529638D01*
X26491762Y-24560461D01*
X26505080Y-24590567D01*
X26518065Y-24609447D01*
X26532293Y-24619220D01*
X26549337Y-24622006D01*
X26561683Y-24620109D01*
X26580648Y-24606532D01*
X26592561Y-24581315D01*
X26596368Y-24546158D01*
X26595982Y-24535547D01*
X26590185Y-24502892D01*
X26576961Y-24482266D01*
X26555534Y-24472265D01*
X26554636Y-24472085D01*
X26542459Y-24468663D01*
X26536035Y-24462056D01*
X26533527Y-24448248D01*
X26533099Y-24423223D01*
X26533099Y-24378669D01*
X26557852Y-24383359D01*
G37*
G36*
X28673249Y-29519217D02*
G01*
X28456908Y-29519217D01*
X28565078Y-29599106D01*
X28673249Y-29678995D01*
X28673249Y-29725223D01*
X28673234Y-29729987D01*
X28672199Y-29753985D01*
X28669194Y-29765211D01*
X28663729Y-29765752D01*
X28658719Y-29762359D01*
X28642590Y-29750841D01*
X28618049Y-29733020D01*
X28587365Y-29710546D01*
X28552808Y-29685070D01*
X28451407Y-29610087D01*
X28362403Y-29679978D01*
X28348450Y-29690934D01*
X28317694Y-29715085D01*
X28291755Y-29735451D01*
X28273021Y-29750160D01*
X28263879Y-29757335D01*
X28262126Y-29758482D01*
X28257454Y-29756785D01*
X28255044Y-29744243D01*
X28254359Y-29718684D01*
X28254359Y-29672567D01*
X28353314Y-29597796D01*
X28452270Y-29523026D01*
X28353314Y-29520900D01*
X28254359Y-29518775D01*
X28254359Y-29435439D01*
X28673249Y-29435439D01*
X28673249Y-29519217D01*
G37*
G36*
X27590954Y-34322153D02*
G01*
X27626676Y-34346560D01*
X27650775Y-34378058D01*
X27653764Y-34384323D01*
X27666321Y-34427134D01*
X27667187Y-34470590D01*
X27657102Y-34511409D01*
X27636806Y-34546309D01*
X27607040Y-34572009D01*
X27579531Y-34582383D01*
X27542710Y-34587208D01*
X27505248Y-34585163D01*
X27473983Y-34576041D01*
X27465330Y-34571089D01*
X27440250Y-34546580D01*
X27423390Y-34513599D01*
X27415709Y-34476073D01*
X27416699Y-34460715D01*
X27478331Y-34460715D01*
X27481595Y-34477885D01*
X27491849Y-34491701D01*
X27507933Y-34502523D01*
X27535550Y-34508412D01*
X27564233Y-34503897D01*
X27588288Y-34489129D01*
X27601579Y-34469796D01*
X27605259Y-34444689D01*
X27596351Y-34420343D01*
X27575980Y-34399481D01*
X27545270Y-34384830D01*
X27542371Y-34383970D01*
X27523131Y-34379620D01*
X27510883Y-34381792D01*
X27499142Y-34391409D01*
X27497966Y-34392651D01*
X27486297Y-34413373D01*
X27479586Y-34441342D01*
X27478331Y-34460715D01*
X27416699Y-34460715D01*
X27418168Y-34437931D01*
X27431727Y-34403100D01*
X27446818Y-34378348D01*
X27429744Y-34378348D01*
X27414323Y-34379213D01*
X27379758Y-34387765D01*
X27351409Y-34403802D01*
X27332261Y-34425273D01*
X27325300Y-34450125D01*
X27326841Y-34469225D01*
X27335117Y-34486249D01*
X27353744Y-34499335D01*
X27362791Y-34505805D01*
X27369206Y-34518952D01*
X27370880Y-34541914D01*
X27370640Y-34551086D01*
X27368338Y-34570067D01*
X27364385Y-34579484D01*
X27363560Y-34579910D01*
X27350212Y-34578881D01*
X27330622Y-34570036D01*
X27308948Y-34556026D01*
X27289348Y-34539503D01*
X27275979Y-34523117D01*
X27266589Y-34501157D01*
X27260391Y-34460718D01*
X27264807Y-34418111D01*
X27279702Y-34378578D01*
X27291852Y-34360167D01*
X27320530Y-34333543D01*
X27359546Y-34314494D01*
X27410879Y-34301863D01*
X27436104Y-34298477D01*
X27493463Y-34297411D01*
X27523131Y-34302016D01*
X27545815Y-34305537D01*
X27590954Y-34322153D01*
G37*
G36*
X26382774Y-29831648D02*
G01*
X26396961Y-29833371D01*
X26401395Y-29838437D01*
X26399417Y-29848618D01*
X26397361Y-29855151D01*
X26386440Y-29884665D01*
X26375485Y-29907096D01*
X26366320Y-29918587D01*
X26360414Y-29922919D01*
X26358323Y-29928232D01*
X26365494Y-29932217D01*
X26383121Y-29935036D01*
X26412394Y-29936850D01*
X26454506Y-29937820D01*
X26510649Y-29938108D01*
X26663371Y-29938108D01*
X26658767Y-30018078D01*
X26458841Y-30020108D01*
X26258916Y-30022139D01*
X26258916Y-29981548D01*
X26258978Y-29973841D01*
X26261053Y-29950746D01*
X26267818Y-29934686D01*
X26281630Y-29919197D01*
X26286250Y-29914377D01*
X26303640Y-29890543D01*
X26316937Y-29864459D01*
X26323754Y-29847642D01*
X26331813Y-29836337D01*
X26344490Y-29832114D01*
X26367091Y-29831481D01*
X26382774Y-29831648D01*
G37*
G36*
X26384959Y-24964941D02*
G01*
X26397636Y-24967002D01*
X26401183Y-24973165D01*
X26399056Y-24985679D01*
X26396952Y-24992930D01*
X26387997Y-25015569D01*
X26376062Y-25039952D01*
X26369728Y-25051773D01*
X26361249Y-25068385D01*
X26357927Y-25076129D01*
X26358217Y-25076305D01*
X26368174Y-25077153D01*
X26390636Y-25077887D01*
X26423322Y-25078465D01*
X26463954Y-25078842D01*
X26510251Y-25078978D01*
X26662575Y-25078978D01*
X26662575Y-25155139D01*
X26258916Y-25155139D01*
X26258916Y-25119886D01*
X26260744Y-25095981D01*
X26268459Y-25076726D01*
X26285126Y-25055621D01*
X26292552Y-25046630D01*
X26309530Y-25020504D01*
X26320604Y-24995673D01*
X26325565Y-24980313D01*
X26332449Y-24969429D01*
X26344558Y-24965351D01*
X26366894Y-24964735D01*
X26384959Y-24964941D01*
G37*
G36*
X26520059Y-21294072D02*
G01*
X26567221Y-21313359D01*
X26608462Y-21345588D01*
X26625332Y-21364429D01*
X26642610Y-21388337D01*
X26652570Y-21407973D01*
X26656613Y-21425106D01*
X26660561Y-21459704D01*
X26661463Y-21498035D01*
X26659262Y-21533891D01*
X26653907Y-21561064D01*
X26648310Y-21575211D01*
X26626066Y-21610798D01*
X26596255Y-21639791D01*
X26562242Y-21659380D01*
X26527387Y-21666756D01*
X26520503Y-21666357D01*
X26513745Y-21662083D01*
X26510859Y-21650064D01*
X26510251Y-21626565D01*
X26510627Y-21605636D01*
X26513472Y-21591165D01*
X26521315Y-21583093D01*
X26536682Y-21576648D01*
X26542056Y-21574536D01*
X26570785Y-21554777D01*
X26588182Y-21524966D01*
X26594029Y-21485448D01*
X26593208Y-21466477D01*
X26587439Y-21443680D01*
X26574081Y-21423516D01*
X26561105Y-21409586D01*
X26533596Y-21389855D01*
X26500204Y-21379127D01*
X26456793Y-21375718D01*
X26439810Y-21376082D01*
X26392902Y-21383722D01*
X26356460Y-21401565D01*
X26329467Y-21430044D01*
X26326556Y-21434717D01*
X26314805Y-21467064D01*
X26313829Y-21501474D01*
X26322665Y-21534039D01*
X26340349Y-21560851D01*
X26365920Y-21578003D01*
X26376291Y-21582484D01*
X26384407Y-21590038D01*
X26387744Y-21603570D01*
X26388392Y-21627701D01*
X26388392Y-21668917D01*
X26360010Y-21664311D01*
X26356819Y-21663750D01*
X26318405Y-21649161D01*
X26287017Y-21622116D01*
X26263544Y-21584023D01*
X26248873Y-21536291D01*
X26243894Y-21480327D01*
X26246642Y-21445173D01*
X26261544Y-21395353D01*
X26288591Y-21353860D01*
X26326886Y-21321600D01*
X26375531Y-21299482D01*
X26433629Y-21288413D01*
X26465445Y-21287225D01*
X26520059Y-21294072D01*
G37*
G36*
X26382569Y-27485847D02*
G01*
X26396896Y-27487543D01*
X26401394Y-27492602D01*
X26399417Y-27502831D01*
X26397361Y-27509364D01*
X26386440Y-27538878D01*
X26375485Y-27561309D01*
X26366320Y-27572800D01*
X26360472Y-27577076D01*
X26358300Y-27582408D01*
X26365393Y-27586407D01*
X26382943Y-27589237D01*
X26412142Y-27591058D01*
X26454180Y-27592032D01*
X26510251Y-27592321D01*
X26662575Y-27592321D01*
X26662575Y-27676099D01*
X26258916Y-27676099D01*
X26258916Y-27637037D01*
X26258933Y-27633281D01*
X26260987Y-27608350D01*
X26268594Y-27589672D01*
X26284764Y-27569365D01*
X26292046Y-27560701D01*
X26309121Y-27535950D01*
X26320567Y-27513224D01*
X26325206Y-27501292D01*
X26332649Y-27490626D01*
X26345068Y-27486427D01*
X26367586Y-27485694D01*
X26382569Y-27485847D01*
G37*
G36*
X26662575Y-32255638D02*
G01*
X26660560Y-32318322D01*
X26653295Y-32374425D01*
X26639991Y-32419487D01*
X26619873Y-32455333D01*
X26592169Y-32483786D01*
X26556104Y-32506669D01*
X26535830Y-32516201D01*
X26513421Y-32523361D01*
X26487910Y-32526755D01*
X26453259Y-32527613D01*
X26428034Y-32527211D01*
X26399520Y-32524592D01*
X26376050Y-32518509D01*
X26351593Y-32507785D01*
X26345616Y-32504727D01*
X26313300Y-32484167D01*
X26288545Y-32459360D01*
X26270373Y-32428154D01*
X26257807Y-32388400D01*
X26249868Y-32337950D01*
X26247633Y-32304958D01*
X26319846Y-32304958D01*
X26322390Y-32344462D01*
X26332534Y-32379928D01*
X26351651Y-32406473D01*
X26381049Y-32426699D01*
X26421453Y-32440971D01*
X26464774Y-32444387D01*
X26506107Y-32436818D01*
X26542030Y-32418908D01*
X26569124Y-32391300D01*
X26574187Y-32383105D01*
X26581712Y-32365011D01*
X26585421Y-32342187D01*
X26586413Y-32309425D01*
X26586413Y-32253430D01*
X26319846Y-32253430D01*
X26319846Y-32304958D01*
X26247633Y-32304958D01*
X26245580Y-32274653D01*
X26241424Y-32169652D01*
X26662575Y-32169652D01*
X26662575Y-32255638D01*
G37*
G36*
X27568901Y-26692245D02*
G01*
X27584305Y-26695484D01*
X27614427Y-26710798D01*
X27640490Y-26734541D01*
X27657267Y-26762554D01*
X27663476Y-26788428D01*
X27666868Y-26826508D01*
X27665863Y-26865986D01*
X27660301Y-26899680D01*
X27647330Y-26928603D01*
X27623411Y-26954579D01*
X27593084Y-26971372D01*
X27559482Y-26978400D01*
X27525738Y-26975079D01*
X27494983Y-26960826D01*
X27470351Y-26935057D01*
X27451648Y-26906155D01*
X27442057Y-26924458D01*
X27439504Y-26928971D01*
X27417555Y-26952208D01*
X27388894Y-26964771D01*
X27356892Y-26966890D01*
X27324918Y-26958799D01*
X27296340Y-26940729D01*
X27274528Y-26912913D01*
X27272904Y-26909645D01*
X27263703Y-26877557D01*
X27260896Y-26838611D01*
X27264487Y-26798989D01*
X27274476Y-26764875D01*
X27284384Y-26748273D01*
X27307546Y-26724596D01*
X27335249Y-26707684D01*
X27362397Y-26701226D01*
X27366929Y-26701450D01*
X27374427Y-26705201D01*
X27377747Y-26716553D01*
X27378497Y-26739307D01*
X27377766Y-26759197D01*
X27374257Y-26773312D01*
X27367072Y-26777388D01*
X27360654Y-26778162D01*
X27343672Y-26788794D01*
X27331609Y-26808469D01*
X27325750Y-26832782D01*
X27327381Y-26857328D01*
X27337788Y-26877703D01*
X27340706Y-26880643D01*
X27360910Y-26890685D01*
X27383056Y-26889057D01*
X27403447Y-26877661D01*
X27418392Y-26858402D01*
X27424194Y-26833182D01*
X27424232Y-26827611D01*
X27426243Y-26814081D01*
X27434566Y-26808772D01*
X27453656Y-26807853D01*
X27464533Y-26807985D01*
X27477791Y-26810617D01*
X27483956Y-26819928D01*
X27487449Y-26840144D01*
X27488172Y-26844821D01*
X27499397Y-26874760D01*
X27520215Y-26893051D01*
X27550152Y-26899247D01*
X27556220Y-26898944D01*
X27579850Y-26890432D01*
X27595890Y-26872753D01*
X27604175Y-26849322D01*
X27604544Y-26823556D01*
X27596831Y-26798870D01*
X27580874Y-26778680D01*
X27556509Y-26766402D01*
X27551038Y-26764849D01*
X27542392Y-26759337D01*
X27539310Y-26747816D01*
X27539934Y-26725732D01*
X27542245Y-26689802D01*
X27568901Y-26692245D01*
G37*
G36*
X26662575Y-23502426D02*
G01*
X26513609Y-23502426D01*
X26506328Y-23502433D01*
X26461663Y-23502829D01*
X26423327Y-23503756D01*
X26393547Y-23505117D01*
X26374548Y-23506815D01*
X26368555Y-23508753D01*
X26375425Y-23514254D01*
X26393014Y-23525842D01*
X26418458Y-23541586D01*
X26448974Y-23559722D01*
X26474448Y-23574675D01*
X26498791Y-23589692D01*
X26513827Y-23600810D01*
X26521795Y-23610139D01*
X26524934Y-23619790D01*
X26525483Y-23631876D01*
X26525118Y-23642588D01*
X26522521Y-23652213D01*
X26515477Y-23661219D01*
X26501777Y-23671622D01*
X26479207Y-23685434D01*
X26445557Y-23704671D01*
X26444856Y-23705068D01*
X26414063Y-23722976D01*
X26388865Y-23738476D01*
X26371846Y-23749921D01*
X26365587Y-23755664D01*
X26365715Y-23755904D01*
X26374757Y-23757637D01*
X26396421Y-23759140D01*
X26428398Y-23760323D01*
X26468380Y-23761098D01*
X26514059Y-23761376D01*
X26662575Y-23761376D01*
X26662575Y-23837538D01*
X26243684Y-23837538D01*
X26243684Y-23749325D01*
X26339415Y-23693427D01*
X26379193Y-23669472D01*
X26408258Y-23650261D01*
X26424603Y-23637029D01*
X26427742Y-23630124D01*
X26427069Y-23629528D01*
X26416061Y-23621947D01*
X26395051Y-23608699D01*
X26366762Y-23591474D01*
X26333915Y-23571958D01*
X26247492Y-23521196D01*
X26245225Y-23473730D01*
X26242957Y-23426264D01*
X26662575Y-23426264D01*
X26662575Y-23502426D01*
G37*
X33868000Y-27924000D02*
X33868000Y-30124000D01*
X30648000Y-27924000D02*
X30648000Y-30124000D01*
X30648000Y-27924000D02*
X30648000Y-24324000D01*
X33868000Y-27924000D02*
X33868000Y-25724000D01*
X22575071Y-27050000D02*
X22120929Y-27050000D01*
X22575071Y-31370000D02*
X22120929Y-31370000D01*
X22575071Y-29590000D02*
X22120929Y-29590000D01*
X22575071Y-26290000D02*
X22120929Y-26290000D01*
X22508000Y-21210000D02*
X22120929Y-21210000D01*
X22575071Y-23750000D02*
X22120929Y-23750000D01*
X22575071Y-33910000D02*
X22120929Y-33910000D01*
X22575071Y-32130000D02*
X22120929Y-32130000D01*
X22508000Y-21970000D02*
X22120929Y-21970000D01*
X22575071Y-28830000D02*
X22120929Y-28830000D01*
X22575071Y-24510000D02*
X22120929Y-24510000D01*
X22575071Y-34670000D02*
X22120929Y-34670000D01*
%LPC*%
D15*
X42269500Y-34798000D03*
X44344500Y-34798000D03*
X31474500Y-34798000D03*
X33549500Y-34798000D03*
D16*
X42078000Y-25077500D03*
X42728000Y-25077500D03*
X43378000Y-25077500D03*
X44028000Y-25077500D03*
X44028000Y-30802500D03*
X43378000Y-30802500D03*
X42728000Y-30802500D03*
X42078000Y-30802500D03*
X31283000Y-25061500D03*
X31933000Y-25061500D03*
X32583000Y-25061500D03*
X33233000Y-25061500D03*
X33233000Y-30786500D03*
X32583000Y-30786500D03*
X31933000Y-30786500D03*
X31283000Y-30786500D03*
D17*
X23618000Y-21590000D03*
D18*
X23618000Y-24130000D03*
X23618000Y-26670000D03*
X23618000Y-29210000D03*
X23618000Y-31750000D03*
X23618000Y-34290000D03*
D19*
X21078000Y-21590000D03*
D18*
X21078000Y-24130000D03*
X21078000Y-26670000D03*
X21078000Y-29210000D03*
X21078000Y-31750000D03*
X21078000Y-34290000D03*
M02*
